<?xml version="1.0" encoding="UTF-8"?>
<!DOCTYPE svg PUBLIC "-//W3C//DTD SVG 1.1//EN" "http://www.w3.org/Graphics/SVG/1.1/DTD/svg11.dtd">
<!-- Creator: CorelDRAW X6 -->
<svg xmlns="http://www.w3.org/2000/svg" xml:space="preserve" width="141111mm" height="141111mm" version="1.1" style="shape-rendering:geometricPrecision; text-rendering:geometricPrecision; image-rendering:optimizeQuality; fill-rule:evenodd; clip-rule:evenodd"
viewBox="0 0 14111111 14111111"
 xmlns:xlink="http://www.w3.org/1999/xlink">
 <defs>
  <style type="text/css">
   <![CDATA[
    .str0 {stroke:#2B2A29;stroke-width:7055.56}
    .fil4 {fill:#2B2A29}
    .fil1 {fill:#7E71B1}
    .fil0 {fill:#AADAE0}
    .fil2 {fill:#CEE0A0}
    .fil3 {fill:#ADA7A0}
    .fil5 {fill:#FBFBF8}
   ]]>
  </style>
 </defs>
 <g id="Layer_x0020_1">
  <metadata id="CorelCorpID_0Corel-Layer"/>
  <path class="fil0" d="M7017988 10400898l-6880655 -282413c169055,-3283070 3199557,-5867227 6880655,-5867227 3804095,0 6887923,2753289 6887923,6149640 0,511866 -71582,1021725 -213074,1517756l-6674849 -1517756z"/>
  <path class="fil1" d="M2443840 5795536c-524545,402523 -846815,626057 -1366562,1459438 -332501,508180 -428767,803994 -614790,1237512 -156090,363760 -16665,590854 521766,112261 635433,-564811 1218804,305450 1397811,444370 944816,733234 985181,-73350 1791444,-56497 379935,7944 536847,-781237 114819,-262428 -200858,246923 -1107098,160193 -446497,-572245 186965,-207295 393993,-984080 -178597,-738695 -47078,-160842 607459,-1269146 -623881,-1086171 -699967,104016 -101593,1218572 -1018737,1022385 -88703,-18972 -343129,-637572 255139,-875372 110321,-43850 319187,-550827 168085,-684558z"/>
  <path class="fil1" d="M5103777 8413926c-40072,12697 -116508,-44376 -153987,-31513 -410147,140765 -654982,396233 -127794,774834 433892,311594 762896,-342833 993831,324393 88502,255693 278286,555406 637851,552803 87658,-635 -100764,-91352 -125451,-203084 -40341,-182590 -12640,-430209 -23375,-498552 -87052,-553950 76877,-688658 -151134,-896490 -5129,-70393 104810,-320495 -178537,-414320 -128270,-42471 -428392,149381 -476455,139595 -112660,-22942 -268594,212291 -394949,252334z"/>
  <path class="fil1" d="M4306249 8131524c9257,-5821 623323,-533347 430396,-207458 -111351,188101 -325353,141394 -430396,207458z"/>
  <path class="fil1" d="M4214964 4782965c-391597,115432 -750284,290103 -1071012,533100 597263,319133 347003,313707 583068,481831 219678,156457 87365,-496101 435557,-724719 81767,-53689 73674,-204367 52387,-290212z"/>
  <path class="fil1" d="M4678327 5059207c-2402,2484 -489331,330571 -63786,278222 241170,-29669 224445,-544474 63786,-278222z"/>
  <path class="fil1" d="M11818345 5954476c229404,189251 740332,691487 1253116,1445747 433183,637177 524588,1025003 590571,1372905 72835,384048 -136426,83196 -167382,29958 -311048,-534822 -523844,-74962 -707108,-255139 -221308,-217583 -135121,-65606 -582567,-65606 0,-234725 246698,-26843 334716,-175564 199118,-336430 -482784,-464975 -671259,-508458 -70979,-181356 -316713,-2583 -318925,1823 -302137,601666 -739574,-26366 -749628,63786 -38174,342353 -477735,142300 -561915,23082 -331908,-470023 -119987,59422 -164627,122104 -308956,433804 -250289,-212799 -297667,-323783 -402428,-942742 -483553,686879 -483553,-499957 0,-312236 -746753,-554778 -745980,-550982 65359,320689 422391,430276 430699,444676 -331957,575328 -513309,49625 -577709,26727 -554446,-197164 84067,-365662 -127571,-409438 7295,-92385 -207105,33803 -315281,-3644 -293,-1418 -153649,-281905 60141,-272761 470793,20144 307422,-332380 19438,-208971 -232501,-151620 -320996,203835 -320745,208971 19004,383597 -230237,-68470 -230237,-127568 -318572,0 -94904,51044 -83220,191354 31291,375694 -108762,-503597 -482068,-149976 -173961,164786 -223943,137590 -249068,150869 -298231,157660 30706,320392 -395735,231161 -162398,-33980 -8650,-293476 -1824,-295840 59464,-20584 134288,-41737 158274,-84525 55079,-98245 -107654,-239028 -106003,-362635 1457,-108690 160771,-205320 282448,-231390 191611,165657 512586,-124365 517574,-148830 69198,-339566 94993,58660 526073,-90519 93303,-450875 96795,-266792 -37056,-249672 -709203,90707 -176466,-200187 -270936,-304955 -363866,-403521 -326549,1010825 -584998,264255 -450991,-156118 -181860,-72838 -86871,-264255 207987,-419132 525723,-685345 1020561,-371771 348072,220564 312875,174600 -37056,185885 59503,125131 70178,185085 252251,169919 46930,-3905 39084,-151602 217480,-143972 151973,6502 282928,-224194 479750,-107671 76549,45314 167001,106020 120893,-41614 -32092,-102764 17805,-74097 116484,-136835 1788,-1140 24659,-15988 67327,-15413 590547,7969 1907032,641770 2909193,1468522z"/>
  <path class="fil1" d="M8209022 6871000c-160009,269713 214856,281682 278794,512717 173118,124982 317105,70675 384168,52189 95814,-26405 63242,188123 -262061,289822 -134895,42171 93906,303307 -334723,682194 -55432,48997 -383279,1067414 -604135,340032 -17018,-56060 -96034,-124993 -96605,-197160 -759,-95434 109788,-246416 81950,-352665 -29919,-114202 -71878,-200992 -311125,-296157 -87595,-34844 -111827,42312 -240316,29538 -428184,-42563 -888517,67758 -821334,-475534 26787,-216620 76895,-630276 265480,-728179 842500,-437395 757050,-67892 978281,149285 116967,114818 75741,206339 313457,37052 163068,-116127 48394,328711 368169,-43134z"/>
  <path class="fil1" d="M8686158 8450446c-311591,57813 -272274,644017 5165,175256 16333,-27594 -1838,-175873 -5165,-175256z"/>
  <path class="fil1" d="M9908706 8429184c-204534,349187 714011,567267 303135,324086 -194335,-115016 -222067,-254903 -303135,-324086z"/>
  <path class="fil2" d="M10447613 8746031c-24804,-78193 713013,-247706 269113,130913 -186373,158961 -127766,-80952 -269113,-130913z"/>
  <path class="fil1" d="M11187067 9218528c-142244,-15660 -576933,-5507 -562868,360944 3242,84522 185776,45752 306896,70436 202466,41261 -38700,866369 592306,619125 393044,-545857 -128411,-334186 -44968,-891882 11225,-75040 -174727,136218 -187480,96816 -62872,-194229 -55055,-250063 -103886,-255439z"/>
  <path class="fil1" d="M11599016 10682926c235500,-242062 648938,53157 53153,53157l-53153 -53157z"/>
  <path class="fil1" d="M5762678 5845888c-208481,247307 225136,-107397 194998,123927 445703,154284 -123984,-835628 -23082,-230233 20591,123549 -315348,-51224 -171916,106306z"/>
  <path class="fil1" d="M11131257 8290983c275005,0 536797,13258 582874,-278225 1175,-7447 161960,11744 26730,289161 -55104,113041 -534402,217911 -609604,-10936z"/>
  <path class="fil0" d="M8887471 6390097c-85105,-9049 -153106,-112547 -87704,-147546 23389,-12513 74439,-126728 95225,-24754 1538,7563 154756,192927 222334,190902 23753,-709 -69366,140222 -204113,-1824 -2427,-2554 -17297,-15879 -25742,-16778z"/>
  <path class="fil1" d="M11420242 9021198c68220,37941 143521,175472 143521,252483 115573,-145327 -239381,-390144 -143521,-252483z"/>
  <path class="fil3" d="M137333 10118485c89715,-128690 803585,-85760 1326677,-309481 727812,-311277 1776307,472140 2804721,47992 487602,-201101 1512489,292195 2083650,292195 1344225,0 1395850,-586976 2654067,-210795 1222467,365491 812553,791308 1799961,1013273 354330,79653 556218,-62636 1049112,281869 4166,2914 1109475,87669 1265371,120283 466189,97536 840282,838486 281873,723502 -8586421,-1768147 -10641326,611321 -13250316,-1794073 0,0 -40287,-128655 -15116,-164765z"/>
  <path class="fil1" d="M11115326 10319106c36244,32576 51816,23965 71748,28731 49099,11733 -118622,90635 -71748,-28731z"/>
  <path class="fil4 str0" d="M8527052 6142366c-416963,-756628 -3183456,-3751252 -544566,-4371474 1443129,-339182 2596579,883923 2028928,1767575 -180280,280635 -1145308,2490174 -1484362,2603899z"/>
  <ellipse class="fil5 str0" cx="8513018" cy="3399113" rx="708917" ry="815474"/>
  <path class="fil4 str0" d="M5102832 8658472c-209215,-379645 -1597329,-1882225 -273241,-2193428 724101,-170187 1302854,443516 1018032,886898 -90459,140811 -574668,1249468 -744791,1306530z"/>
  <ellipse class="fil5 str0" cx="5095789" cy="7282019" rx="355706" ry="409172"/>
  <path class="fil4 str0" d="M12440306 7127713c-209215,-379646 -1597328,-1882225 -273240,-2193428 724101,-170187 1302854,443516 1018032,886898 -90460,140811 -574668,1249468 -744792,1306530z"/>
  <ellipse class="fil5 str0" cx="12433263" cy="5751260" rx="355706" ry="409172"/>
  <path class="fil4 str0" d="M1801305 6847558c-209215,-379646 -1597329,-1882225 -273241,-2193428 724101,-170187 1302854,443516 1018032,886898 -90459,140811 -574668,1249468 -744791,1306530z"/>
  <ellipse class="fil5 str0" cx="1794262" cy="5471105" rx="355706" ry="409172"/>
  <path class="fil4 str0" d="M10910990 9422321c-208481,-378312 -1591726,-1875625 -272285,-2185734 721565,-169591 1298290,441960 1014466,883786 -90142,140317 -572654,1245087 -742181,1301948z"/>
  <ellipse class="fil5 str0" cx="10903972" cy="8050696" rx="354458" ry="407737"/>
 </g>
</svg>
