<?xml version="1.0" encoding="UTF-8"?>
<!DOCTYPE svg PUBLIC "-//W3C//DTD SVG 1.1//EN" "http://www.w3.org/Graphics/SVG/1.1/DTD/svg11.dtd">
<!-- Creator: CorelDRAW X6 -->
<svg xmlns="http://www.w3.org/2000/svg" xml:space="preserve" width="40mm" height="40mm" version="1.1" style="shape-rendering:geometricPrecision; text-rendering:geometricPrecision; image-rendering:optimizeQuality; fill-rule:evenodd; clip-rule:evenodd"
viewBox="0 0 4000 4000"
 xmlns:xlink="http://www.w3.org/1999/xlink">
 <defs>
  <style type="text/css">
   <![CDATA[
    .str0 {stroke:#2B2A29;stroke-width:2}
    .fil4 {fill:#2B2A29}
    .fil0 {fill:#008DD2}
    .fil1 {fill:#CEE0A0}
    .fil3 {fill:#ADA7A0}
    .fil2 {fill:#CEE0A0}
    .fil5 {fill:#FBFBF8}
   ]]>
  </style>
 </defs>
 <g id="Layer_x0020_1">
  <metadata id="CorelCorpID_0Corel-Layer"/>
  <path class="fil0" d="M1989 2948l-1950 -80c48,-930 907,-1663 1950,-1663 1079,0 1953,781 1953,1743 0,145 -20,290 -61,431l-1892 -431z"/>
  <path class="fil1" d="M693 1643c-149,114 -240,177 -388,414 -94,144 -121,227 -174,350 -44,103 -5,168 148,32 180,-160 345,87 396,126 268,208 279,-21 508,-16 108,2 152,-221 33,-74 -57,70 -314,45 -127,-163 53,-58 112,-278 -51,-209 -13,-45 173,-360 -176,-308 -199,30 -29,346 -289,290 -25,-5 -97,-181 72,-248 31,-13 91,-156 48,-194z"/>
  <path class="fil1" d="M1447 2385c-12,4 -33,-13 -44,-9 -116,40 -186,112 -36,220 123,88 216,-97 282,92 25,72 78,157 180,156 25,0 -28,-25 -35,-57 -12,-52 -4,-122 -7,-141 -24,-158 22,-196 -43,-255 -1,-20 30,-90 -50,-117 -37,-12 -122,42 -135,40 -32,-7 -76,60 -112,71z"/>
  <path class="fil1" d="M1221 2305c2,-2 176,-151 122,-59 -32,54 -93,40 -122,59z"/>
  <path class="fil1" d="M1195 1356c-111,33 -213,82 -304,151 170,90 99,89 165,136 63,45 25,-140 124,-205 23,-15 21,-58 15,-82z"/>
  <path class="fil1" d="M1326 1434c-1,1 -139,94 -18,79 68,-8 64,-154 18,-79z"/>
  <path class="fil1" d="M3350 1688c65,54 210,196 355,410 123,180 149,290 168,389 20,109 -39,23 -48,8 -88,-151 -148,-21 -200,-72 -63,-62 -38,-19 -165,-19 0,-66 70,-7 95,-49 56,-96 -137,-132 -191,-144 -20,-52 -89,-1 -90,0 -86,171 -210,-7 -213,18 -10,97 -135,40 -159,7 -94,-134 -34,17 -47,34 -87,123 -71,-60 -84,-91 -114,-268 -137,194 -137,-142 0,-89 -212,-157 -211,-156 18,91 119,122 122,126 -94,163 -146,14 -164,7 -157,-56 24,-103 -36,-116 2,-26 -59,10 -90,-1 0,0 -43,-80 17,-77 134,6 88,-94 6,-59 -66,-43 -91,57 -91,59 5,109 -65,-20 -65,-36 -91,0 -27,14 -24,54 9,106 -31,-143 -137,-43 -49,47 -63,39 -70,43 -85,45 9,91 -112,66 -46,-10 -3,-84 -1,-84 17,-6 38,-12 45,-24 16,-28 -30,-68 -30,-103 0,-31 46,-58 80,-66 54,47 145,-35 147,-42 19,-96 27,17 149,-25 26,-128 27,-76 -11,-71 -201,26 -50,-57 -76,-87 -104,-114 -93,287 -166,75 -128,-44 -52,-20 -25,-75 59,-118 149,-194 289,-105 99,63 89,50 -10,53 17,35 20,52 71,48 14,-1 11,-43 62,-41 43,2 80,-63 136,-30 22,12 47,30 34,-12 -9,-29 5,-21 33,-39 1,0 7,-5 19,-4 168,2 541,182 825,416z"/>
  <path class="fil1" d="M2327 1948c-45,76 61,80 79,145 49,35 90,20 109,15 27,-8 18,53 -74,82 -39,12 26,86 -95,193 -16,14 -109,303 -172,97 -4,-16 -27,-36 -27,-56 0,-27 31,-70 23,-100 -8,-32 -20,-57 -88,-84 -25,-10 -32,12 -68,8 -121,-12 -252,20 -233,-134 8,-62 22,-179 75,-207 239,-124 215,-19 278,42 33,33 21,59 89,11 46,-33 13,93 104,-12z"/>
  <path class="fil1" d="M2462 2395c-88,17 -77,183 2,50 4,-8 -1,-50 -2,-50z"/>
  <path class="fil1" d="M2809 2389c-58,99 202,161 86,92 -55,-32 -63,-72 -86,-92z"/>
  <path class="fil1" d="M2962 2479c-8,-22 202,-70 76,37 -53,45 -36,-23 -76,-37z"/>
  <path class="fil2" d="M3171 2613c-40,-4 -163,-1 -159,102 1,24 52,13 87,20 57,12 -11,246 167,176 112,-155 -36,-95 -12,-253 3,-21 -50,39 -53,28 -18,-56 -16,-71 -30,-73z"/>
  <path class="fil1" d="M3288 3028c67,-68 184,15 15,15l-15 -15z"/>
  <path class="fil1" d="M1634 1657c-60,70 63,-30 55,35 126,44 -35,-237 -7,-65 6,35 -89,-15 -48,30z"/>
  <path class="fil1" d="M3155 2350c78,0 152,4 166,-79 0,-2 45,4 7,82 -16,32 -151,62 -173,-3z"/>
  <path class="fil0" d="M2519 1811c-24,-2 -43,-32 -25,-41 7,-4 22,-36 27,-7 1,2 44,54 63,54 7,-1 -19,39 -57,-1 -1,-1 -5,-4 -8,-5z"/>
  <path class="fil1" d="M3237 2557c20,11 41,50 41,72 33,-41 -68,-111 -41,-72z"/>
  <path class="fil3" d="M39 2868c25,-36 228,-24 376,-87 206,-89 504,133 795,13 138,-57 429,83 591,83 381,0 395,-166 752,-60 347,104 230,224 510,287 101,23 158,-17 298,80 1,1 314,25 358,34 132,28 238,238 80,205 -2434,-501 -3016,174 -3756,-508 0,0 -11,-37 -4,-47z"/>
  <path class="fil1" d="M3151 2925c10,9 14,7 20,8 14,4 -33,26 -20,-8z"/>
  <path class="fil4 str0" d="M2417 1741c-118,-214 -902,-1063 -154,-1239 409,-96 736,251 575,501 -51,80 -325,706 -421,738z"/>
  <ellipse class="fil5 str0" cx="2413" cy="964" rx="201" ry="231"/>
  <path class="fil4 str0" d="M1446 2454c-59,-107 -452,-533 -77,-621 205,-49 369,125 289,251 -26,40 -163,354 -212,370z"/>
  <ellipse class="fil5 str0" cx="1444" cy="2064" rx="101" ry="116"/>
  <path class="fil4 str0" d="M3526 2020c-59,-107 -452,-533 -77,-621 205,-49 369,125 289,251 -26,40 -163,354 -212,370z"/>
  <ellipse class="fil5 str0" cx="3524" cy="1630" rx="101" ry="116"/>
  <path class="fil4 str0" d="M511 1941c-60,-108 -453,-534 -78,-622 205,-48 369,126 289,252 -26,40 -163,354 -211,370z"/>
  <ellipse class="fil5 str0" cx="509" cy="1551" rx="101" ry="116"/>
  <path class="fil4 str0" d="M3093 2671c-59,-107 -451,-532 -77,-620 204,-48 368,126 287,251 -25,40 -162,353 -210,369z"/>
  <ellipse class="fil5 str0" cx="3091" cy="2282" rx="100" ry="116"/>
 </g>
</svg>
