<?xml version="1.0" encoding="UTF-8"?>
<!DOCTYPE svg PUBLIC "-//W3C//DTD SVG 1.1//EN" "http://www.w3.org/Graphics/SVG/1.1/DTD/svg11.dtd">
<!-- Creator: CorelDRAW X6 -->
<svg xmlns="http://www.w3.org/2000/svg" xml:space="preserve" width="40mm" height="40mm" version="1.1" style="shape-rendering:geometricPrecision; text-rendering:geometricPrecision; image-rendering:optimizeQuality; fill-rule:evenodd; clip-rule:evenodd"
viewBox="0 0 4000 4000"
 xmlns:xlink="http://www.w3.org/1999/xlink">
 <defs>
  <style type="text/css">
   <![CDATA[
    .fil0 {fill:#008DD2}
    .fil1 {fill:#CEE0A0}
    .fil3 {fill:#ADA7A0}
    .fil2 {fill:#CEE0A0}
   ]]>
  </style>
 </defs>
 <g id="Layer_x0020_1">
  <metadata id="CorelCorpID_0Corel-Layer"/>
  <path class="fil0" d="M1934 2506l-1712 -70c42,-817 796,-1460 1712,-1460 947,0 1715,685 1715,1530 0,127 -18,254 -53,378l-1662 -378z"/>
  <path class="fil1" d="M796 1360c-131,100 -211,156 -340,363 -83,127 -107,200 -153,308 -39,91 -4,147 130,28 158,-141 303,76 348,111 235,182 245,-19 446,-14 94,2 133,-195 28,-66 -50,62 -275,40 -111,-142 46,-52 98,-245 -44,-184 -12,-40 151,-316 -156,-270 -174,26 -25,303 -253,254 -22,-5 -86,-159 63,-218 28,-11 80,-137 42,-170z"/>
  <path class="fil1" d="M1458 2012c-10,3 -29,-11 -38,-8 -102,35 -163,98 -32,193 108,77 190,-86 247,80 22,64 70,139 159,138 22,0 -25,-23 -31,-51 -10,-45 -3,-107 -6,-124 -22,-138 19,-171 -38,-223 -1,-17 26,-80 -44,-103 -32,-11 -107,37 -119,35 -28,-6 -67,53 -98,63z"/>
  <path class="fil1" d="M1260 1941c2,-1 155,-132 107,-51 -28,46 -81,35 -107,51z"/>
  <path class="fil1" d="M1237 1108c-98,29 -187,72 -267,133 149,79 87,78 145,119 55,39 22,-123 109,-180 20,-13 18,-51 13,-72z"/>
  <path class="fil1" d="M1352 1177c0,0 -122,82 -16,69 60,-7 56,-136 16,-69z"/>
  <path class="fil1" d="M3129 1399c57,48 184,173 312,360 108,159 131,255 147,342 18,96 -34,21 -42,7 -77,-133 -130,-18 -176,-63 -55,-54 -33,-16 -145,-16 0,-59 62,-7 84,-44 49,-84 -120,-116 -167,-127 -18,-45 -79,0 -80,1 -75,150 -184,-7 -186,16 -10,85 -119,35 -140,5 -83,-117 -30,15 -41,31 -77,108 -62,-53 -74,-81 -100,-234 -121,171 -121,-124 0,-78 -185,-138 -185,-137 16,79 105,107 107,110 -83,144 -128,13 -144,7 -138,-49 21,-91 -32,-102 2,-23 -51,9 -78,-1 0,0 -38,-70 15,-68 117,5 76,-82 5,-52 -58,-37 -80,51 -80,52 5,96 -57,-17 -57,-31 -80,0 -24,12 -21,47 8,94 -27,-125 -120,-37 -43,41 -56,34 -62,37 -74,40 8,80 -99,58 -40,-9 -2,-73 0,-74 15,-5 33,-10 39,-21 14,-24 -26,-59 -26,-90 0,-27 40,-51 70,-58 48,42 128,-31 129,-37 17,-84 24,15 131,-22 23,-112 24,-67 -9,-62 -177,22 -44,-50 -68,-76 -90,-101 -81,251 -145,66 -112,-39 -45,-19 -22,-66 52,-104 131,-171 254,-93 87,55 78,44 -9,47 15,31 17,46 63,42 11,-1 9,-38 54,-36 38,2 70,-56 119,-27 19,12 42,27 30,-10 -8,-26 5,-19 29,-34 1,0 7,-4 17,-4 147,2 475,160 724,365z"/>
  <path class="fil1" d="M2231 1628c-40,67 53,70 69,127 43,31 79,18 96,13 24,-6 16,47 -65,72 -34,11 23,76 -84,170 -13,12 -95,266 -150,85 -4,-14 -24,-31 -24,-49 0,-24 27,-62 20,-88 -7,-29 -18,-50 -77,-74 -22,-9 -28,11 -60,8 -106,-11 -221,16 -204,-119 6,-54 19,-157 66,-181 209,-109 188,-17 243,37 29,29 19,51 78,9 41,-29 12,82 92,-10z"/>
  <path class="fil1" d="M2350 2021c-78,14 -68,160 1,43 4,-7 -1,-43 -1,-43z"/>
  <path class="fil1" d="M2654 2015c-51,87 178,142 75,81 -48,-29 -55,-63 -75,-81z"/>
  <path class="fil1" d="M2788 2094c-6,-19 177,-61 67,33 -46,39 -32,-20 -67,-33z"/>
  <path class="fil2" d="M2972 2212c-35,-4 -144,-2 -140,90 1,21 46,11 76,17 51,10 -9,216 148,154 98,-136 -32,-83 -11,-222 2,-18 -44,34 -47,24 -16,-48 -14,-62 -26,-63z"/>
  <path class="fil1" d="M3075 2576c58,-60 161,14 13,14l-13 -14z"/>
  <path class="fil1" d="M1622 1372c-52,62 56,-26 49,31 110,39 -31,-208 -6,-57 5,31 -79,-13 -43,26z"/>
  <path class="fil1" d="M2958 1981c69,0 134,3 145,-69 1,-2 41,3 7,72 -14,28 -133,54 -152,-3z"/>
  <path class="fil0" d="M2400 1508c-21,-2 -38,-28 -22,-37 6,-3 18,-31 24,-6 0,2 38,48 55,48 6,-1 -17,34 -51,-1 0,-1 -4,-4 -6,-4z"/>
  <path class="fil1" d="M3030 2163c17,9 36,43 36,63 29,-37 -60,-98 -36,-63z"/>
  <path class="fil3" d="M222 2436c22,-32 200,-22 330,-77 181,-78 442,117 698,12 122,-50 377,72 519,72 334,0 347,-146 660,-52 305,91 203,197 448,252 89,20 139,-15 261,70 1,1 277,22 315,30 116,25 209,209 71,180 -2138,-440 -2649,152 -3298,-446 0,0 -10,-32 -4,-41z"/>
  <path class="fil1" d="M2954 2486c9,8 13,6 18,7 12,3 -29,22 -18,-7z"/>
 </g>
</svg>
