<?xml version="1.0" encoding="UTF-8"?>
<!DOCTYPE svg PUBLIC "-//W3C//DTD SVG 1.1//EN" "http://www.w3.org/Graphics/SVG/1.1/DTD/svg11.dtd">
<!-- Creator: CorelDRAW X6 -->
<svg xmlns="http://www.w3.org/2000/svg" xml:space="preserve" width="40mm" height="40mm" version="1.1" style="shape-rendering:geometricPrecision; text-rendering:geometricPrecision; image-rendering:optimizeQuality; fill-rule:evenodd; clip-rule:evenodd"
viewBox="0 0 4000 4000"
 xmlns:xlink="http://www.w3.org/1999/xlink">
 <defs>
  <style type="text/css">
   <![CDATA[
    .fil4 {fill:none}
    .fil5 {fill:#1A233E}
    .fil1 {fill:#2A356C}
    .fil2 {fill:#48556B}
    .fil3 {fill:#6E818E}
    .fil0 {fill:#8DA1AC}
   ]]>
  </style>
 </defs>
 <g id="Layer_x0020_1">
  <metadata id="CorelCorpID_0Corel-Layer"/>
  <g id="_241936064">
   <path class="fil0" d="M2123 3492l0 18c0,90 74,164 165,164 23,0 45,-5 66,-14 20,9 42,14 65,14l270 0c-23,2 -46,4 -62,6 -40,6 -206,24 -240,17 -32,0 -105,-2 -133,9 -7,3 -4,11 -45,5 -9,-2 5,5 -10,-2 -15,-8 1,8 -7,-7 -2,9 3,7 -7,13 -32,18 22,-1 -7,2 -1,0 -10,-3 -12,-4 -11,17 2,-13 1,2 0,12 13,-16 -1,5 -18,-3 -15,7 -44,2 -86,-13 -66,-2 -66,-182 0,-23 -4,-91 -16,-111 -4,-38 -14,-81 -15,-121 -1,-56 6,-88 -6,-142 17,-16 9,-156 7,-189l-8 -139c-6,-49 -6,-39 8,-52 3,10 6,25 8,38 6,34 5,27 14,36 0,3 0,5 0,7l0 210c0,27 7,53 19,76 0,27 7,53 19,76l0 111c0,28 6,54 18,77 1,27 7,52 19,75zm736 176c11,-3 22,-7 32,-13l18 0c34,0 65,-10 91,-28 41,-14 74,-44 94,-82l17 56c-2,16 -4,17 5,27l7 19c1,13 4,34 3,54 -26,-2 -33,-8 -34,-9l-6 -2c0,0 -2,0 -3,0l-40 -17c-56,-28 -75,-14 -149,-12l-35 7 0 0zm138 -1237c-9,-3 -18,-5 -28,-6 -17,-10 -36,-16 -56,-19 -14,-8 -30,-14 -46,-17 -25,-22 -55,-35 -86,-39 -17,-10 -36,-16 -56,-19 -25,-14 -52,-21 -80,-21l-188 0c-45,0 -87,19 -116,48l0 0 -14 7c-21,11 -38,25 -52,41 -7,6 -13,12 -19,19 -3,3 -6,6 -9,9l-19 19c-3,3 -6,6 -9,9 -7,6 -13,12 -19,19 -20,17 -36,39 -46,65 -18,17 -32,39 -41,63 -14,21 -22,44 -26,69 -4,8 -8,16 -11,25 -10,15 -18,31 -22,49 -22,-56 -21,-75 -39,-139 -6,-25 1,-31 -17,-49l1 -28c1,-27 -14,-57 13,-82 51,-46 87,-99 129,-142 16,-16 21,-28 35,-43 8,-9 28,-24 41,-36l36 -39c36,-18 46,-44 66,-75 26,-3 24,-26 64,-56 35,-27 21,-54 103,-105 9,-5 3,-1 10,-7 68,-55 68,-31 120,18 38,34 15,41 60,61 38,18 27,27 111,72 24,13 18,9 33,27 4,5 11,13 16,17l21 11c5,6 3,4 9,9l45 38c10,10 17,16 25,24 11,11 11,12 34,11 -4,44 9,30 -2,46 -25,35 8,-23 -8,9 9,5 19,9 29,14 -3,19 1,72 8,123z"/>
   <path class="fil1" d="M3568 2499c-27,-4 -32,-12 -35,-36 13,2 13,0 24,10 9,10 7,9 11,26zm-879 1175l125 0c16,0 31,-2 45,-6l0 0c27,3 40,-6 38,16 9,-10 2,-28 37,3 24,21 20,-4 62,15 3,2 23,20 43,-5 14,14 6,-10 12,22 16,-22 48,-13 83,-8l2 -56c21,25 8,42 37,52 1,-14 8,-64 7,-68 0,-8 -5,-6 -4,-23l-2 -121c0,-16 0,-34 2,-51 5,-49 -4,-39 -7,-44 -17,-52 4,-231 -6,-300 -15,-98 5,-205 0,-298 -1,-20 0,-35 1,-49 2,-11 3,-22 3,-34l0 -11c1,-11 1,-22 0,-36l0 -28c0,-9 -1,-17 -2,-25l-6 -165c-12,-94 -69,-72 -94,-129 0,-12 2,-8 -11,-6l-4 -5c-30,-32 -38,-35 -50,-32 -14,4 -7,11 -7,11 -3,-21 -17,-55 -40,-67 -4,-2 -16,-7 -21,-11 -36,-25 -21,-39 -75,-58l-21 -11c-5,-4 -12,-12 -16,-17 -15,-18 -9,-14 -33,-27 -84,-45 -73,-54 -111,-72 -45,-20 -22,-27 -60,-61 -52,-49 -52,-73 -120,-18 -7,6 -1,2 -10,7 -82,51 -68,78 -103,105 -40,30 -38,53 -64,56 -8,4 -8,-4 -18,23l-11 -4c-1,-1 -3,-2 -4,-2 -8,-4 -16,-8 -37,-2l8 1c4,1 8,0 14,1 -2,28 2,7 -5,25l-8 0c0,0 0,0 -1,0l8 11 16 -12c-5,7 -18,13 -28,34l-36 39c-13,12 -33,27 -41,36 -14,15 -19,27 -35,43 -42,43 -78,96 -129,142 -27,25 -12,55 -13,82 -10,10 -5,-1 -5,15 0,1 4,11 4,13 4,35 3,76 13,106 1,1 2,3 2,4 0,0 1,2 1,2 4,11 -3,33 -5,47 -5,34 -5,8 -9,34 -4,22 9,55 11,82l8 327c12,54 5,86 6,142 1,40 11,83 15,121 1,55 7,88 6,144 -1,46 -2,96 2,142 19,16 8,9 25,13 40,11 147,1 169,-8 26,-11 -9,0 16,-10 20,-9 79,-2 107,-5l22 -8c34,7 200,-11 240,-17 16,-2 39,-4 62,-6zm716 -1137l-91 -75c0,-1 -2,-3 -3,-3 0,-1 -2,-2 -3,-3 -20,-26 -24,-7 -24,-48 22,2 28,9 42,20 15,12 25,17 37,29 59,19 74,75 125,81 1,1 1,2 2,3 4,1 9,13 24,22 -2,9 0,4 -4,11l-21 25c-8,-9 -12,-10 -13,-28 -20,7 -8,0 -13,6 -8,12 2,3 4,4 -21,-12 -4,-4 -16,-13 -2,-1 -37,-18 -46,-31zm-175 165c-9,-10 0,12 -10,-14 -1,-5 -2,-13 -3,-17l-6 -1c18,-12 -2,3 14,-23 19,27 22,42 5,55zm-19 327c16,-46 8,-20 -3,-55 -3,-10 2,-8 5,-31 4,-41 -10,-43 0,-76 4,-16 -8,-2 12,-14 19,23 10,16 7,36 -1,7 0,12 1,20 3,28 1,59 -9,83l16 5c-12,8 -33,3 -8,28 -12,0 -13,0 -21,4zm-121 -756l-3 -8 -7 -3c-11,3 -11,7 -7,-4 -11,3 -9,4 -5,-7 -11,3 -10,5 -6,-5l-10 -11c-23,1 -7,0 -11,-6 -11,4 -10,6 -7,-5 -10,3 -9,5 -5,-5 -11,3 -9,5 -6,-6 -10,3 -8,5 -6,-5 -17,-4 -19,-5 -27,-22 -14,-9 -13,-10 -25,-14 -10,-3 -6,0 -24,-3 4,-14 2,-9 -1,-21 -9,2 -8,4 -7,-5 -9,11 -3,-1 -10,16l4 -20c-9,1 -7,3 -5,-6 -10,2 -9,4 -7,-5 -9,2 -6,3 -4,-6 -22,-5 -14,-5 -18,-16l-17 3c-2,-23 -16,-30 -28,-45 14,-3 2,-5 22,4l23 11c12,9 18,23 45,36l12 7c36,37 22,4 47,34 10,12 0,10 18,15l11 -1c12,2 1,0 3,9 10,-3 6,-4 5,7 9,-3 7,-5 6,5 10,-1 9,-5 7,4 9,-2 7,-4 5,5 10,-1 8,-3 5,6 10,-2 8,-4 6,6 10,-2 8,-4 5,5 11,-2 8,-4 5,7 11,-4 9,-5 6,5 10,-3 9,-5 5,6 11,-4 9,-5 6,5 10,-3 9,-5 5,6 11,-4 7,-5 5,6 10,-1 9,-4 6,6 9,-4 6,-4 4,6 11,-3 11,-6 7,4 17,5 0,-3 12,5 14,9 5,8 25,24l19 20c17,24 -10,-9 4,6 27,28 19,-12 31,36 -46,-16 -51,-48 -71,-54 -15,-5 -33,-10 -47,-32zm-334 -272l-67 -50c-43,-28 -29,-24 -68,-64 -9,-10 -74,-64 -97,-59 -16,4 -37,42 -67,67 -110,92 -77,87 -122,126 -27,24 -15,22 -36,40 -35,30 -15,16 -40,44 -62,71 -73,68 -109,111 -22,26 -23,42 -68,45l36 -55c16,-19 20,-8 25,-30 1,-1 2,-3 3,-5l11 -18 4 -8c1,-1 2,-3 2,-4 18,-42 -4,-25 19,-33l8 -29c24,4 19,5 32,3l25 -28c17,-24 22,-38 48,-62 18,-17 19,-3 25,-33l-9 -16 26 -24c-9,-22 -3,0 -13,-25 16,5 9,3 24,8 0,22 1,16 -5,34l131 -129c27,-34 60,-15 122,23 69,43 20,26 93,63l-7 -21c21,2 -2,-5 12,3l37 46 -15 3 -3 -6 3 -21 -15 2 12 19c-4,9 -7,9 3,6 7,25 29,47 45,54 24,6 25,9 37,32 18,32 15,15 30,35 -13,0 -1,0 -23,-10 -5,-3 -5,-2 -12,-6 -20,-10 -28,-14 -37,-28zm-290 -333c-5,-6 -3,-6 -8,-11 -19,27 6,30 -12,67l-34 43c-2,2 -3,-2 -11,11 -6,10 -5,10 -8,24 13,-7 5,1 13,-7 18,-17 -2,9 5,-6 5,-10 3,-10 1,-22l20 2c19,3 14,6 17,24 -25,-7 -14,-13 -22,-16 -2,0 -2,-2 -2,-3 -2,6 -3,11 -4,16l2 18c3,12 2,2 2,9 0,13 -1,14 -14,32 -1,1 -3,5 -5,6 -2,0 -2,2 -3,3 11,-53 24,-29 11,-40 -7,-8 -15,5 -30,15 9,9 8,10 2,19 -7,-11 -2,2 -8,-14 -1,-4 -1,-2 -2,-14 -21,13 -16,27 -46,30 -10,14 -5,7 -17,18 -15,13 2,3 -17,13 -26,-12 -8,-12 -42,-12l-14 4c-3,-24 12,-58 20,-75 -11,-16 1,-34 11,-49 4,-8 4,-7 9,-14 14,-21 8,-7 2,-26 16,7 7,12 20,4 11,-7 13,-22 30,-36 13,-11 5,-7 22,-11 -1,-11 -4,-9 5,-9 14,-29 18,-11 31,-54 20,-62 75,-96 98,-123 20,-23 -1,-15 25,-19l74 -114c9,-19 5,-41 4,-68 -5,-8 -11,-14 -15,-22 -20,-13 -12,-27 -26,-52 -14,-23 -18,-29 -21,-58l-16 -2c10,-18 2,-38 4,-63 -12,4 -10,6 -5,-6l-3 -7c-13,3 -16,8 -9,-2l-16 11 -17 -1c-4,20 -1,61 2,81 4,33 13,37 21,65 30,39 55,98 19,141 -30,35 4,7 -41,47l-18 20c-1,1 -2,2 -3,3 0,1 -1,3 -2,4l-37 35c-83,68 -49,106 -109,171 -25,27 -13,24 -31,40 -76,68 -47,39 -74,138 0,1 -6,20 -8,24l-10 24c0,2 -1,3 -1,5 -6,20 -12,32 -14,52 30,22 -6,19 43,38 -12,40 9,7 -25,39 -25,23 -32,41 -43,52 -1,1 -5,4 -5,4 -19,18 -15,26 -29,36l-7 2c5,9 7,7 -4,7l-89 91c-1,1 -2,2 -3,3 -21,22 -16,44 -34,60 -27,24 -5,-19 -30,25 -30,54 -46,47 -68,75 -12,15 -22,27 -32,39 -15,18 -146,121 -189,164 -10,10 -4,7 -17,18 -36,30 -15,20 -36,35 -5,4 -16,9 -25,13 -21,12 -25,19 -41,30l0 45c13,8 15,11 28,16 17,7 18,7 33,17 -3,8 -4,6 5,6l-5 -6c-9,-27 -15,-15 -37,-28 1,-1 3,-1 4,-1l9 -2c14,-2 26,-4 40,3l-14 14c-2,1 -2,2 -3,5l28 -8c-12,50 -5,11 12,16l-7 31c13,16 26,20 46,26l48 -56c9,-10 18,-15 26,-24 13,-14 11,-18 22,-33 11,-13 15,-14 24,-25 53,-63 30,-27 86,-71 17,39 41,497 28,564 -7,37 -2,76 3,110 12,85 15,142 13,235l19 224c3,19 12,29 18,43 28,60 29,24 141,24 88,-1 201,-24 286,-16l171 -7c18,-2 44,0 54,1 14,1 32,-3 52,-4 2,13 8,-4 0,12 -8,17 8,3 -6,4 14,-15 -2,-7 17,-14 11,-4 15,-3 27,-2 45,1 37,-7 76,-3 21,2 1,2 20,0l51 -6c24,-5 98,8 156,7 97,0 84,30 162,24 38,-3 27,-4 52,12 19,13 23,3 54,1 4,-34 -5,-88 -4,-135 0,-83 -3,-230 3,-308l8 -227c1,-19 7,-50 9,-69 8,-72 -1,-149 -4,-218l9 -230c5,-3 22,-5 1,-3 -1,-20 -8,-43 7,-56 10,-8 16,-5 31,5l128 115c33,24 58,9 84,18 0,-39 16,-45 33,-66l23 -20c30,-13 24,0 47,-25 34,-36 13,-51 3,-96l3 -1 -11 -14c-21,-35 0,-16 -48,-46 -22,-13 -11,1 -22,-17 -20,2 -7,2 -11,-6 -27,-5 -42,-28 -59,-50 -14,-18 -39,-43 -37,-71l-86 -114c-15,-16 -14,-14 -27,-24l-27 -23c-21,-13 -62,-3 -91,-8 -14,-21 -16,-66 -19,-101 -13,-34 -22,-54 -45,-77 -22,-21 -36,-42 -66,-57l-11 -9c-18,-11 -17,-7 -36,-14l-55 -12 3 -22c-1,1 -3,5 -4,6l-7 11c-12,-7 -3,1 -11,-9 0,0 -4,-9 -4,-9 -11,19 -3,12 -22,11 -55,-3 -32,-55 -56,-111 -6,-14 -10,-26 -13,-35 -17,-13 -72,-111 -143,-116 -61,1 -6,15 -60,19 -35,2 -25,7 -44,4 0,0 -2,-1 -3,-1l-7 -2c4,32 6,19 -14,27l-10 -4 0 -44c36,-38 36,22 61,-30 13,-27 9,-17 33,-34l19 -16c37,-59 37,-70 32,-149 -2,-38 13,-89 -16,-133 -20,-31 -11,-2 -32,-24 -2,-25 8,-55 0,-89 -6,-33 -13,-50 -17,-87 6,-10 13,-8 6,-34 0,-1 12,-14 -26,-16 -59,-3 -27,68 -29,105 1,31 19,78 6,94 -8,10 -10,0 -22,8 4,10 6,7 8,11 26,35 1,11 0,44 18,17 16,1 20,26 6,5 3,3 8,11 4,5 6,10 8,15 23,42 30,34 26,102 0,27 -4,53 -14,76 -15,32 -25,25 -41,45 -23,42 -102,9 -91,100 1,10 7,16 4,25 -5,14 1,1 -9,6l-8 3c30,2 12,-2 25,21 11,22 13,23 38,30 1,0 2,1 3,1 21,5 17,-4 53,-8l9 3c20,4 18,-20 19,-29 2,0 3,-1 5,-1l14 -4c2,-1 4,-2 5,-2 58,3 76,19 101,55 38,55 32,85 43,123 17,64 99,83 158,90 45,5 31,18 54,26l37 15c11,5 29,28 34,40l6 13c10,21 11,14 13,45 -1,38 7,98 29,118 58,54 100,-19 158,52 12,14 6,12 14,25 13,19 9,-3 45,70 3,6 22,39 27,45l42 47c18,28 -11,15 -14,14 -11,-1 -12,1 -24,6 7,-2 3,6 8,-15 -4,-3 -8,-6 -11,-9 -1,0 -2,-1 -3,-2l-11 -16c-73,-41 -69,-27 -123,-72 -25,-21 -5,7 -44,-33l-44 -37c-8,-4 -3,-1 -11,-7l-30 -31c-23,-17 -31,5 -49,-32 -21,-40 -35,-46 -69,-75l-12 -11c-26,-24 -42,-14 -72,-48 -23,-26 -9,-16 -43,-35l-119 -91c-1,-1 -2,-3 -2,-3l-15 -13c-44,-26 -48,-62 -95,-70 -1,-9 7,-7 -9,-7 2,-10 3,-6 -8,-8 0,13 -4,12 8,8 4,7 -10,4 9,7 19,14 5,-7 12,23 -19,-3 -26,5 -39,-25 -8,-18 -5,19 -3,-7 2,-18 3,-6 12,-10 -8,-17 -30,-33 -43,-47 -14,-15 -31,-32 -33,-57 -31,-13 -6,-25 -51,-17 -30,5 -28,15 -55,4 0,-9 2,-7 -6,-7 -2,11 -5,10 6,7 4,9 12,19 14,20 6,3 32,-5 44,28 6,16 3,19 -8,25 -13,-3 -22,10 -10,-15l-14 -21 -8 13 20 11 -21 7c-11,4 -8,8 -12,8 -2,1 -2,3 -3,4 -8,-8 -5,-8 -17,-11 25,15 3,17 3,18l-24 -1 16 -33 15 10c-1,0 1,2 2,3 3,-12 6,-24 12,-38l-6 -4c-4,-3 2,17 -14,-14 -12,-22 -9,-15 1,-22zm-456 669l68 -66c9,26 4,14 2,22 -2,14 -53,64 -66,80 -14,-9 -11,14 -12,-19 10,0 4,4 8,-17 -8,8 -13,-14 -8,17 0,1 -18,3 -9,32 4,13 5,7 14,13 -8,11 -8,14 -17,16 -29,5 13,-18 -16,-1 12,10 13,14 31,8 -13,14 -7,17 -26,8 12,52 2,48 -16,51 13,17 5,3 6,16l0 14c4,15 23,-5 -13,19l-5 -21c-8,-11 -20,1 -14,-30 7,-40 8,-27 23,-37 -1,-1 -9,-2 -10,-3l-17 -40c2,-17 11,-3 0,-45 13,-4 10,-3 17,-11 12,26 -26,3 12,21 10,-42 -20,-13 8,-28 17,-9 -4,3 13,3 1,0 4,-1 3,-1 -1,0 2,0 3,-1 -6,-10 -12,-14 -22,-22l29 -6c11,27 -3,18 14,28zm-52 640c1,-15 -5,-1 2,-16 9,-20 -9,1 9,-8 13,31 -8,72 7,139 3,15 6,-27 -4,24 -6,27 1,53 -10,71l-4 -210zm11 -25c-9,-11 -4,6 -10,-22 0,0 -2,-17 -2,-19 -1,-8 -6,-34 -6,-40 0,-11 3,-3 3,-15 -1,-7 -10,-24 10,-30 -4,49 19,49 5,126zm-263 -276c-6,13 1,6 -13,10 -8,11 7,5 -17,9 4,-15 2,-14 13,-24l0 -3c0,-2 1,-10 1,-11 -4,-32 16,17 -6,-8 -9,14 -23,28 -16,44l-17 -15c-4,17 -2,9 -13,22 -6,-22 -6,-30 10,-43 22,-19 27,-9 24,-41 17,11 -21,-2 9,2 11,1 2,1 10,0 16,-1 8,3 21,-7 6,-5 20,-24 20,-34 2,24 2,-3 -6,27l-38 33c34,4 25,-4 45,-5 6,8 11,7 1,13 -23,16 15,-9 -7,1 -11,5 -8,29 -8,29l-13 1z"/>
   <path class="fil1" d="M2774 629c1,-15 8,-88 15,-98 22,7 16,13 28,33 16,31 6,107 0,118 -12,-19 15,-3 -10,-6 -25,-3 8,1 -23,2 -17,-55 -9,-20 -17,-35 -5,-29 -2,-3 7,-14zm-266 147c-2,20 17,62 27,78 10,15 15,18 25,30 11,13 15,20 29,30 21,5 16,12 50,-2 31,-12 17,-10 36,-56 14,-32 3,-68 4,-108 22,-7 9,7 22,-17 20,7 19,12 27,26l70 0c23,-1 6,1 22,-5 21,-8 39,-30 52,-47 26,-34 -6,-185 -22,-210 -18,-28 -49,-43 -94,-34 -59,103 -19,124 -50,144 -12,-9 2,4 -8,-8 -15,-20 -12,-23 -13,-42 -3,-30 -11,-29 -14,-57l-34 -4c-1,-2 -4,-4 -3,-4 1,0 -5,-8 -21,-12l-10 49c0,2 -1,4 -1,5l-5 10c-11,49 27,68 35,109 10,54 -5,81 -2,130l-12 44c-40,-26 1,-32 -41,-67 -5,-4 -6,-5 -9,-9 -20,-25 -8,-33 -16,-51l-20 -27c16,-13 6,1 16,-16 -15,-11 -16,-17 -9,-65l5 -13c3,-43 -29,-73 -80,-43l-13 3 3 49c2,22 -1,24 1,43 6,42 -8,54 -10,72 -5,48 12,28 -12,42 1,60 6,91 1,144 -1,19 3,29 -9,44l-17 -16c-13,-17 -17,-40 -28,-72 -15,-42 -13,-68 -21,-111 -22,-30 -10,-88 -15,-123 -3,-27 0,-12 6,-21 0,-1 1,-2 1,-3 1,0 2,-2 2,-3 8,-24 -17,-45 6,-143 -38,-22 -17,-15 -64,-21 -1,1 -3,3 -2,4l-20 36c-1,1 -2,3 -3,4l-18 52c-6,25 3,6 -9,30l-9 -8c-31,0 -16,7 -5,19 -19,32 -6,39 -26,82 0,0 -4,11 -5,12 -3,10 -1,8 -5,16l0 56c-8,57 -5,63 -2,116 1,30 -5,31 -7,55 -3,53 18,24 1,70 9,2 6,10 8,25l8 56c3,9 4,22 5,31 0,23 -2,21 -8,30l-21 3c-8,-12 0,3 -3,-14 -15,-4 -11,-2 -24,-15 -38,-38 -11,-37 -39,-61 -32,-28 -20,-37 -29,-64 -4,-12 -8,-13 -11,-29 -3,-19 0,-22 7,-27 -3,-12 -6,-9 6,-9 -8,-17 -3,-14 -6,-30 -5,-39 -6,-9 4,-67 3,-18 7,-27 7,-43 -16,-10 -2,4 -7,-54 -3,-32 2,-52 -2,-81l2 -51c-1,-1 -4,-3 -3,-3 7,-3 3,3 -14,-18 -46,1 -43,15 -65,37 0,0 -2,2 -3,2 0,1 -2,2 -3,3 -5,16 -5,9 -9,23 -2,10 -2,23 -3,34 -3,25 -25,52 -42,92 -2,4 -32,99 -32,106 -16,-35 -4,-3 -4,-46l5 -36c2,-12 2,-5 1,-19 -3,-31 -14,-8 -5,-52 7,-30 7,-39 3,-71 -13,-23 -26,-23 -44,-36l-92 97c-7,13 -6,18 -10,29 -3,7 -3,6 -5,10l-16 23c-17,18 -45,63 -44,93 3,65 11,7 -6,99 -5,30 3,33 -1,66l-99 33c-28,14 -71,19 -100,33 -97,43 -24,-6 -99,34 -39,20 -23,4 -91,40 -23,12 -26,9 -44,13 -37,9 -22,25 -115,49 -33,9 -146,64 -163,69 -15,4 -14,2 -26,7 -6,3 -10,7 -17,11 -10,13 -11,12 -34,22 -30,13 -17,-4 -49,20 -27,20 -26,7 -44,14 -22,8 2,-2 -14,12 -30,26 -13,-4 -51,26 -9,7 -5,6 -16,8 -16,3 -61,17 -73,30l-16 -8 -109 38c-1,0 -3,1 -4,2l-7 3c-47,22 -1,6 -64,25 -16,5 -16,10 -28,15l-31 13c-41,21 -134,43 -165,61 -15,8 -2,3 -14,8 -27,10 -51,7 -81,8 -21,42 -39,53 8,98 18,17 38,29 34,55 0,1 -1,2 -1,3 0,1 -1,2 -2,3 0,1 -1,3 -1,4l7 36c0,1 1,3 2,4l8 19c17,35 39,32 92,12l325 -132c39,-20 101,-52 140,-64l48 -18c4,-2 13,-4 16,-6 2,0 6,-2 8,-3l7 -4c77,-45 62,-23 98,-41 8,-4 15,-11 27,-16 21,-10 54,-15 102,-37 25,-11 43,-20 63,-29 60,-28 15,-18 62,-25 26,-4 18,-5 36,-16l11 -5c14,-7 6,1 14,-9 11,-14 11,-9 43,-22 33,-14 16,-12 51,-19 1,0 2,0 3,-1 8,-2 22,-13 73,-28 40,-12 47,-36 111,-46 11,0 6,2 19,-3 24,-8 -3,-7 53,-31 61,-24 116,-70 181,-78 28,-4 49,-38 83,19l7 26c28,4 12,14 20,-7 14,-27 -8,5 4,-15 27,8 26,12 67,9 2,25 14,7 -9,25l19 -3c0,0 2,0 2,0 1,0 2,1 3,1 0,0 1,0 2,0 33,-2 15,2 21,4 11,4 1,3 2,7 4,17 -4,-6 2,11 6,-15 4,-22 6,-41 25,12 8,-7 20,19 12,-14 -1,-4 16,-14 1,1 1,3 3,3l17 14c-8,19 -5,0 -6,15 -1,6 2,18 3,30l-20 19c-1,1 -2,2 -3,4 29,-2 25,-1 23,-23 10,-6 10,-3 12,-19 3,-18 -3,-19 -9,-26 0,-24 -3,-7 -4,-28 -21,-13 -12,-15 -36,-34l-29 -38c-7,-14 -10,-16 -17,-32l-14 -40c-7,-8 -2,0 -6,-12 -9,-23 -20,-60 -19,-86 7,-29 14,-63 22,-89 6,-16 18,-57 15,-83 2,-23 8,-20 19,-33 14,-18 5,-18 13,-38 11,64 -6,99 -11,146l4 52c4,8 16,29 17,30 5,13 0,10 8,27l27 62 2 9 4 6 -4 -6 -5 -21c25,-2 16,-6 32,-4 36,7 14,4 21,22 -19,0 20,12 -15,7 -14,-2 -5,2 -11,-11 -8,22 6,22 16,36 1,3 2,5 3,7 1,2 2,4 3,7l-26 -1 -5 -7 -2 -4 2 4 2 6 3 1 10 33c7,-15 1,-7 13,-3 49,18 29,25 51,37 27,15 15,-6 31,18 11,4 28,12 38,19 14,10 22,18 35,25l50 -13c1,-1 25,0 15,-28 -16,-39 -39,5 -51,-116 -1,-7 -4,-14 -5,-26l-9 -84c-4,-25 -12,-13 -14,-28 0,0 -17,6 25,15 -2,-21 -7,-25 -8,-42 -6,-68 3,-99 3,-103 -3,-35 -7,22 -2,-56 1,-27 7,-28 7,-43 0,-4 -11,-3 0,-7 13,-6 -3,5 16,-2 17,-7 7,-1 14,-14 17,11 5,20 23,12 -40,11 -33,13 -43,25 10,4 12,4 24,8 15,16 9,11 10,34 -4,51 9,47 14,86 6,47 10,46 20,81 10,17 4,25 -3,46 27,3 25,20 38,15 -8,11 -10,9 -2,29l20 34 17 13c1,0 2,1 3,2 24,3 45,7 64,-2 17,-8 -2,-5 35,-12 0,-12 4,-42 2,-50 -7,-22 10,17 -7,-7 -6,-9 -4,1 0,-3l5 -2c-13,-22 0,-29 -4,-52 -5,-35 -20,-14 -13,-56 5,-29 5,-8 -2,-32 -10,-33 -4,-37 0,-76 3,-26 -9,-14 9,-23l11 29zm-620 443c4,7 -12,9 11,6l7 4c-2,9 -4,8 5,7 -2,8 -3,6 6,6 1,-10 3,-8 -6,-6 1,-9 3,-8 -5,-7 1,-9 2,-7 -7,-4l-3 -14c-16,2 1,-3 -8,8zm-1644 497l0 0c-13,-36 -26,-30 -32,-76 82,-50 94,-34 132,-50 20,-9 45,-22 64,-29l69 -24c14,-4 22,-8 33,-13 42,-20 22,-21 107,-35 24,-4 19,-4 33,-13 28,-17 46,-14 68,-25l230 -107c22,-14 67,-31 92,-38 16,-4 23,-8 36,-14 20,-9 44,-19 71,-25 82,-18 80,-36 140,-47 8,-18 -1,-4 16,-16 32,-22 30,-14 39,-21 11,-7 9,-11 12,-16 0,1 0,2 1,2 1,0 1,2 1,2l5 2c1,0 3,0 4,0 1,0 6,-2 7,-2 23,-6 2,-1 30,0 -11,-35 -2,-7 6,-20 1,-1 0,-5 -1,-6 54,23 57,-8 81,-14l9 -2c2,0 3,-1 5,-1 24,-8 -21,9 9,-3 25,-11 10,-13 36,-15 34,9 23,1 63,-18 8,-3 24,-7 29,-9 6,-1 14,-2 19,-4 38,-10 89,-33 148,-44 11,-76 -18,-54 -33,-126 -14,-64 -9,-2 -11,-84 6,-47 18,-66 41,-92 19,-20 7,-16 21,-20 2,5 2,84 2,95 -2,19 0,53 8,68 14,29 25,17 49,28 -1,23 -5,55 -4,76l33 132c11,22 23,34 30,62 -25,-4 -20,-7 -52,-45 -19,-7 -36,-7 -44,-10 -14,-7 -23,-43 -70,-20l-9 6c-26,0 -71,33 -98,51 -19,12 -24,7 -40,15 -22,11 -8,13 -26,22 -17,9 -21,2 -53,20 -39,23 -16,2 -52,31 -35,28 -92,28 -177,75l-76 30c-13,5 -29,8 -41,13 -26,12 -46,22 -70,31 -13,4 -27,6 -39,11 -18,7 -16,11 -35,16 -15,4 -14,3 -30,13 -20,12 -14,9 -38,16 -45,12 7,12 -72,33 -38,9 -72,29 -104,45l-187 76 -8 5c-7,4 -5,3 -11,7 -20,13 -18,19 -61,25l-6 5c-10,9 2,6 -21,7 -4,9 0,6 -11,11 -14,6 -4,2 -20,3l-11 9c-18,7 -6,4 -17,0 3,11 5,9 -6,6 -1,1 -4,2 -3,3 0,0 -12,15 -32,19 -18,4 -28,8 -50,10 -20,10 -6,1 -20,12 -44,33 -39,5 -72,31 -26,-14 -26,-9 -36,-40z"/>
   <path class="fil0" d="M244 1716l0 0 13 11c32,15 59,-27 115,-14 11,-16 3,-3 3,-13l-3 -10c30,-10 -2,2 28,3 7,0 24,-2 36,-1 -10,-11 -14,-9 -16,-21l19 -12c12,-6 14,-10 25,-15 11,-6 25,-8 36,-9l9 1 23 -12c42,-21 21,-6 54,-17 21,-6 22,-7 43,-4l187 -76c32,-16 66,-36 104,-45 79,-21 27,-21 72,-33 24,-7 18,-4 38,-16 16,-10 15,-9 30,-13 19,-5 17,-9 35,-16 12,-5 26,-7 39,-11 24,-9 44,-19 70,-31 12,-5 28,-8 41,-13l76 -30c85,-47 142,-47 177,-75 36,-29 13,-8 52,-31 32,-18 36,-11 53,-20 18,-9 4,-11 26,-22 16,-8 21,-3 40,-15 27,-18 72,-51 98,-51 10,-19 1,-5 13,-18 36,-3 75,-7 109,-6 -1,29 -10,16 1,48 32,38 27,41 52,45 -7,-28 -19,-40 -30,-62l-33 -132c-1,-21 3,-53 4,-76 -24,-11 -35,1 -49,-28 -8,-15 -10,-49 -8,-68 -19,-12 -2,-72 -7,-86 -9,17 -1,11 -11,27 -6,9 -46,37 -35,71l-11 5c2,82 -3,20 11,84 15,72 44,50 33,126 -59,11 -110,34 -148,44 -5,2 -13,3 -19,4 -5,2 -21,6 -29,9 -40,19 -29,27 -63,18l-26 19c-15,7 -15,5 -30,14 -13,8 -23,11 -32,13 -29,7 -14,0 -35,13 -36,22 -94,31 -137,51 -60,11 -58,29 -140,47 -27,6 -51,16 -71,25 -13,6 -20,10 -36,14 -25,7 -70,24 -92,38l-230 107c-22,11 -40,8 -68,25 -14,9 -9,9 -33,13 -85,14 -65,15 -107,35 -11,5 -19,9 -33,13l-69 24c-19,7 -44,20 -64,29 -38,16 -50,0 -132,50 6,46 19,40 32,76z"/>
   <path class="fil0" d="M2582 1693c2,25 19,42 33,57 13,14 35,30 43,47l1 4c11,2 10,-2 8,8 16,0 8,-2 9,7 47,8 51,44 95,70l15 13c0,0 1,2 2,3l119 91c34,19 20,9 43,35 30,34 46,24 72,48l12 11c34,29 48,35 69,75 18,37 26,15 49,32l30 31c8,6 3,3 11,7l44 37c39,40 19,12 44,33 54,45 50,31 123,72 16,10 15,11 34,11l-21 -36c-5,-6 -24,-39 -27,-45 -36,-73 -32,-51 -45,-70 -8,-13 -2,-11 -14,-25 -58,-71 -100,2 -158,-52 -22,-20 -30,-80 -29,-118l-50 -52c-31,-42 -24,-11 -40,-61 -23,-8 -9,-21 -54,-26 -59,-7 -141,-26 -158,-90 -11,-38 -5,-68 -43,-123 -25,-36 -43,-52 -101,-55 -14,18 6,7 -21,13l20 44 -29 -2c-3,26 3,21 -25,19 0,-21 5,-13 12,-38l-9 -3c-1,1 -3,3 -4,4 -1,0 -2,2 -3,3l-7 6c-1,1 -3,2 -4,3 -17,12 -33,17 -44,0 -7,5 -3,-7 -2,12z"/>
   <path class="fil0" d="M3169 3400c-17,-52 4,-231 -6,-300 -15,-98 5,-205 0,-298 -1,-20 0,-35 1,-49 -4,16 -9,32 -17,46 -3,20 -10,39 -19,56 -3,19 -9,37 -17,54l0 336c0,2 0,4 0,5l0 41c2,6 2,-15 5,12 3,22 -4,49 -4,58 -1,13 0,25 -1,38 0,1 0,2 0,3l0 15c1,17 9,20 15,44 7,26 1,51 8,74 17,54 9,10 18,91 4,40 -13,16 17,28 -1,-22 -4,-43 -5,-65 -2,-38 8,-150 5,-189zm-2 -692c1,-11 1,-22 0,-36l0 36zm-2 -89l-6 -165c-12,-94 -69,-72 -94,-129l-11 -6c-8,3 -6,3 -4,-5l-37 -6 7 51c1,5 1,-5 2,10 0,1 -2,18 -2,23 0,22 2,38 5,51 18,10 34,23 47,38 6,6 13,12 18,19 7,6 13,12 19,19 30,25 50,60 56,100z"/>
   <path class="fil1" d="M3532 3313l2 -3c-11,-6 -6,9 -10,-9 -11,2 -8,4 -5,-8 -3,-22 -7,-74 -15,-84l-6 -6c21,6 14,2 23,-12 -8,-41 10,-106 27,-124l9 -8c6,-8 -2,1 4,-25 10,-50 4,-95 11,-129 31,4 25,1 35,32 5,15 12,28 15,47 22,-9 8,-3 20,16 12,20 13,8 22,33 25,66 29,43 37,75 10,-3 6,-4 4,8 4,26 11,31 13,59l-4 132c-2,23 -18,34 -18,57 3,12 7,11 -5,7 3,11 5,10 -6,6 4,12 5,9 -6,5 -10,9 -24,20 -37,9 -15,-12 -11,-20 -2,-35 -6,16 -7,7 -27,6 5,-36 1,-5 8,-27 3,-9 2,5 4,-13l-34 36c16,10 -22,-7 8,-1 0,0 17,-6 13,16 -5,25 10,-2 -11,16 -20,-25 -16,-16 -27,-23 -26,-15 -11,-32 -47,-40l5 -13zm105 159c14,-3 14,-7 8,6 14,3 10,0 25,-11 15,-12 26,-12 41,-20 30,-41 8,-17 35,-32 40,-24 32,-157 40,-229 2,-26 5,-2 -4,-29 -19,-61 16,-2 -28,-76 -9,-16 -9,-29 -15,-44 -23,-29 -5,-16 -16,-37l-3 -5c-14,-20 -10,-5 -12,-29 -2,1 -8,5 -9,6l-27 10c43,-22 -31,-98 -33,-102 -15,-31 -24,-63 -49,-87 -14,-13 -14,-6 -26,-12 5,-4 11,8 3,-13 -8,-20 -31,-12 -50,-14 -1,2 -3,4 -1,5l-6 18c0,0 -1,1 -2,1l2 14c8,45 4,144 -4,194 -2,12 -8,22 -12,41l-17 48c-14,38 -20,86 -28,126 -12,68 14,107 47,177 13,26 30,28 34,66 53,3 46,25 107,28z"/>
   <path class="fil1" d="M3786 3641c17,-2 8,-3 11,5 9,-2 7,-4 4,6 11,-1 7,-3 8,9 55,67 -40,73 -67,77l-174 -3c-42,0 -67,2 -36,-48 14,-23 12,-16 31,-29 73,-55 113,-42 182,-29 16,3 28,-1 41,12zm86 -16c-10,4 -9,6 -6,-4 -10,2 -8,4 -5,-6 -11,-12 5,12 -11,-13 -5,-9 -1,1 -6,-15l-91 -24c-10,-1 -23,3 -18,-13 -5,7 0,0 -5,10 -49,14 -44,-12 -63,-8 -1,1 1,2 -10,7 -8,4 -1,2 -14,4 -19,1 -10,1 -27,-6l-12 5c-4,28 -9,14 -22,17 -10,2 -12,4 -16,6l-22 15c-1,0 -2,2 -4,2 -2,0 -2,1 -3,2 3,10 4,8 -6,5 -7,19 6,2 -11,12 -6,3 -10,3 -17,5 1,9 3,8 -6,4l-29 44c-25,2 -1,-3 -32,15 2,53 31,107 86,116 21,3 57,-2 89,0l83 5c37,3 132,-6 168,-35 33,-25 53,-144 10,-150z"/>
   <path class="fil2" d="M3111 3601l2 -35c12,-1 3,-2 10,4l5 4c1,1 3,3 4,4l-14 8 16 9c-12,12 -2,-1 -13,16 5,2 7,2 15,6 -4,8 -5,10 -8,18 -3,7 0,3 -5,12 5,-31 -2,-13 -7,-19l7 19c1,13 4,34 3,54 -26,-2 -33,-8 -34,-9l-6 -2c0,0 -2,0 -3,0l-40 -17c-56,-28 -75,-14 -149,-12l-35 7c27,3 40,-6 38,16 9,-10 2,-28 37,3 24,21 20,-4 62,15 3,2 23,20 43,-5 14,14 6,-10 12,22 16,-22 48,-13 83,-8l2 -56c21,25 8,42 37,52 1,-14 8,-64 7,-68 0,-8 -5,-6 -4,-23l-2 -121c0,-16 0,-34 2,-51 5,-49 -4,-39 -7,-44 3,39 -7,151 -5,189 1,22 4,43 5,65 -30,-12 -13,12 -17,-28 -9,-81 -1,-37 -18,-91 -7,-23 -1,-48 -8,-74 -6,-24 -14,-27 -15,-44l0 55c0,26 -6,51 -17,73l17 56zm0 -199c0,-1 0,-2 0,-3 1,-13 0,-25 1,-38 0,-9 7,-36 4,-58 -3,-27 -3,-6 -5,-12l0 111zm0 -152c0,-1 0,-3 0,-5l0 5zm-86 -807c-3,-13 -5,-29 -5,-51 0,-5 2,-22 2,-23 -1,-15 -1,-5 -2,-10l-7 -51 37 6c-2,8 -4,8 4,5l11 6c0,-12 2,-8 -11,-6l-4 -5c-30,-32 -38,-35 -50,-32 -14,4 -7,11 -7,11 -3,-21 -17,-55 -40,-67 -4,-2 -16,-7 -21,-11 -36,-25 -21,-39 -75,-58 5,6 3,4 9,9l45 38c10,10 17,16 25,24 11,11 11,12 34,11 -4,44 9,30 -2,46 -25,35 8,-23 -8,9 9,5 19,9 29,14 -3,19 1,72 8,123 10,3 19,7 28,12z"/>
   <path class="fil1" d="M2103 525l1 2c6,12 6,7 -9,7l-1 11c22,-6 28,-20 29,-22 5,-7 4,-6 9,-14 0,-1 1,-3 2,-4l8 -9c-1,-35 5,-23 15,-44l55 -131c52,-138 103,-169 224,-159 54,5 91,33 118,71 18,25 30,58 37,91 4,24 6,30 13,51 12,9 7,6 17,17l29 0c4,-2 15,-5 22,-8l-20 -113c-5,-24 -81,-116 -127,-134 -61,-23 -176,-35 -234,-8 -56,25 -54,44 -66,65 -24,40 -12,-1 -47,86 -29,74 -26,51 -45,88 -6,22 -5,16 -15,34 -6,10 -7,16 -13,26 -12,22 -23,28 -40,39l0 18c16,18 -5,8 30,32 12,9 3,0 8,8z"/>
   <path class="fil0" d="M2500 1071c11,-4 10,-8 9,2 10,-3 7,-3 3,7 11,-3 10,-5 5,6l7 16c0,0 2,17 2,18 2,13 3,17 3,31l13 22c2,5 7,17 9,22 1,-1 5,-7 6,-8l5 -20c3,13 10,35 15,53 6,23 7,12 -1,41 4,8 10,14 15,22l6 10c8,20 9,38 -4,58l-14 24c18,-8 6,-3 30,0l-1 -1 10 -19 5 -6c2,-39 28,-55 -1,-64 7,-10 9,-3 16,-20 4,-12 -2,-9 6,-27 -4,-25 -2,-9 -20,-26 1,-33 26,-9 0,-44 -2,-4 -4,-1 -8,-11 12,-8 14,2 22,-8 13,-16 -5,-63 -6,-94 -22,-20 -21,-19 -23,-33 -6,-26 -6,5 -12,-25l20 5c-16,-82 6,9 7,-66 -7,-4 -11,-4 -18,-9l-17 -13c-14,-10 -18,-17 -29,-30 -10,-12 -15,-15 -25,-30 -10,-16 -29,-58 -27,-78 -22,6 -13,-2 -16,21 -2,16 9,50 8,84 13,10 -1,-2 11,5l11 101c0,1 0,3 0,4 0,1 1,2 1,3 0,2 2,6 2,7 4,20 0,13 -2,34l23 7c1,-1 2,-3 2,-4l2 -18c10,13 13,13 19,26 -12,-1 -21,0 -32,0 -30,-1 -10,-6 -22,1 -2,1 -5,4 -6,5l-15 9c-2,0 -2,1 -3,2 23,-1 6,-2 9,8z"/>
   <path class="fil0" d="M2330 1854c30,-3 25,-17 46,-30 5,-13 3,-14 17,-22 3,-14 2,-14 8,-24 8,-13 9,-9 11,-11l34 -43c18,-37 -7,-40 12,-67 17,8 13,20 37,17 12,-40 -13,-33 -22,-38 4,-24 -4,-37 -2,-61 2,-15 5,-5 4,-26 -1,-16 -1,-2 -6,-23l17 8 9 -18c52,9 52,10 72,-2 45,-28 40,-13 64,-27 16,-20 26,-13 41,-45 10,-23 14,-49 14,-76 -30,18 -14,14 -34,34 -13,12 -31,17 -46,23l2 1c6,33 -15,34 -42,27 -22,-6 3,-6 -10,-4 -4,9 7,16 10,20 10,11 3,-11 9,11 -24,0 -14,-1 -35,-7 -11,-3 -16,0 -27,-6 -26,4 -5,-4 -25,19 -23,27 -78,61 -98,123 -13,43 -17,25 -31,54 1,12 5,12 -5,9 -3,9 -1,11 -4,24 -10,36 -8,3 -24,46 -4,10 3,-2 -5,9 -15,24 -4,-12 -6,65 1,13 5,12 -6,9 3,11 5,9 -6,6l0 35 27 -10z"/>
   <path class="fil2" d="M2019 3166c17,-16 9,-156 7,-189l-8 -139c-6,-49 -6,-39 8,-52 3,10 6,25 8,38 6,34 5,27 14,36 -1,-6 -2,-15 -1,-20 0,-8 0,-8 1,-9l0 -36c0,-15 2,-29 6,-43 -22,-56 -21,-75 -39,-139 -6,-25 1,-31 -17,-49l1 -28c-10,10 -5,-1 -5,15 0,1 4,11 4,13 4,35 3,76 13,106 1,1 2,3 2,4 0,0 1,2 1,2 4,11 -3,33 -5,47 -5,34 -5,8 -9,34 -4,22 9,55 11,82l8 327z"/>
   <path class="fil0" d="M2756 2001l14 3c11,4 -3,-4 7,3l-1 -15c-1,-1 -2,-2 -3,-3 -1,0 -2,-2 -3,-3l-9 -8c-16,-7 -38,-29 -45,-54 -10,3 -7,3 -3,-6l-12 -19c-12,-1 -5,5 -12,-6 -73,-37 -24,-20 -93,-63 -62,-38 -95,-57 -122,-23l-131 129c-6,14 -6,17 -23,23 -6,30 -7,16 -25,33 -26,24 -31,38 -48,62l-25 28 -8 10c-2,4 -2,5 -5,9 -3,12 7,9 -10,9 11,34 23,3 13,35 -12,6 -16,0 -16,0 0,0 0,0 0,0 -19,8 -11,2 -32,8l-2 19 -19 4c-5,22 -9,11 -25,30l-36 55c45,-3 46,-19 68,-45 36,-43 47,-40 109,-111 25,-28 5,-14 40,-44 21,-18 9,-16 36,-40 45,-39 12,-34 122,-126 30,-25 51,-63 67,-67 23,-5 88,49 97,59 39,40 25,36 68,64l67 50z"/>
   <path class="fil2" d="M3679 3382c11,4 10,7 6,-5 11,4 9,5 6,-6 12,4 8,5 5,-7 -10,0 -8,-2 -5,7 -11,-3 -10,-5 -6,6 -11,-4 -9,-6 -6,5l-24 -6c-10,-6 -9,9 -7,-15l-1 0 2 -9c-21,-10 0,-32 -17,-72 -27,-64 23,-50 -19,-58 2,-7 3,-1 -10,6 -1,0 -2,1 -3,1l-18 0c-1,-1 4,-16 4,-23l-26 -7c-29,-22 9,26 -5,-7 0,1 -1,3 0,3l4 28c7,22 1,-1 6,16 4,12 4,8 4,24 11,32 12,11 21,35 -27,12 -29,-11 -44,22 -5,-4 -10,-3 -14,-7l-5 13c36,8 21,25 47,40 11,7 7,-2 27,23 21,-18 6,9 11,-16 4,-22 -13,-16 -13,-16 -30,-6 8,11 -8,1l34 -36c-2,18 -1,4 -4,13 -7,22 -3,-9 -8,27 20,1 21,10 27,-6 -9,15 -13,23 2,35 13,11 27,0 37,-9zm-141 -216c-2,-1 -6,-2 -4,-3 2,0 0,-3 1,-3 1,-1 3,-3 5,-4 3,-23 -9,-28 11,-62 6,-10 3,-5 7,-9 0,-1 1,-2 2,-3l9 -15c-1,-1 2,-3 3,-4 1,1 1,3 2,4 12,25 10,27 60,30 0,35 1,30 -10,55l24 19c-6,18 -39,34 0,70 -5,-27 -1,-9 5,-13 -5,-10 -6,-8 5,-5 -2,-11 -5,-9 5,-6 -5,-28 1,-21 6,-36 6,-18 2,-23 6,-42 -12,-13 -11,-9 -14,-21 7,-4 1,-6 22,-6l18 -4c-3,10 -5,8 4,8 2,-12 6,-11 -4,-8 -8,-32 -12,-9 -37,-75 -9,-25 -10,-13 -22,-33 -12,-19 2,-25 -20,-16 -3,-19 -10,-32 -15,-47 -10,-31 -4,-28 -35,-32 -7,34 -1,79 -11,129 -6,26 2,17 -4,25l-9 8c-17,18 -35,83 -27,124 -9,14 -2,18 -23,12l6 6c8,10 12,62 15,84 -3,12 -6,10 5,8 4,18 -1,3 10,9 -6,-16 -1,-9 -10,-9 3,-10 5,-8 -5,-8l1 -71 1 -31c6,-6 6,11 6,-19 24,14 6,6 22,21 -9,-11 -9,-14 -11,-27zm36 -133c1,-37 -2,-88 8,-117 27,11 11,6 25,44 14,40 19,32 16,83l-49 -10z"/>
   <path class="fil3" d="M2142 496l-8 9c-1,1 -2,3 -2,4 -5,8 -4,7 -9,14 -1,2 -7,16 -29,22 1,1 1,3 3,4l6 12c17,38 -6,62 6,114l-2 83c1,12 8,38 7,45 0,14 3,-3 15,59l4 19c0,1 1,3 1,4l4 7c0,1 1,3 2,3 4,8 4,8 9,19 8,16 1,4 10,17 20,28 10,27 26,31 -3,21 -4,10 8,25 -2,-15 1,-23 -8,-25 17,-46 -4,-17 -1,-70 2,-24 8,-25 7,-55 -3,-53 -6,-59 2,-116 -4,5 -3,1 -8,15l-5 43c-2,21 -4,35 8,50 -20,-8 -3,1 -12,-18 -4,-6 -1,-3 -6,-10 -6,-9 -1,-1 -6,-7 17,-44 -2,-35 -5,-64 -2,-22 5,-3 5,-31 0,-24 -7,-6 -3,-39 4,-30 11,-50 9,-84 -2,-32 -6,-19 -12,-32 -4,-9 -4,-33 -6,-48l-10 0zm-39 29c-5,-8 4,1 -8,-8 -35,-24 -14,-14 -30,-32 -9,23 -26,29 -4,43 0,-1 0,-1 1,-1l-3 -7c-13,-17 5,-7 -20,-17 -16,23 -8,28 -32,59 -16,20 -5,-6 -13,21 1,-1 3,-2 3,-3 1,0 3,-2 3,-2 22,-22 19,-36 65,-37 17,21 21,15 14,18 -1,0 2,2 3,3l-2 51c17,-14 17,-30 9,-52l-7 1c1,-10 1,-9 3,-17 0,-1 1,-3 1,-4l17 -16 1 2c-12,-3 -9,-5 -9,7 15,0 15,5 9,-7l-1 -2z"/>
   <path class="fil2" d="M2341 1041l47 6 -20 -34c-8,-20 -6,-18 2,-29 -13,5 -11,-12 -38,-15 7,-21 13,-29 3,-46 -6,16 -5,9 -12,24l-5 -33c-15,-10 -23,-2 -31,-17 8,-21 -2,-6 12,-7 21,-2 -9,7 10,2l-18 -33c-3,-8 -3,-5 -4,-16 -7,-43 -11,-8 -23,-39 -6,-18 -1,-12 12,-23 -12,-9 -14,-8 -18,-27 1,-1 2,0 3,0l9 0c20,-2 6,-16 21,-32 10,25 -1,22 10,34 -1,-23 5,-18 -10,-34 -12,-4 -14,-4 -24,-8 10,-12 3,-14 43,-25 -18,8 -6,-1 -23,-12 -7,13 3,7 -14,14 -19,7 -3,-4 -16,2 -11,4 0,3 0,7 0,15 -6,16 -7,43 -5,78 -1,21 2,56 0,4 -9,35 -3,103 1,17 6,21 8,42 -42,-9 -25,-15 -25,-15 2,15 10,3 14,28l9 84c1,12 4,19 5,26 12,121 35,77 51,116 10,28 -14,27 -15,28l-50 13 1 6 70 -16 15 2c4,-4 1,-8 9,-10l-20 -3c6,-49 -21,-15 0,-42 6,-7 4,-3 0,-26 -9,-17 -1,-43 -4,-65 -7,-40 -31,-32 -8,-53 -9,-3 -9,5 -13,-10 -2,-8 -6,-21 -8,-32 18,17 19,50 53,66z"/>
   <path class="fil3" d="M3209 2006c3,35 5,80 19,101 29,5 70,-5 91,8l27 23c13,10 12,8 27,24l86 114 -6 -35c39,13 28,19 53,26l32 15c27,22 25,34 37,63l15 58 -24 0 -11 -6c4,8 -9,8 11,6 11,18 0,4 22,17 48,30 27,11 48,46l11 14c-5,-24 -2,-5 -7,-22 0,-3 -3,-20 -3,-21l-12 -85c-3,-8 -6,-13 -11,-18 -9,-10 -1,-2 -9,-8 -29,-23 11,15 -9,-7 0,-1 5,-15 5,-16l-6 -21c-7,-16 -30,-40 -44,-50l-7 -4c-4,-3 -3,-1 -10,-5l-30 -11c16,-12 12,7 15,-11 -37,1 -25,-6 -30,-20 -35,25 -68,-12 -78,-18 -20,-12 -16,-1 -36,-20 -24,-25 -18,-12 -37,-24 -14,-9 -27,-31 -42,-39 -19,5 -5,-4 -16,17 -11,-13 0,-17 3,-29 0,0 -19,-11 -20,-12l-42 -41c-2,-1 -3,-2 -4,-3 -1,-1 -3,-2 -4,-3 -1,0 -3,-2 -4,-3z"/>
   <path class="fil0" d="M2094 545l1 -11c0,-12 -3,-10 9,-7l-1 -2 -17 16c0,1 -1,3 -1,4 -2,8 -2,7 -3,17l7 -1c8,22 8,38 -9,52 4,29 -1,49 2,81 5,58 -9,44 7,54 0,16 -4,25 -7,43 -10,58 -9,28 -4,67 3,16 -2,13 6,30 1,14 5,13 -6,9 27,43 9,19 8,35 -1,29 14,-5 8,48 1,1 2,1 3,1l6 1c0,1 2,1 3,1 0,1 2,1 2,2 2,1 8,12 10,15 25,45 49,68 56,93 17,2 12,-1 24,11 6,-9 8,-7 8,-30 -1,-9 -2,-22 -5,-31l-8 -56c-12,-15 -11,-4 -8,-25 -16,-4 -6,-3 -26,-31 -9,-13 -2,-1 -10,-17 -5,-11 -5,-11 -9,-19 -1,0 -2,-2 -2,-3l-4 -7c0,-1 -1,-3 -1,-4l-4 -19c-12,-62 -15,-45 -15,-59 1,-7 -6,-33 -7,-45l2 -83c-12,-52 11,-76 -6,-114l-6 -12c-2,-1 -2,-3 -3,-4z"/>
   <path class="fil0" d="M2359 732c8,43 6,69 21,111 11,32 15,55 28,72l17 16c12,-15 8,-25 9,-44 5,-53 0,-84 -1,-144 14,-63 -15,-87 -28,-139 -8,-35 -22,-49 -34,-75 -8,-5 -8,1 -11,-6l0 17c7,52 1,43 -6,88 -6,39 1,69 5,104z"/>
   <path class="fil3" d="M3568 3735l-22 -11c-1,-1 -2,-1 -4,-1 -1,-1 -3,-1 -4,-2 -11,-4 -2,1 -10,-5l26 -11c15,-3 13,2 22,14l17 -21c7,-8 10,-10 23,-14l11 24c19,1 43,0 69,-5l19 -5c11,-7 16,-17 37,-10 3,-19 3,-33 15,-41l19 -6 11 5c-1,8 -4,7 4,6 -3,12 -5,9 8,9 -1,-12 3,-10 -8,-9 3,-10 5,-8 -4,-6 -3,-8 6,-7 -11,-5 -13,-13 -25,-9 -41,-12 -69,-13 -109,-26 -182,29 -19,13 -17,6 -31,29 -31,50 -6,48 36,48z"/>
   <path class="fil2" d="M3497 3630c9,4 7,5 6,-4 7,-2 11,-2 17,-5 17,-10 4,7 11,-12 10,3 9,5 6,-5 1,-1 1,-2 3,-2 2,0 3,-2 4,-2l22 -15c4,-2 6,-4 16,-6 13,-3 18,11 22,-17l12 -5c17,7 8,7 27,6 13,-2 6,0 14,-4 11,-5 9,-6 10,-7 19,-4 14,22 63,8 5,-10 0,-3 5,-10 -5,16 8,12 18,13l91 24c5,16 1,6 6,15 16,25 0,1 11,13 -3,10 -5,8 5,6 -3,10 -4,8 6,4 0,-8 2,-6 -6,-4 3,-10 5,-9 -5,-6 0,-20 4,-26 -17,-28 -10,-10 10,3 -10,-6 -3,-1 -9,-4 -11,-5 -30,-13 -35,-17 -70,-13 -1,-1 -2,-2 -3,-3l-13 -20c-5,-9 -9,-14 -14,-25 -10,-23 -15,-39 -12,-68 -15,8 -26,8 -41,20 -15,11 -11,14 -25,11 6,-13 6,-9 -8,-6 0,11 -2,8 8,6 -1,32 14,36 21,51l2 6c1,4 0,7 -1,17 -16,-3 -38,-6 -51,5l-12 5c-46,4 -30,13 -42,-34 -5,-20 -10,-56 -17,-70 -37,6 -10,20 -7,32 -18,8 -2,-2 -21,5 -1,44 17,71 20,109 -10,-2 -8,-4 -6,5 -21,1 -17,-2 -28,17 -11,-3 -10,-6 -6,4l-19 -6 -10 50 29 -44z"/>
   <path class="fil0" d="M3655 3376l24 6c-3,-11 -5,-9 6,-5 -4,-11 -5,-9 6,-6 -3,-9 -5,-7 5,-7 0,-23 16,-34 18,-57l4 -132c-2,-28 -9,-33 -13,-59 -9,0 -7,2 -4,-8l-18 4 5 16 -12 -4 -1 15c7,3 2,-7 10,8 -8,25 1,50 -22,70 5,11 6,9 -5,6 3,10 5,9 -5,5 2,23 1,11 -5,13l1 111c4,2 16,-8 -2,9l1 0c13,-2 4,-4 11,2 -6,6 -6,-11 -4,13z"/>
   <path class="fil3" d="M2591 1283c1,27 5,49 -4,68l-74 114c11,6 16,3 27,6 21,6 11,7 35,7 -6,-22 1,0 -9,-11 -3,-4 -14,-11 -10,-20 13,-2 -12,-2 10,4 27,7 48,6 42,-27 -13,-2 -6,12 -14,-10 -5,-13 -2,-6 2,-13 4,4 2,-1 6,9 0,0 4,12 4,13 15,-6 33,-11 46,-23 20,-20 4,-16 34,-34 4,-68 -3,-60 -26,-102 -2,-5 -4,-10 -8,-15 -5,-8 -2,-6 -8,-11 -8,18 -2,15 -6,27 -7,17 -9,10 -16,20 29,9 3,25 1,64l-5 6 -10 19c2,-3 3,-4 6,-11 3,-3 1,-2 4,-8 9,1 7,3 5,-6l13 -16c17,-33 -6,-46 32,-40 -14,25 -10,-7 -22,40 -7,28 -6,-7 -8,54 -18,7 -17,-3 -36,12 4,-14 3,-12 7,-24 -24,-3 -12,-8 -30,0l14 -24c13,-20 12,-38 4,-58l-6 -10z"/>
   <path class="fil0" d="M3568 3735l174 3c27,-4 122,-10 67,-77 -13,0 -11,3 -8,-9 -8,1 -5,2 -4,-6l-11 -5 -19 6c-12,8 -12,22 -15,41 -21,-7 -26,3 -37,10l-19 5c-26,5 -50,6 -69,5l-11 -24c-13,4 -16,6 -23,14l-17 21c-9,-12 -7,-17 -22,-14l-26 11c8,6 -1,1 10,5 1,1 3,1 4,2 2,0 3,0 4,1l22 11z"/>
   <path class="fil3" d="M2631 1487c-24,14 -19,-1 -64,27 -20,12 -20,11 -72,2l-9 18 -17 -8c5,21 5,7 6,23 1,21 -2,11 -4,26 -2,24 6,37 2,61 9,5 34,-2 22,38 -24,3 -20,-9 -37,-17 5,5 3,5 8,11 8,-1 6,-2 4,5 8,0 6,-2 6,7 27,11 25,1 55,-4 45,-8 20,4 51,17 -1,-19 -5,-7 2,-12 11,17 27,12 44,0 1,-1 3,-2 4,-3l7 -6c1,-1 2,-3 3,-3 1,-1 3,-3 4,-4 -36,4 -32,13 -53,8 -1,0 -2,-1 -3,-1 -25,-7 -27,-8 -38,-30 -13,-23 5,-19 -25,-21l8 -3c10,-5 4,8 9,-6 3,-9 -3,-15 -4,-25 -11,-91 68,-58 91,-100zm-101 117c-13,-4 -13,0 -17,-11l4 -18c1,-2 2,-4 3,-5 1,-2 3,-4 4,-5 16,19 4,-20 12,19 7,32 0,16 -6,20z"/>
   <path class="fil3" d="M2247 1230c25,14 16,-3 44,5 23,6 0,-7 11,6 1,-15 7,-5 15,-27l-70 16 -1 -6c-13,-7 -21,-15 -35,-25 -10,-7 -27,-15 -38,-19 -26,6 0,2 -25,-7 -13,-5 -16,-4 -29,-6 -6,-2 -18,-4 -22,-5 -8,-2 -6,-2 -19,-5 -3,-16 -8,-43 -13,-63l-2 -6 -2 -4 -3 -13 1 30 -19 5c-2,0 -11,2 -15,3 -10,-33 -22,-32 -21,-55 -26,10 -22,-3 -37,-24 0,70 55,43 17,75 25,1 26,6 28,35l24 -20c4,24 6,12 24,31 19,20 -2,13 33,24l-5 38c-1,-21 3,-18 27,-22 14,20 10,-2 12,28 12,-7 7,-5 22,-8 5,5 4,3 9,9 2,2 7,9 8,10 23,-10 10,-11 39,-4 33,7 15,1 42,4zm-274 -122c7,16 10,18 17,32l29 38c24,19 15,21 36,34l-27 -45c-1,-1 -2,-2 -2,-3l-5 -6c-1,-1 -2,-2 -3,-3l-30 -31c-13,-20 0,-11 -15,-16zm-39 -138c-1,26 10,63 19,86 4,12 -1,4 6,12 0,-15 1,-17 2,-30 2,-13 2,-10 -6,-21l-7 -11c-8,-12 2,5 -5,-8 -11,-20 -4,-11 -9,-28z"/>
   <path class="fil0" d="M3555 2397l11 6 24 0 -15 -58c-12,-29 -10,-41 -37,-63l-32 -15c-25,-7 -14,-13 -53,-26l6 35c-2,28 23,53 37,71 17,22 32,45 59,50z"/>
   <path class="fil2" d="M2597 542l5 -10c0,-1 1,-3 1,-5l10 -49c16,4 22,12 21,12 -1,0 2,2 3,4 -5,-27 0,-4 -31,-48l-9 -2c-25,26 -10,21 -49,31 -36,9 -22,20 -45,33 -15,18 -15,6 -39,19l0 7c51,-30 83,0 80,43l-5 13c-7,48 -6,54 9,65 -10,17 0,3 -16,16l20 27c8,18 -4,26 16,51 3,4 4,5 9,9 42,35 1,41 41,67l12 -44c-15,18 13,9 -7,6 -1,0 -3,0 -4,-1 0,0 -2,-2 -3,-3 -10,4 -8,5 -5,-6 -16,0 -9,5 -12,-13 -4,-16 6,2 -6,-7 -1,-1 -5,-4 -7,-4l-8 -5c5,-46 -6,-34 -8,-65 -10,-10 -9,12 -4,-6 0,0 0,-2 1,-3 0,0 1,-1 2,-2 -14,-18 -17,-27 -15,-47 1,-10 3,-51 2,-70 -24,0 -13,-1 -21,-16 20,-32 46,-25 66,-50l-4 53z"/>
   <path class="fil2" d="M2798 757l-70 0c-8,-14 -7,-19 -27,-26 -13,24 0,10 -22,17 -1,40 10,76 -4,108 -19,46 -5,44 -36,56 -34,14 -29,7 -50,2l17 13c7,5 11,5 18,9 -1,75 -23,-16 -7,66l-20 -5c6,30 6,-1 12,25 2,14 1,13 23,33 2,-37 -30,-108 29,-105 38,2 26,15 26,16 7,26 0,24 -6,34 12,-4 32,-9 20,-38 0,-1 -5,-8 -6,-9 -13,-13 10,-4 -14,-8 8,-6 21,-5 28,-31 2,-11 8,-3 -16,-39l8 -1c0,0 -1,4 8,-2 -1,-15 -2,-17 -5,-29 -9,-39 -34,-115 16,-93 30,13 -12,8 14,12 19,3 52,3 64,-5z"/>
   <path class="fil3" d="M3098 1872c0,-20 -9,-17 -25,-23 -21,-6 -24,-2 -39,-17 -6,-5 -17,-22 -29,-28l-8 -3c-32,-5 -10,6 -9,6 0,0 6,3 5,-15 -1,-11 -16,-53 -39,-41 -24,13 7,1 -8,9 -14,-32 20,-39 -39,-65l-25 -16c3,9 7,21 13,35 24,56 1,108 56,111 19,1 11,8 22,-11 0,0 4,9 4,9 8,10 -1,2 11,9l7 -11c1,-1 3,-5 4,-6l-3 22 55 12c19,7 18,3 36,14l11 9z"/>
   <path class="fil2" d="M3510 2792l-2 -14c1,0 2,-1 2,-1l6 -18c-2,-1 0,-3 1,-5 19,2 42,-6 50,14 8,21 2,9 -3,13 12,6 12,-1 26,12 25,24 34,56 49,87 2,4 76,80 33,102l27 -10c1,-1 7,-5 9,-6 2,24 -2,9 12,29l3 5c11,21 -7,8 16,37 -2,-55 9,-101 -21,-134 -12,-10 -9,-17 -27,-25 5,9 5,8 7,26 -32,-20 -11,-32 -46,-29l4 -33c-66,8 -26,-40 -23,-53 -5,-4 5,-5 -11,-6l-5 1c-3,1 -5,5 -19,-3 -7,-4 -6,-5 -10,-9 0,0 -73,-61 -85,-8 -3,12 -3,11 7,28z"/>
   <path class="fil3" d="M3683 3112c-21,0 -15,2 -22,6 3,12 2,8 14,21 -4,19 0,24 -6,42 -5,15 -11,8 -6,36 -10,-3 -7,-5 -5,6 -11,-3 -10,-5 -5,5 -6,4 -10,-14 -5,13 -39,-36 -6,-52 0,-70l-24 -19c-27,24 -19,11 -35,44l-34 -4c-2,-17 2,-4 -5,-16 -13,-20 -2,-4 -12,-10l2 -10c-2,1 -4,3 -5,4 -1,0 1,3 -1,3 -2,1 2,2 4,3 2,13 2,16 11,27 -16,-15 2,-7 -22,-21 0,30 0,13 -6,19l-1 31c19,2 24,13 16,28 18,0 22,5 33,13 0,-16 0,-12 -4,-24 -5,-17 1,6 -6,-16l-4 -28c-1,0 0,-2 0,-3 14,33 -24,-15 5,7l26 7c0,7 -5,22 -4,23l18 0c1,0 2,-1 3,-1 13,-7 12,-13 10,-6 42,8 -8,-6 19,58 17,40 -4,62 17,72l-2 9c18,-17 6,-7 2,-9l-1 -111c6,-2 7,10 5,-13 10,4 8,5 5,-5 11,3 10,5 5,-6 23,-20 14,-45 22,-70 -8,-15 -3,-5 -10,-8l1 -15 12 4 -5 -16zm-35 249c-2,24 -3,9 7,15 -2,-24 -2,-7 4,-13 -7,-6 2,-4 -11,-2z"/>
   <path class="fil4" d="M2603 3822c-1,1 -1,1 -1,1l1 -1m239 -70l-51 6c-19,2 1,2 -20,0 -39,-4 -31,4 -76,3 -12,-1 -16,-2 -27,2 -19,7 -3,-1 -17,14 14,-1 -2,13 6,-4 8,-16 2,1 0,-12 -20,1 -38,5 -52,4 -10,-1 -36,-3 -54,-1"/>
   <path class="fil5" d="M1884 1220l4 -1c9,-11 -8,-6 8,-8l3 14c9,-3 8,-5 7,4 8,-1 6,-2 5,7 9,-2 7,-4 6,6l3 23c16,4 15,5 28,10 13,6 17,6 28,11 24,12 21,17 57,22 1,-2 2,-3 3,-4l20 -19c-1,-12 -4,-24 -3,-30 1,-15 -2,4 6,-15l-17 -14c-2,0 -2,-2 -3,-3 -17,10 -4,0 -16,14 -12,-26 5,-7 -20,-19 -2,19 0,26 -6,41 -6,-17 2,6 -2,-11 -1,-4 9,-3 -2,-7 -6,-2 12,-6 -21,-4 -1,0 -2,0 -2,0 -1,0 -2,-1 -3,-1 0,0 -2,0 -2,0l-19 3c23,-18 11,0 9,-25 -41,3 -40,-1 -67,-9 -12,20 10,-12 -4,15z"/>
   <path class="fil5" d="M2002 2354c-5,-31 0,-9 8,-17l0 0c-17,-10 -3,-1 -14,-28l-29 6c10,8 16,12 22,22 -1,1 -4,1 -3,1 1,0 -2,1 -3,1 -17,0 4,-12 -13,-3 -28,15 2,-14 -8,28 -38,-18 0,5 -12,-21 -7,8 -4,7 -17,11 11,42 2,28 0,45l17 40c1,1 9,2 10,3 -15,10 -16,-3 -23,37 -6,31 6,19 14,30l5 21c36,-24 17,-4 13,-19l0 -14c-1,-13 7,1 -6,-16 18,-3 28,1 16,-51 19,9 13,6 26,-8 -18,6 -19,2 -31,-8 29,-17 -13,6 16,1 9,-2 9,-5 17,-16 -9,-6 -10,0 -14,-13 -9,-29 9,-31 9,-32z"/>
   <path class="fil0" d="M3540 3156l-2 10c10,6 -1,-10 12,10 7,12 3,-1 5,16l34 4c16,-33 8,-20 35,-44 11,-25 10,-20 10,-55 -50,-3 -48,-5 -60,-30 -1,-1 -1,-3 -2,-4 -1,1 -4,3 -3,4l-9 15c-1,1 -2,2 -2,3 -4,4 -1,-1 -7,9 -20,34 -8,39 -11,62z"/>
   <path class="fil2" d="M2484 1082l16 -11c-7,10 -4,5 9,2l3 7c-5,12 -7,10 5,6 -2,25 6,45 -4,63l16 2c3,29 7,35 21,58 14,25 6,39 26,52 8,-29 7,-18 1,-41 -5,-18 -12,-40 -15,-53l-5 20c-1,1 -5,7 -6,8 -2,-5 -7,-17 -9,-22l-13 -22c0,-14 -1,-18 -3,-31 0,-1 -2,-18 -2,-18l-7 -16c5,-11 6,-9 -5,-6 4,-10 7,-10 -3,-7 1,-10 2,-6 -9,-2 -3,-10 14,-9 -9,-8 1,-1 1,-2 3,-2l15 -9c1,-1 4,-4 6,-5 12,-7 -8,-2 22,-1 11,0 20,-1 32,0 -6,-13 -9,-13 -19,-26l-2 18c0,1 -1,3 -2,4l-23 -7c2,-21 6,-14 2,-34 0,-1 -2,-5 -2,-7 0,-1 -1,-2 -1,-3 0,-1 0,-3 0,-4l-11 -101c-12,-7 2,5 -11,-5 1,-34 -10,-68 -8,-84 3,-23 -6,-15 16,-21l-11 -29c-18,9 -6,-3 -9,23 -4,39 -10,43 0,76 7,24 7,3 2,32 -7,42 8,21 13,56 4,23 -9,30 4,52l-5 2c-4,4 -6,-6 0,3 17,24 0,-15 7,7 2,8 -2,38 -2,50 -37,7 -18,4 -35,12 -19,9 -40,5 -64,2 7,6 -3,3 17,8l54 -7c2,-1 11,-5 13,-6l-8 25z"/>
   <path class="fil3" d="M2574 620c-25,-5 -8,-17 -9,-43 -1,-23 -7,-28 -6,-60 39,14 0,-3 16,9l15 13c-3,14 -3,51 -16,81zm-5 52c-1,1 -2,2 -2,2 -1,1 -1,3 -1,3 -5,18 -6,-4 4,6l-1 -11c29,-8 8,-6 29,-28 8,-9 0,-3 14,-10l16 21c4,12 3,110 -12,128 4,-10 6,-9 -5,-6 -1,-14 5,-9 -12,-13 3,18 -4,13 12,13 -3,11 -5,10 5,6 1,1 3,3 3,3 1,1 3,1 4,1 20,3 -8,12 7,-6 -3,-49 12,-76 2,-130 -8,-41 -46,-60 -35,-109l4 -53c-20,25 -46,18 -66,50 8,15 -3,16 21,16 1,19 -1,60 -2,70 -2,20 1,29 15,47z"/>
   <path class="fil3" d="M2371 529l-7 -28 45 33c3,16 -11,-14 -4,19 0,0 13,26 13,26 21,41 10,40 28,52 2,-20 -3,-31 8,-45l-3 -49 13 -3 0 -7 -22 14c-59,-48 -7,-75 -66,-105l6 20 -26 11 1 64c0,1 3,4 1,5 -1,0 2,2 2,4l0 -17c3,7 3,1 11,6z"/>
   <path class="fil3" d="M2202 491l0 24 -7 0c6,10 -3,4 15,5 -4,-10 4,-13 -8,-5 2,-3 3,6 5,-14 1,-13 10,-14 -5,-10 28,0 -16,-7 30,-2 -1,1 -2,3 -2,3l-17 29c-5,32 -23,15 -10,63 4,14 3,23 -1,38 -9,34 -15,12 -9,43 4,-8 2,-6 5,-16 1,-1 5,-12 5,-12 20,-43 7,-50 26,-82 -11,-12 -26,-19 5,-19 13,-21 41,-75 17,-93 15,-6 12,5 24,-11 11,4 8,6 8,-6 -20,-23 14,21 -14,-7 1,2 -1,6 2,6 11,3 0,1 4,7 -25,-9 2,-7 -37,-15 -13,23 -8,1 -20,28l-3 8c-1,2 -2,4 -3,5 0,0 -1,2 -2,3l-1 5c0,0 -43,25 -7,25z"/>
   <path class="fil2" d="M3090 2273c3,-10 6,-9 -3,-8 1,-9 2,-7 -7,-3 1,-10 3,-7 -7,-4 2,-11 5,-10 -5,-7 4,-10 5,-8 -6,-5l1 -13 -11 2c-3,-10 7,-9 -11,-6 3,-11 4,-8 -7,-5 3,-10 4,-8 -5,-5 3,-11 5,-9 -6,-6 3,-10 4,-7 -6,-5l-9 -12c-1,-1 -3,-2 -3,-2 -11,-9 -7,-4 -15,-8 -7,-12 2,-1 -10,-13 -1,-1 -9,-8 -12,-10 -9,-7 -18,-11 -28,-15 1,-9 2,-6 -7,-5 1,-8 3,-6 -6,-4 1,-10 4,-8 -5,-6 1,-9 3,-7 -7,-5 2,-9 4,-8 -4,-6 -4,-7 -1,-4 -7,-10 -7,-6 -4,-3 -11,-6l6 -15c14,10 21,23 39,24l12 7 -12 -7c-27,-13 -33,-27 -45,-36l-23 -11c-20,-9 -8,-7 -22,-4 12,15 26,22 28,45l17 -3c4,11 -4,11 18,16 -2,9 -5,8 4,6 -2,9 -3,7 7,5 -2,9 -4,7 5,6l-4 20c7,-17 1,-5 10,-16 -1,9 -2,7 7,5 3,12 5,7 1,21 18,3 14,0 24,3 12,4 11,5 25,14 8,17 10,18 27,22 -2,10 -4,8 6,5 -3,11 -5,9 6,6 -4,10 -5,8 5,5 -3,11 -4,9 7,5 4,6 -12,7 11,6l10 11c-4,10 -5,8 6,5 -4,11 -6,10 5,7 -4,11 -4,7 7,4l7 3 3 8c14,22 32,27 47,32 20,6 25,38 71,54 -12,-48 -4,-8 -31,-36 -14,-15 13,18 -4,-6l-19 -20c-20,-16 -11,-15 -25,-24 -12,-8 5,0 -12,-5 4,-10 4,-7 -7,-4 2,-10 5,-10 -4,-6 3,-10 4,-7 -6,-6 2,-11 6,-10 -5,-6 4,-11 5,-9 -5,-6 3,-10 5,-9 -6,-5 4,-11 5,-9 -5,-6 3,-10 5,-9 -6,-5 3,-11 6,-9 -5,-7 3,-9 5,-7 -5,-5 2,-10 4,-8 -6,-6 3,-9 5,-7 -5,-6 2,-9 4,-7 -5,-5 2,-9 3,-5 -7,-4 1,-10 3,-8 -6,-5 1,-11 5,-10 -5,-7 -2,-9 9,-7 -3,-9l-11 1 1 10 13 -2c-2,11 -5,10 5,7 -2,9 -4,7 6,5 -2,9 -3,6 7,4 -2,9 -3,7 5,5 -1,10 -4,8 5,6 -2,10 -4,8 6,6 -1,9 -4,8 5,5 -2,11 -5,10 5,7 -3,10 -5,8 6,5 -3,10 -5,9 5,6 -3,11 -5,9 6,5 -4,11 -6,9 5,6 -3,10 -5,8 5,6 -3,11 -5,9 6,6 -4,10 -6,8 4,6 -2,10 -3,7 7,4 0,2 0,5 0,6l5 15c-14,-7 -15,-13 -32,-16z"/>
   <path class="fil3" d="M2095 2102l-3 -12 -1 19c11,0 9,2 4,-7zm7 -2c14,-10 10,-18 29,-36 0,0 4,-3 5,-4 11,-11 18,-29 43,-52 34,-32 13,1 25,-39 -49,-19 -13,-16 -43,-38l7 20 -12 1c-1,0 -3,0 -4,0 -10,2 -9,-13 -17,12 -9,27 11,11 -11,50l-21 61c-7,20 -9,3 -1,25z"/>
   <path class="fil3" d="M2040 3429c1,55 7,88 6,144 -1,46 -2,96 2,142 19,16 8,9 25,13 40,11 147,1 169,-8 26,-11 -9,0 16,-10 20,-9 79,-2 107,-5l22 -8c-32,0 -105,-2 -133,9 -7,3 -4,11 -45,5 -9,-2 5,5 -10,-2 -15,-8 1,8 -7,-7 -2,9 3,7 -7,13 -32,18 22,-1 -7,2 -1,0 -10,-3 -12,-4 -11,17 2,-13 1,2 0,12 13,-16 -1,5 -18,-3 -15,7 -44,2 -86,-13 -66,-2 -66,-182 0,-23 -4,-91 -16,-111z"/>
   <path class="fil0" d="M2599 764c17,4 11,-1 12,13 11,-3 9,-4 5,6 15,-18 16,-116 12,-128l-16 -21c-14,7 -6,1 -14,10 -21,22 0,20 -29,28l1 11c2,31 13,19 8,65l8 5c2,0 6,3 7,4 12,9 2,-9 6,7z"/>
   <path class="fil3" d="M2335 923c-10,-35 -14,-34 -20,-81 -5,-39 -18,-35 -14,-86 -11,-12 0,-9 -10,-34 -15,16 -1,30 -21,32l-9 0c-1,0 -2,-1 -3,0 4,19 6,18 18,27 -13,11 -18,5 -12,23 12,31 16,-4 23,39 1,11 1,8 4,16l18 33c-19,5 11,-4 -10,-2 -14,1 -4,-14 -12,7 8,15 16,7 31,17l5 33c7,-15 6,-8 12,-24z"/>
   <path class="fil0" d="M3308 2456c29,8 8,6 52,31 22,13 -10,-16 7,7l14 19c16,-19 25,-29 -18,-56 -12,-12 -22,-17 -37,-29 -14,-11 -20,-18 -42,-20 0,41 4,22 24,48zm97 81l7 -1c35,-6 15,5 34,8 1,0 3,-1 4,-1l9 -2c-12,-35 -5,-1 -28,-23 -11,-11 -1,-9 -19,-31 -21,9 -33,15 -12,43l5 7z"/>
   <path class="fil2" d="M2303 1829c-3,-10 -5,-9 6,-6 -4,-11 -6,-9 6,-9 2,-77 -9,-41 6,-65 8,-11 1,1 5,-9 16,-43 14,-10 24,-46 3,-13 1,-15 4,-24 10,3 6,3 5,-9 -9,0 -6,-2 -5,9 -17,4 -9,0 -22,11 -17,14 -19,29 -30,36 -13,8 -4,3 -20,-4 6,19 12,5 -2,26 -5,7 -5,6 -9,14 -10,15 -22,33 -11,49 -2,-18 -1,-20 5,-38 23,7 15,-5 24,16 5,13 -9,39 -20,50l24 9c12,-25 -2,0 10,-10z"/>
   <path class="fil0" d="M2911 2122c8,-2 6,-3 4,6 10,-2 8,-4 7,5 9,-2 6,-4 5,6 9,-2 7,-4 6,4 9,-1 8,-4 7,5 10,4 19,8 28,15 3,2 11,9 12,10 12,12 3,1 10,13 8,4 4,-1 15,8 0,0 2,1 3,2l9 12c10,-2 9,-5 6,5 11,-3 9,-5 6,6 9,-3 8,-5 5,5 11,-3 10,-6 7,5 18,-3 8,-4 11,6l11 -2 -1 13c11,-3 10,-5 6,5 10,-3 7,-4 5,7 10,-3 8,-6 7,4 9,-4 8,-6 7,3 9,-1 6,-2 3,8 17,3 18,9 32,16l-5 -15c0,-1 0,-4 0,-6 -10,3 -9,6 -7,-4 -10,2 -8,4 -4,-6 -11,3 -9,5 -6,-6 -10,2 -8,4 -5,-6 -11,3 -9,5 -5,-6 -11,4 -9,6 -6,-5 -10,3 -8,4 -5,-6 -11,3 -9,5 -6,-5 -10,3 -7,4 -5,-7 -9,3 -6,4 -5,-5 -10,2 -8,4 -6,-6 -9,2 -6,4 -5,-6 -8,2 -7,4 -5,-5 -10,2 -9,5 -7,-4 -10,2 -8,4 -6,-5 -10,3 -7,4 -5,-7l-13 2 -1 -10c-18,-5 -8,-3 -18,-15 -25,-30 -11,3 -47,-34l-12 -7c-18,-1 -25,-14 -39,-24l-6 15c7,3 4,0 11,6 6,6 3,3 7,10z"/>
   <path class="fil2" d="M2371 529c12,26 26,40 34,75 13,52 42,76 28,139 24,-14 7,6 12,-42 2,-18 16,-30 10,-72 -2,-19 1,-21 -1,-43 -11,14 -6,25 -8,45 -18,-12 -7,-11 -28,-52 0,0 -13,-26 -13,-26 -7,-33 7,-3 4,-19l-45 -33 7 28z"/>
   <path class="fil2" d="M372 1713c22,-2 32,-6 50,-10 20,-4 32,-19 32,-19 -1,-1 2,-2 3,-3 11,3 9,5 6,-6 11,4 -1,7 17,0l11 -9c16,-1 6,3 20,-3 11,-5 7,-2 11,-11 23,-1 11,2 21,-7l6 -5 -6 5 -17 6c-1,0 -3,1 -4,1 -14,-6 -4,9 -13,-16l-9 -1c-8,27 8,14 -9,31 -14,-5 -27,-26 -28,9 -10,-2 -8,-3 -6,6l-18 -22 -19 12c2,12 6,10 16,21 -12,-1 -29,1 -36,1 -30,-1 2,-13 -28,-3l3 10c0,10 8,-3 -3,13 -56,-13 -83,29 -115,14l-13 -11 0 0 0 0c10,31 10,26 36,40 33,-26 28,2 72,-31 14,-11 0,-2 20,-12z"/>
   <path class="fil4" d="M2490 1227c-8,-28 -17,-32 -21,-65 -3,-20 -6,-61 -2,-81l17 1 8 -25c-2,1 -11,5 -13,6l-54 7c-20,-5 -10,-2 -17,-8 -1,-1 -2,-2 -3,-2l-17 -13 -47 -6"/>
   <path class="fil3" d="M3644 2481c10,45 31,60 -3,96 -23,25 -17,12 -47,25l-23 20c18,-8 0,-1 18,-7l12 -4c0,0 3,0 4,-1 5,12 7,11 17,18 23,-10 40,-13 57,-20 5,-22 12,-26 13,-46 -6,-3 5,-14 -16,-1 11,-17 4,-17 -8,-38 -11,-19 -10,-29 -24,-42z"/>
   <path class="fil2" d="M2359 732c-4,-35 -11,-65 -5,-104 7,-45 13,-36 6,-88 0,-2 -3,-4 -2,-4 2,-1 -1,-4 -1,-5l-1 -64 26 -11 -6 -20 -2 -11 -81 -15 -10 16c0,12 3,10 -8,6 -12,16 -9,5 -24,11 24,18 -4,72 -17,93l9 8c12,-24 3,-5 9,-30l18 -52c1,-1 2,-3 3,-4l20 -36c-1,-1 1,-3 2,-4 47,6 26,-1 64,21 -23,98 2,119 -6,143 0,1 -1,3 -2,3 0,1 -1,2 -1,3 -6,9 -9,-6 -6,21 5,35 -7,93 15,123z"/>
   <path class="fil0" d="M3623 3043c3,-51 -2,-43 -16,-83 -14,-38 2,-33 -25,-44 -10,29 -7,80 -8,117l49 10z"/>
   <path class="fil2" d="M936 1284c-53,24 -30,-5 -82,33 -1,1 -2,2 -3,3 -24,15 -35,-8 -72,16 -12,8 -20,22 -28,27 -11,9 -12,4 -38,7 -25,2 -12,-3 -30,11 -14,11 -21,12 -43,15l-1 12 16 8c12,-13 57,-27 73,-30 11,-2 7,-1 16,-8 38,-30 21,0 51,-26 16,-14 -8,-4 14,-12 18,-7 17,6 44,-14 32,-24 19,-7 49,-20 23,-10 24,-9 34,-22z"/>
   <path class="fil3" d="M2714 1482l-19 16c-24,17 -20,7 -33,34 -25,52 -25,-8 -61,30l21 -3c0,10 4,43 -7,47 -3,1 -3,3 -4,4 20,-8 18,5 14,-27l7 2c1,0 3,1 3,1 19,3 9,-2 44,-4 54,-4 -1,-18 60,-19l-27 -15c-64,-34 -16,9 -46,-19 16,-14 7,-18 46,-33l2 -14z"/>
   <path class="fil2" d="M1982 640c-20,27 -32,66 -53,78 -14,-20 2,-81 -21,-104 4,32 4,41 -3,71 -9,44 2,21 5,52 1,14 1,7 -1,19l-5 36c0,43 -12,11 4,46 0,-7 30,-102 32,-106 17,-40 39,-67 42,-92z"/>
   <path class="fil3" d="M2254 1873c18,-10 8,-6 18,-14l21 -12 3 38c19,-10 2,0 17,-13 12,-11 7,-4 17,-18l-27 10 0 -35c11,3 9,5 6,-6 11,3 7,4 6,-9 -12,0 -10,-2 -6,9 -11,-3 -9,-4 -6,6 -12,10 2,-15 -10,10l-24 -9c11,-11 25,-37 20,-50 -9,-21 -1,-9 -24,-16 -6,18 -7,20 -5,38 -8,17 -23,51 -20,75l14 -4z"/>
   <path class="fil3" d="M3718 2903c-10,-23 -8,-26 -28,-38 -5,-4 -6,-4 -11,-7l-26 -24c8,-21 12,-10 24,-25 -41,-17 -16,-11 -36,-28 -17,-14 -28,-8 -53,-9 4,4 3,5 10,9 14,8 16,4 19,3l5 -1c16,1 6,2 11,6 -3,13 -43,61 23,53l-4 33c35,-3 14,9 46,29 -2,-18 -2,-17 -7,-26 18,8 15,15 27,25z"/>
   <path class="fil0" d="M2817 564c-12,-20 -6,-26 -28,-33 -7,10 -14,83 -15,98 4,17 2,13 11,24 23,-17 -7,-4 29,-21 6,-23 5,-43 3,-68z"/>
   <path class="fil2" d="M1521 1294c-64,10 -71,34 -111,46 -51,15 -65,26 -73,28 -1,1 -2,1 -3,1 -35,7 -18,5 -51,19 -32,13 -32,8 -43,22 29,-9 -8,11 74,-19 34,-13 9,6 63,-21 25,-12 26,-6 46,-20 8,-5 3,-3 11,-10l37 -24c19,-12 20,-7 39,-16 11,-5 5,-2 11,-6z"/>
   <path class="fil1" d="M2048 2831c-1,1 -1,1 -1,9 -1,5 0,14 1,20 0,3 0,5 0,7l0 -36z"/>
   <path class="fil3" d="M3405 2537l-5 -7c-21,-28 -9,-34 12,-43 18,22 8,20 19,31 23,22 16,-12 28,23l-9 2c-1,0 -3,1 -4,1 -19,-3 1,-14 -34,-8l55 33c5,3 9,7 10,7 4,4 3,4 14,9 13,-31 21,-21 -3,-47 -51,-6 -66,-62 -125,-81 43,27 34,37 18,56l-14 -19c-17,-23 15,6 -7,-7 -44,-25 -23,-23 -52,-31 1,1 3,2 3,3 1,0 3,2 3,3l91 75z"/>
   <path class="fil0" d="M3524 3301c9,0 4,-7 10,9l-2 3c4,4 9,3 14,7 15,-33 17,-10 44,-22 -9,-24 -10,-3 -21,-35 -11,-8 -15,-13 -33,-13 8,-15 3,-26 -16,-28l-1 71c10,0 8,-2 5,8z"/>
   <path class="fil2" d="M1287 1220c43,-20 101,-29 137,-51 21,-13 6,-6 35,-13 9,-2 19,-5 32,-13 15,-9 15,-7 30,-14l26 -19c-26,2 -11,4 -36,15 -30,12 15,-5 -9,3 -2,0 -3,1 -5,1l-9 2c-24,6 -27,37 -81,14 1,1 2,5 1,6 -8,13 -17,-15 -6,20 -28,-1 -7,-6 -30,0 -1,0 -6,2 -7,2 -1,0 -3,0 -4,0l-5 -2c0,0 0,-2 -1,-2 -1,0 -1,-1 -1,-2 -3,5 -1,9 -12,16 -9,7 -7,-1 -39,21 -17,12 -8,-2 -16,16z"/>
   <path class="fil5" d="M2476 1680c-11,3 -8,4 -6,-7 2,-7 4,-6 -4,-5 -10,7 -13,0 -1,22 16,31 10,11 14,14l6 4c-6,14 -9,26 -12,38 -1,-1 -3,-3 -2,-3l-15 -10 -16 33 24 1c0,-1 22,-3 -3,-18 12,3 9,3 17,11 1,-1 1,-3 3,-4 4,0 1,-4 12,-8l21 -7 -20 -11 8 -13 14 21c-12,25 -3,12 10,15 11,-6 14,-9 8,-25 -12,-33 -38,-25 -44,-28 -2,-1 -10,-11 -14,-20z"/>
   <path class="fil2" d="M1689 2668c1,-1 2,-3 4,-3 3,-1 7,-11 22,-20 -3,17 -5,14 -9,31 -11,10 3,0 -13,10 -6,-7 -10,8 -4,-15 -11,10 -9,9 -13,24 24,-4 9,2 17,-9 14,-4 7,3 13,-10l13 -1c0,0 -3,-24 8,-29 22,-10 -16,15 7,-1 10,-6 5,-5 -1,-13 -20,1 -11,9 -45,5l38 -33c8,-30 8,-3 6,-27 0,10 -14,29 -20,34 -13,10 -5,6 -21,7 -8,1 1,1 -10,0 -30,-4 8,9 -9,-2 3,32 -2,22 -24,41 -16,13 -16,21 -10,43 11,-13 9,-5 13,-22l17 15c-7,-16 7,-30 16,-44 22,25 2,-24 6,8 0,1 -1,9 -1,11z"/>
   <path class="fil2" d="M2174 1093c3,17 -5,2 3,14l21 -3c-12,-12 -7,-9 -24,-11 -7,-25 -31,-48 -56,-93 -2,-3 -8,-14 -10,-15 0,-1 -2,-1 -2,-2 -1,0 -3,0 -3,-1l-6 -1c-1,0 -2,0 -3,-1 6,-53 -9,-19 -8,-48 1,-16 19,8 -8,-35 11,4 7,5 6,-9 -12,0 -9,-3 -6,9 -7,5 -10,8 -7,27 3,16 7,17 11,29 9,27 -3,36 29,64 28,24 1,23 39,61 13,13 9,11 24,15z"/>
   <path class="fil2" d="M3232 2889c3,-20 12,-13 -7,-36 -20,12 -8,-2 -12,14 -10,33 4,35 0,76 -3,23 -8,21 -5,31 11,35 19,9 3,55 8,-4 9,-4 21,-4 -25,-25 -4,-20 8,-28l-16 -5c10,-24 12,-55 9,-83 -1,-8 -2,-13 -1,-20z"/>
   <path class="fil3" d="M3144 2039c-2,-31 -3,-24 -13,-45l-6 -13c-5,-12 -23,-35 -34,-40l-37 -15c16,50 9,19 40,61l50 52z"/>
   <path class="fil3" d="M2650 392l-29 0c-10,-11 -5,-8 -17,-17 5,13 2,-4 4,14 0,1 -1,6 -1,10 9,4 14,7 32,0 14,-6 3,0 11,-7zm-44 54c31,44 26,21 31,48l34 4c-1,-1 -3,-3 -2,-3l-10 -24c-11,-23 -1,-1 -18,-21 4,-28 10,-3 11,-39 -7,6 -4,1 -10,10 -4,5 -4,7 -8,13 -3,-23 2,-14 -10,-28 -3,4 -4,1 -7,10 -6,17 -1,17 5,35 -17,-5 -2,1 -16,-5z"/>
   <path class="fil2" d="M1890 1129c-11,-32 -2,-19 -1,-48 -34,-1 -73,3 -109,6 -12,13 -3,-1 -13,18l9 -6c47,-23 56,13 70,20 8,3 25,3 44,10z"/>
   <path class="fil3" d="M2010 2337l0 0c-4,21 2,17 -8,17 1,33 -2,10 12,19 13,-16 64,-66 66,-80 2,-8 7,4 -2,-22l-68 66z"/>
   <path class="fil2" d="M1962 3187c11,-18 4,-44 10,-71 10,-51 7,-9 4,-24 -15,-67 6,-108 -7,-139 -18,9 0,-12 -9,8 -7,15 -1,1 -2,16l4 210z"/>
   <path class="fil3" d="M522 1652c1,0 3,-1 4,-1l17 -6 6 -5c43,-6 41,-12 61,-25 6,-4 4,-3 11,-7l8 -5c-21,-3 -22,-2 -43,4 -33,11 -12,-4 -54,17l-23 12c9,25 -1,10 13,16z"/>
   <path class="fil2" d="M2173 1180c-16,-24 -4,-3 -31,-18 -22,-12 -2,-19 -51,-37 -12,-4 -6,-12 -13,3l-10 -33 -3 -1c5,20 10,47 13,63 13,3 11,3 19,5 4,1 16,3 22,5 13,2 16,1 29,6 25,9 -1,13 25,7z"/>
   <path class="fil2" d="M2817 564c2,25 3,45 -3,68 -36,17 -6,4 -29,21 -9,-11 -7,-7 -11,-24 -9,11 -12,-15 -7,14 8,15 0,-20 17,35 31,-1 -2,-5 23,-2 25,3 -2,-13 10,6 6,-11 16,-87 0,-118z"/>
   <path class="fil5" d="M2412 1767c2,12 4,12 -1,22 -7,15 13,-11 -5,6 -8,8 0,0 -13,7 -14,8 -12,9 -17,22 1,12 1,10 2,14 6,16 1,3 8,14 6,-9 7,-10 -2,-19 15,-10 23,-23 30,-15 13,11 0,-13 -11,40 1,-1 1,-3 3,-3 2,-1 4,-5 5,-6 13,-18 14,-19 14,-32 0,-7 1,3 -2,-9l-2 -18c1,-5 2,-10 4,-16 0,1 0,3 2,3 8,3 -3,9 22,16 -3,-18 2,-21 -17,-24l-20 -2z"/>
   <path class="fil5" d="M2054 1059l4 12 3 13 2 4 5 7 26 1c-1,-3 -2,-5 -3,-7 -1,-2 -2,-4 -3,-7 -10,-14 -24,-14 -16,-36 6,13 -3,9 11,11 35,5 -4,-7 15,-7 -7,-18 15,-15 -21,-22 -16,-2 -7,2 -32,4l5 21 4 6z"/>
   <path class="fil0" d="M2574 620c13,-30 13,-67 16,-81l-15 -13c-16,-12 23,5 -16,-9 -1,32 5,37 6,60 1,26 -16,38 9,43z"/>
   <path class="fil2" d="M1992 873c5,-47 22,-82 11,-146 -8,20 1,20 -13,38 -11,13 -17,10 -19,33 15,-6 19,5 17,25 -1,20 -10,37 4,50z"/>
   <path class="fil2" d="M2608 1424l-2 -1c0,-1 -4,-13 -4,-13 -4,-10 -2,-5 -6,-9 -4,7 -7,0 -2,13 8,22 1,8 14,10zm15 -75c2,9 4,7 -5,6 -3,6 -1,5 -4,8 -3,7 -4,8 -6,11l1 1c-4,12 -3,10 -7,24 19,-15 18,-5 36,-12 2,-61 1,-26 8,-54 12,-47 8,-15 22,-40 -38,-6 -15,7 -32,40l-13 16z"/>
   <path class="fil4" d="M2321 1135c4,23 6,19 0,26 -21,27 6,-7 0,42l20 3c-8,2 -5,6 -9,10"/>
   <path class="fil2" d="M1826 808c0,-11 0,-90 -2,-95 -14,4 -2,0 -21,20 -23,26 -35,45 -41,92l11 -5c-11,-34 29,-62 35,-71 10,-16 2,-10 11,-27 5,14 -12,74 7,86z"/>
   <path class="fil2" d="M1969 2952c14,-77 -9,-77 -5,-126 -20,6 -11,23 -10,30 0,12 -3,4 -3,15 0,6 5,32 6,40 0,2 2,19 2,19 6,28 1,11 10,22z"/>
   <path class="fil3" d="M2698 1632c-1,0 -3,1 -5,2l-14 4c-2,0 -3,1 -5,1 -1,9 1,33 -19,29 -7,25 -12,17 -12,38 28,2 22,7 25,-19l29 2 -20 -44c27,-6 7,5 21,-13z"/>
   <path class="fil3" d="M2597 444c-1,0 -3,0 -2,0l-22 -11c-8,12 -3,4 -12,15 -6,7 -7,10 -13,14 -5,4 -11,7 -19,8 -9,1 -10,0 -13,0l-13 38c23,-13 9,-24 45,-33 39,-10 24,-5 49,-31z"/>
   <path class="fil3" d="M2133 368c-10,2 -5,0 -14,5 0,1 -2,2 -3,2l-9 7c-41,28 3,42 -27,71l-15 14c17,-11 28,-17 40,-39 6,-10 7,-16 13,-26 10,-18 9,-12 15,-34z"/>
   <path class="fil5" d="M1588 2740l5 6c5,6 6,8 13,14 1,1 4,4 5,5 7,5 4,2 9,5l7 -31c-17,-5 -24,34 -12,-16l-28 8c1,-3 1,-4 3,-5l14 -14c-14,-7 -26,-5 -40,-3l-9 2c-1,0 -3,0 -4,1 22,13 28,1 37,28z"/>
   <path class="fil2" d="M2253 2194c36,-18 46,-44 66,-75 -8,4 -8,-4 -18,23l-11 -4c-1,-1 -3,-2 -4,-2 -8,-4 -16,-8 -37,-2l8 1c4,1 8,0 14,1 -2,28 2,7 -5,25l-8 0c0,0 0,0 -1,0l8 11 16 -12c-5,7 -18,13 -28,34z"/>
   <path class="fil3" d="M2164 2153c21,-6 13,0 32,-8 0,0 0,0 0,0 0,0 4,6 16,0 10,-32 -2,-1 -13,-35 17,0 7,3 10,-9 -25,3 -7,-1 -10,9l-19 19c-1,1 -2,2 -3,3 -17,18 14,-22 -5,6l-6 11c-2,1 -1,3 -2,4l-7 0 -11 18c-1,2 -2,4 -3,5l19 -4 2 -19z"/>
   <path class="fil2" d="M2756 2001c9,14 17,18 37,28 7,4 7,3 12,6 22,10 10,10 23,10 -15,-20 -12,-3 -30,-35 -12,-23 -13,-26 -37,-32l9 8c1,1 2,3 3,3 1,1 2,2 3,3l1 15c-10,-7 4,1 -7,-3l-14 -3z"/>
   <path class="fil2" d="M2199 2110c3,-10 -15,-6 10,-9 3,-4 3,-5 5,-9l8 -10c-13,2 -8,1 -32,-3l-8 29c-23,8 -1,-9 -19,33 0,1 -1,3 -2,4l-4 8 7 0c1,-1 0,-3 2,-4l6 -11c19,-28 -12,12 5,-6 1,-1 2,-2 3,-3l19 -19z"/>
   <path class="fil2" d="M3417 2349l21 36c-19,0 -18,-1 -34,-11l11 16c1,1 2,2 3,2 3,3 7,6 11,9 -5,21 -1,13 -8,15 12,-5 13,-7 24,-6 3,1 32,14 14,-14l-42 -47z"/>
   <path class="fil3" d="M457 1681c-2,-9 -4,-8 6,-6 1,-35 14,-14 28,-9 17,-17 1,-4 9,-31 -11,1 -25,3 -36,9 -11,5 -13,9 -25,15l18 22z"/>
   <path class="fil5" d="M2343 1936c6,-18 5,-12 5,-34 -15,-5 -8,-3 -24,-8 10,25 4,3 13,25l-26 24 9 16c17,-6 17,-9 23,-23z"/>
   <path class="fil2" d="M3488 2538c24,26 16,16 3,47 -11,-5 -10,-5 -14,-9 -1,0 -5,-4 -10,-7l-55 -33 -7 1c9,13 44,30 46,31 12,9 -5,1 16,13 -2,-1 -12,8 -4,-4 5,-6 -7,1 13,-6 1,18 5,19 13,28l21 -25c4,-7 2,-2 4,-11 -15,-9 -20,-21 -24,-22 -1,-1 -1,-2 -2,-3z"/>
   <path class="fil2" d="M2048 1044l-27 -62c-8,-17 -3,-14 -8,-27 -1,-1 -13,-22 -17,-30 5,24 11,42 18,71 3,11 5,19 11,26 7,12 14,15 23,22z"/>
   <path class="fil1" d="M3116 3628c5,6 12,-12 7,19 5,-9 2,-5 5,-12 3,-8 4,-10 8,-18 -8,-4 -10,-4 -15,-6 11,-17 1,-4 13,-16l-16 -9 14 -8c-1,-1 -3,-3 -4,-4l-5 -4c-7,-6 2,-5 -10,-4l-2 35c-2,16 -4,17 5,27z"/>
   <path class="fil2" d="M1920 1265l-3 -23c-9,0 -8,2 -6,-6 -9,1 -7,2 -5,-7l-7 -4c-23,3 -7,1 -11,-6l-4 1c-8,21 8,11 -20,7l-7 -26c1,25 14,28 26,40 16,18 8,19 37,24z"/>
   <path class="fil0" d="M2611 1610c1,-1 1,-3 4,-4 11,-4 7,-37 7,-47l-21 3 0 44 10 4z"/>
   <path class="fil5" d="M2676 1816c-19,-3 -5,0 -9,-7 -12,4 -8,5 -8,-8l-1 -4c-9,4 -10,-8 -12,10 -2,26 -5,-11 3,7 13,30 20,22 39,25 -7,-30 7,-9 -12,-23z"/>
   <path class="fil2" d="M3230 2702c17,-13 14,-28 -5,-55 -16,26 4,11 -14,23l6 1c1,4 2,12 3,17 10,26 1,4 10,14z"/>
   <path class="fil0" d="M2520 1570c-1,1 -2,3 -3,5l-4 18c4,11 4,7 17,11 6,-4 13,12 6,-20 -8,-39 4,0 -12,-19 -1,1 -3,3 -4,5z"/>
   <path class="fil2" d="M3568 2499c-4,-17 -2,-16 -11,-26 -11,-10 -11,-8 -24,-10 3,24 8,32 35,36z"/>
   <path class="fil2" d="M2296 1885l-3 -38 -21 12c-10,8 0,4 -18,14 34,0 16,0 42,12z"/>
   <path class="fil5" d="M2689 1893c7,11 0,5 12,6l15 -2 -3 21 3 6 15 -3 -37 -46c-14,-8 9,-1 -12,-3l7 21z"/>
   <path class="fil3" d="M1706 2676c4,-17 6,-14 9,-31 -15,9 -19,19 -22,20 -2,0 -3,2 -4,3l0 3c-6,23 -2,8 4,15 16,-10 2,0 13,-10z"/>
   <path class="fil2" d="M2210 520l3 1 17 -29c0,0 1,-2 2,-3 -46,-5 -2,2 -30,2 15,-4 6,-3 5,10 -2,20 -3,11 -5,14 12,-8 4,-5 8,5z"/>
  </g>
 </g>
</svg>
