<?xml version="1.0" encoding="UTF-8"?>
<!DOCTYPE svg PUBLIC "-//W3C//DTD SVG 1.1//EN" "http://www.w3.org/Graphics/SVG/1.1/DTD/svg11.dtd">
<!-- Creator: CorelDRAW X6 -->
<svg xmlns="http://www.w3.org/2000/svg" xml:space="preserve" width="40mm" height="40mm" version="1.1" style="shape-rendering:geometricPrecision; text-rendering:geometricPrecision; image-rendering:optimizeQuality; fill-rule:evenodd; clip-rule:evenodd"
viewBox="0 0 4000 4000"
 xmlns:xlink="http://www.w3.org/1999/xlink">
 <defs>
  <style type="text/css">
   <![CDATA[
    .str2 {stroke:#AF9778;stroke-width:2.032}
    .str4 {stroke:#FEFEFE;stroke-width:2.032}
    .str1 {stroke:#FFED00;stroke-width:2.032}
    .str0 {stroke:#94867C;stroke-width:2.032}
    .str5 {stroke:#EDBA8E;stroke-width:2.032}
    .str3 {stroke:#2B2A29;stroke-width:5.33333}
    .fil63 {fill:none}
    .fil5 {fill:#2B2A29}
    .fil11 {fill:#FECC00}
    .fil8 {fill:#FEFEFE}
    .fil10 {fill:#FFED00}
    .fil9 {fill:#FFF383}
    .fil68 {fill:#FFFBDB}
    .fil65 {fill:#B5712C}
    .fil14 {fill:#F7E207}
    .fil16 {fill:#F7E210}
    .fil18 {fill:#F7E21D}
    .fil20 {fill:#F7E228}
    .fil22 {fill:#F7E230}
    .fil24 {fill:#F7E338}
    .fil26 {fill:#F7E33E}
    .fil28 {fill:#F7E444}
    .fil30 {fill:#F7E54B}
    .fil32 {fill:#F8E551}
    .fil34 {fill:#F8E657}
    .fil36 {fill:#F8E65B}
    .fil38 {fill:#F8E661}
    .fil40 {fill:#F8E867}
    .fil42 {fill:#F8E86C}
    .fil44 {fill:#F8E971}
    .fil46 {fill:#F8E976}
    .fil48 {fill:#F9EA7B}
    .fil50 {fill:#F9EA80}
    .fil52 {fill:#F9EC85}
    .fil54 {fill:#F9EC8A}
    .fil56 {fill:#F9EC8E}
    .fil58 {fill:#F9ED92}
    .fil60 {fill:#F9ED97}
    .fil62 {fill:#F9EE9B}
    .fil53 {fill:#FAF1B0}
    .fil51 {fill:#FAF1B5}
    .fil49 {fill:#FAF2B8}
    .fil61 {fill:#FBEFA0}
    .fil59 {fill:#FBF0A4}
    .fil57 {fill:#FBF0A8}
    .fil55 {fill:#FBF0AC}
    .fil47 {fill:#FBF3BD}
    .fil45 {fill:#FBF4C1}
    .fil43 {fill:#FCF4C5}
    .fil41 {fill:#FCF5C9}
    .fil39 {fill:#FCF5CB}
    .fil37 {fill:#FCF5CF}
    .fil35 {fill:#FCF7D4}
    .fil33 {fill:#FCF7D8}
    .fil31 {fill:#FCF8DB}
    .fil29 {fill:#FCF8DE}
    .fil27 {fill:#FDF9E2}
    .fil25 {fill:#FDF9E5}
    .fil19 {fill:#FDFBF0}
    .fil17 {fill:#FDFCF3}
    .fil15 {fill:#FDFCF7}
    .fil23 {fill:#FEFBEA}
    .fil21 {fill:#FEFBED}
    .fil13 {fill:#FEFEFE}
    .fil0 {fill:#94867C}
    .fil4 {fill:#A59A91}
    .fil6 {fill:#F3E60F}
    .fil2 {fill:#F5D402}
    .fil1 {fill:#F9BD27}
    .fil12 {fill:url(#id1)}
    .fil7 {fill:url(#id2)}
    .fil66 {fill:url(#id3)}
    .fil3 {fill:url(#id4)}
    .fil64 {fill:url(#id5)}
    .fil67 {fill:url(#id6)}
   ]]>
  </style>
    <clipPath id="id0">
     <path d="M7505 1917c94,119 -3,164 162,224 30,10 58,1 82,16 84,52 103,45 117,169 8,63 19,95 88,104 26,4 48,-15 74,5 40,32 87,135 112,170 16,8 38,38 34,58 0,1 -1,2 -1,4 4,3 128,187 130,188 29,-17 76,-14 76,-83l-22 -66c-18,-14 -13,-15 -37,-30 -5,-3 -18,-11 -20,-12 -16,-12 -5,8 -14,-14 -31,-5 -52,-31 -69,-52 -16,-21 -41,-47 -39,-75 -6,-4 -46,-61 -52,-71 -10,-16 -49,-53 -50,-61 -31,-11 -23,-14 -44,-32 -26,-2 -67,3 -87,-6 -12,-15 -15,-75 -17,-97 -31,-72 -79,-128 -149,-158 -26,-3 -25,-7 -45,-9 -17,-2 -31,0 -47,-2l-9 -14c-42,-8 -42,-12 -50,-54 -3,-15 -4,-34 -8,-46 -8,-19 -9,-15 -15,-39 -51,-43 -69,-124 -168,-122 -28,13 3,18 -44,18 -56,-1 -4,-10 -44,-15 -14,26 9,34 -21,43 -11,-14 -14,-39 3,-52 16,-13 29,0 43,-1 12,-17 8,-25 24,-41 13,-14 24,-12 36,-30 52,-81 33,-114 32,-157 -1,-21 3,-45 2,-66 -4,-77 -45,-77 -49,-86 -4,-24 7,-58 -2,-93 -6,-25 -23,-62 -8,-84 1,-19 4,-17 -1,-28 -10,-21 5,-5 -17,-17 -16,-8 -27,-2 -38,3l-10 7 8 98c6,18 11,45 12,64 2,33 -11,23 -28,30 16,33 17,1 17,29 0,26 -5,-9 -9,28l13 11c20,14 21,34 35,57 19,28 19,39 16,73 -8,104 -39,139 -132,172 -12,34 -21,32 -14,75 5,28 18,54 20,70 0,0 4,2 8,3 4,1 8,3 8,3 34,-6 8,20 43,0 28,-16 15,-15 47,-7 18,-29 10,-45 60,-36 22,4 44,17 58,34z"/>
    </clipPath>
  <linearGradient id="id1" gradientUnits="userSpaceOnUse" x1="6787.41" y1="875.397" x2="7353.96" y2="875.397">
   <stop offset="0" style="stop-color:#FECC00"/>
   <stop offset="1" style="stop-color:#FFED00"/>
  </linearGradient>
  <linearGradient id="id2" gradientUnits="userSpaceOnUse" xlink:href="#id1" x1="6881.22" y1="1609.73" x2="7325.42" y2="1609.73">
  </linearGradient>
  <linearGradient id="id3" gradientUnits="userSpaceOnUse" x1="2673.44" y1="1897.98" x2="3863.15" y2="1897.98">
   <stop offset="0" style="stop-color:#FECC00"/>
   <stop offset="1" style="stop-color:#FFF7B2"/>
  </linearGradient>
  <linearGradient id="id4" gradientUnits="userSpaceOnUse" x1="6703.37" y1="2579.21" x2="7709.09" y2="2579.21">
   <stop offset="0" style="stop-color:#FFED00"/>
   <stop offset="1" style="stop-color:#FECC00"/>
  </linearGradient>
  <linearGradient id="id5" gradientUnits="userSpaceOnUse" x1="8230.63" y1="3379.8" x2="8423.22" y2="3379.8">
   <stop offset="0" style="stop-color:#FFFBDB"/>
   <stop offset="1" style="stop-color:#FFED00"/>
  </linearGradient>
  <radialGradient id="id6" gradientUnits="objectBoundingBox" cx="45.0001%" cy="52%" r="50%" fx="45.0001%" fy="52%">
   <stop offset="0" style="stop-color:#FFF7B2"/>
   <stop offset="1" style="stop-color:#FECC00"/>
  </radialGradient>
 </defs>
 <g id="Layer_x0020_1">
  <metadata id="CorelCorpID_0Corel-Layer"/>
  <path class="fil0 str0" d="M5924 1501c-18,9 -122,31 -205,70 -59,27 -132,58 -189,87 -39,20 -156,72 -194,80 -100,24 -95,34 -205,72 -36,12 -59,31 -99,38 -24,4 -79,25 -96,41 -2,24 26,75 42,89 19,10 44,-6 93,-14 31,-5 54,-14 87,-20 -1,-20 -14,0 -16,-25 26,-25 7,2 44,-21 25,-16 139,-47 167,-44l437 -185c58,-32 199,-75 291,-121 49,-24 96,-25 148,-61l139 -71c31,-9 99,-56 131,-75 22,-15 28,-3 56,-8 26,-5 27,-5 55,-2 0,25 -7,16 1,46 7,18 33,48 54,50 -1,-12 -57,-122 -64,-192 -2,-23 4,-56 3,-81 -38,-21 -48,3 -56,-66 -4,-42 0,-88 -5,-121 -7,5 -42,52 -45,60 -3,9 -17,76 -17,82 1,84 56,96 47,171 -39,25 -159,41 -208,67l-396 154z"/>
  <path class="fil0 str1" d="M6709 1300c27,21 27,46 35,53 47,20 -1,-17 37,16l-3 -46c-6,-17 -9,-18 -15,-31 -9,-19 -4,-20 -10,-34 -26,-64 -29,-28 -44,-141 -4,-34 14,-56 -9,-75 -14,27 -53,187 -40,207 21,10 27,34 49,51z"/>
  <path class="fil0 str1" d="M6969 1099l0 45c0,15 5,25 5,37 1,17 -6,40 -5,62 1,26 17,128 30,152 12,22 40,21 35,54 -17,27 -7,8 -27,15 -25,7 -14,12 -42,8l0 7c26,6 76,-8 102,-18 -2,-37 -15,8 -21,-43l-10 -107c-8,-28 -18,-23 -6,-45 41,25 5,23 77,33 -16,-28 -19,-34 -24,-65 -67,-27 -21,3 -54,-14 23,-15 37,-2 32,-43 -2,-23 -15,-31 -19,-62 -5,-29 -6,-35 -14,-61 -6,-19 -6,-53 -10,-77l-30 -13c10,-12 27,-20 44,-23l-24 -13c-22,31 -20,12 -33,15 -1,28 8,-16 0,21 -16,68 -3,75 -3,89 -1,27 -8,1 -3,46z"/>
  <path class="fil0 str1" d="M7297 1000c49,33 41,47 51,32 2,-45 12,-86 3,-130 -8,-46 -39,-47 -36,-110l-2 -38 -39 22c-4,2 -8,5 -14,8 14,36 20,-1 19,55 -1,35 -4,26 20,44 34,-8 -8,-13 34,-12 -8,20 -32,39 -47,55 8,41 19,27 11,74z"/>
  <path class="fil0 str1" d="M7146 1182c17,-23 11,-152 7,-189 10,-55 -38,-184 -69,-221 -13,21 1,21 2,51 0,15 -5,32 -8,47 -9,44 -2,69 2,111 1,42 7,74 20,113 8,23 13,53 28,72 12,15 2,8 18,16z"/>
  <path class="fil0 str1" d="M6914 1108c4,-32 -12,-55 -2,-105l-11 1c5,25 2,30 -11,43 -4,-21 -1,-19 -3,-36 -3,-22 -3,-3 -8,-26 -6,-35 40,-59 -51,-50 -11,36 9,109 18,144 7,32 24,120 64,132 4,-27 3,-28 0,-56 -4,-32 2,-24 4,-47z"/>
  <path class="fil0 str1" d="M6879 928c2,-40 13,-75 7,-111 -1,-3 -3,-10 -3,-13 -1,-11 1,-9 1,-11 0,-19 -21,-24 -19,-65 -16,22 -3,32 -36,37 -30,4 -28,-9 -42,-30 -6,35 -7,22 -29,24l-22 52c13,-8 23,-15 41,-17l26 23 0 -29c54,27 14,89 30,134l46 6z"/>
  <path class="fil0 str0" d="M5353 1854c-28,-3 -142,28 -167,44 -37,23 -18,-4 -44,21 2,25 15,5 16,25 45,-27 100,-43 147,-61l44 -27c1,0 3,-1 4,-2z"/>
  <path class="fil1 str1" d="M6903 647c-7,14 -15,27 -20,40 -7,20 -13,27 -18,41 -2,41 19,46 19,65 0,2 -2,0 -1,11 0,3 2,10 3,13 6,36 -5,71 -7,111l-46 -6c-16,-45 24,-107 -30,-134l0 29c5,26 -6,124 -1,168 3,24 9,12 2,47 -17,91 -8,33 -3,101 1,11 0,40 1,49 5,36 18,-7 10,49 21,9 11,-5 27,24 24,44 35,95 90,95l-19 -139c-40,-12 -57,-100 -64,-132 -9,-35 -29,-108 -18,-144 91,-9 45,15 51,50 5,23 5,4 8,26 2,17 -1,15 3,36 13,-13 16,-18 11,-43l11 -1 11 -120 11 -101c28,-9 22,-2 30,-28 7,-20 11,-28 11,-48 -18,21 1,16 -28,19 -30,-43 22,-40 19,-70 3,16 11,24 27,31l19 -25 32 5c103,-9 59,126 132,126 8,-15 19,-19 39,-19 30,-63 -12,-41 40,-49 34,-6 13,-7 31,-21 20,-15 8,-2 12,9 13,-17 12,-27 32,-12l12 0c-19,-39 12,-29 -17,-53l4 -13c-26,-33 -14,-109 -76,-177 -36,-39 -153,-56 -202,-38 -80,31 -115,155 -148,228zm19 90c19,-7 15,-5 36,-2 -2,11 -4,20 -9,26 -9,10 -23,9 -26,9l-1 -33z"/>
  <path class="fil1 str1" d="M6744 1353c-8,-7 -8,-32 -35,-53 -22,-17 -28,-41 -49,-51 2,35 19,84 39,119 10,17 21,41 32,51 10,11 32,34 46,43 -14,-34 -20,-36 -37,-60l10 -29c15,24 7,9 23,25 16,14 3,9 23,23 15,11 50,23 54,26 0,0 23,22 24,23 26,19 6,7 30,6 47,-3 16,19 61,3l0 -7c-18,-7 -33,-25 -50,-33 -11,-5 -17,-7 -25,-9 -18,-6 -3,-8 -28,-9 -26,4 -45,-6 -68,-11l-10 -66 -6 -21 3 46c-38,-33 10,4 -37,-16z"/>
  <path class="fil1 str1" d="M7232 1164c1,15 6,36 6,50 10,14 4,0 8,16 0,2 -2,16 -2,16 33,-4 20,10 44,29 19,-32 -4,2 -3,-35l35 -1c13,-23 1,-21 23,-26l1 -27c-21,-10 -5,0 -17,-14 -39,-7 -100,-103 -99,-146 -36,7 -11,39 -10,105 18,14 11,-9 14,33z"/>
  <path class="fil1 str1" d="M7506 782c-9,27 -20,103 -2,123 2,-1 5,-3 6,-4l30 -18c1,-29 5,-101 -34,-101z"/>
  <path class="fil1 str1" d="M7356 671c9,3 -1,4 0,0zm35 79c-26,-58 -10,-26 -31,-48 6,-28 19,-12 8,-41 -9,5 -12,8 -12,10 -1,0 -3,-1 -5,-1 7,-43 3,-4 22,-28 -29,-1 -22,9 -44,-8l-4 13c29,24 -2,14 17,53l-12 0 6 23c33,24 8,18 55,27z"/>
  <path class="fil1 str1" d="M7335 1286c-18,24 -10,14 -42,22l-9 36c-30,-9 -10,-5 -33,-26 -6,20 -1,45 5,66 14,48 14,8 34,39 14,22 1,32 17,53l24 42c-37,14 -5,-30 -32,1 26,25 16,67 0,94 13,13 -6,8 24,8l30 -52c2,-6 4,-1 4,-14 0,-27 -1,-17 -12,-24l20 -11c-4,-31 4,-22 -9,-47l-13 -11c4,-37 9,-2 9,-28 0,-28 -1,4 -17,-29 17,-7 30,3 28,-30 -1,-19 -6,-46 -12,-64l-16 -25z"/>
  <path class="fil1 str1" d="M7293 1308c32,-8 24,2 42,-22l16 25 -8 -98c-22,5 -10,3 -23,26l-35 1c-1,37 22,3 3,35 -24,-19 -11,-33 -44,-29 0,0 2,-14 2,-16 -4,-16 2,-2 -8,-16 -5,89 -17,57 1,128 4,17 1,28 5,45 3,14 49,122 55,132 27,-31 -5,13 32,-1l-24 -42c-16,-21 -3,-31 -17,-53 -20,-31 -20,9 -34,-39 -6,-21 -11,-46 -5,-66 23,21 3,17 33,26l9 -36z"/>
  <path class="fil1 str1" d="M7345 1531c11,7 12,-3 12,24 0,13 -2,8 -4,14l-30 52c-15,30 -38,49 8,61l1 -18c22,-4 30,-6 44,-22l31 -39c3,-34 3,-45 -16,-73 -14,-23 -15,-43 -35,-57 13,25 5,16 9,47l-20 11z"/>
  <path class="fil1 str1" d="M7331 1682c-46,-12 -23,-31 -8,-61 -30,0 -11,5 -24,-8 -11,11 -18,23 -26,37 -12,20 -20,16 -5,34 -16,6 -14,5 -26,17l-25 23c35,-12 36,-4 54,20 10,13 -12,7 13,11 33,4 -5,-3 31,-35 -4,-17 11,-7 -17,-13l31 -8 2 -17z"/>
  <path class="fil1 str1" d="M7331 1682l-2 17 -31 8c28,6 13,-4 17,13 -36,32 2,39 -31,35 -25,-4 -3,2 -13,-11 -18,-24 -19,-32 -54,-20 -28,25 -55,53 -82,85 -9,11 -56,103 -56,111 -20,49 -1,25 -21,49 -12,14 -2,6 -13,26 -21,40 0,29 -9,62 -8,32 -20,14 -12,57l28 -9c37,-10 51,-57 75,-84 20,-23 18,-9 36,-41 20,-36 4,-38 11,-71l21 10 22 8c9,-49 -9,-35 -23,-40 7,-18 -10,-63 5,-97 1,-1 19,-24 19,-24l57 9c93,-33 124,-68 132,-172l-31 39c-14,16 -22,18 -44,22l-1 18z"/>
  <path class="fil1 str1" d="M7036 2057c9,-33 -12,-22 9,-62 11,-20 1,-12 13,-26 20,-24 1,0 21,-49 -44,19 -32,24 -46,41 -40,48 -36,19 -58,97 -7,23 -20,43 -14,68 22,-6 21,0 32,-16 11,16 8,11 26,24 6,-4 27,-22 33,-29l-28 9c-8,-43 4,-25 12,-57z"/>
  <path class="fil1 str1" d="M7194 1887c14,5 32,-9 23,40l-22 -8 10 17 76 -16c-2,-16 -15,-42 -20,-70 -7,-43 2,-41 14,-75l-57 -9c0,0 -18,23 -19,24 -15,34 2,79 -5,97z"/>
  <path class="fil2 str1" d="M7297 1926c-5,47 86,125 127,150 31,20 30,33 49,49 15,13 13,5 27,17 42,36 87,78 138,105 29,15 23,25 53,46 40,29 56,27 106,81 14,15 31,50 38,55 18,12 16,0 36,14 0,0 24,23 25,25 17,15 32,23 52,41 60,56 106,76 175,113l21 4 -4 -21c-25,-35 -72,-138 -112,-170 -26,-20 -48,-1 -74,-5 -69,-9 -80,-41 -88,-104 -14,-124 -33,-117 -117,-169 -24,-15 -52,-6 -82,-16 -165,-60 -68,-105 -162,-224 -14,-17 -36,-30 -58,-34 -50,-9 -42,7 -60,36 -32,-8 -19,-9 -47,7 -35,20 -9,-6 -43,0z"/>
  <path class="fil1 str1" d="M8294 3276l45 7c8,-32 -2,-21 -5,-49 -2,-35 -11,-30 -14,-58l-20 -8 -6 108z"/>
  <path class="fil1 str1" d="M8352 3350c-1,27 -6,44 -22,62 -35,39 17,15 -6,54 -25,-13 4,-6 -20,-18 -14,-7 -43,0 -45,-54 0,-31 21,-75 31,-83 14,20 -4,17 24,28 12,5 25,6 38,11zm-13 -67l-45 -7 6 -108 20 8 -19 -28c-23,12 -7,106 -21,140 -8,40 -41,77 -39,121 1,45 -10,40 -9,56 2,25 1,50 11,71 0,-30 -10,-45 4,-72 13,13 18,19 8,32 36,-1 26,13 45,42l-48 23c6,11 33,38 45,50 21,-29 20,-19 30,-37 8,-13 10,-24 26,-35 0,30 -6,38 11,58 0,-16 1,-44 -1,-59 -5,-25 -12,-18 -14,-44 22,-14 7,9 27,-19 14,-20 37,-88 9,-106l38 -3 -55 -109c-19,-23 -5,-11 -19,-29l-15 6c3,28 13,17 5,49z"/>
  <path class="fil1 str1" d="M8385 3369c28,18 5,86 -9,106 -20,28 -5,5 -27,19 2,26 9,19 14,44 2,15 1,43 1,59 8,20 13,49 43,14 9,-11 25,-43 25,-62 1,-54 9,-110 -2,-165l-7 -18 -38 3z"/>
  <path class="fil1 str1" d="M8300 3538c-19,-29 -9,-43 -45,-42 10,-13 5,-19 -8,-32 -14,27 -4,42 -4,72 10,17 10,9 9,25l48 -23z"/>
  <path class="fil1 str1" d="M8505 3886c-24,-22 -140,-23 -170,-13 -29,9 -125,68 -88,99 0,-23 36,-38 53,-7 2,-14 4,-25 18,-33 31,-17 16,2 33,13 19,12 51,1 88,1 -10,-2 -8,-16 30,-18 5,-29 7,-43 36,-42z"/>
  <path class="fil1 str1" d="M8469 3928c-38,2 -40,16 -30,18 -37,0 -69,11 -88,-1 -17,-11 -2,-30 -33,-13 -14,8 -16,19 -18,33 -17,-31 -53,-16 -53,7 9,15 8,4 30,8 17,4 15,7 36,8 37,3 204,3 221,-26 6,-32 5,-63 -29,-76 -29,-1 -31,13 -36,42z"/>
  <path class="fil3" d="M7228 2511l160 0c20,0 40,3 58,10 12,2 24,5 35,9 20,1 39,5 57,13 16,4 31,10 45,18 7,3 13,6 19,9l2 1c14,4 27,9 40,15 23,2 45,8 65,19 -1,-15 -2,-29 0,-45 -35,-34 -32,12 -21,-64 -24,-15 -20,3 -31,-23 -37,-18 -127,-108 -133,-112 -14,-11 -41,-22 -58,-31 -25,-15 -24,-23 -45,-38 -24,-16 -34,-11 -51,-31 -6,-6 -62,-80 -81,-89 -44,-4 -74,25 -105,49 -42,32 -46,59 -71,83 -21,19 -62,54 -80,75 -49,56 -125,125 -151,158l-146 162c-33,28 -15,84 -12,125 14,15 25,90 30,118 2,16 9,32 16,49l1 -4 0 -66c-12,-23 -18,-49 -18,-77 0,-12 -1,-25 1,-37 -9,-74 33,-144 102,-172 15,-15 33,-28 54,-36 9,-6 18,-10 28,-14 9,-5 18,-10 28,-15 21,-12 46,-20 72,-21 12,-7 25,-12 39,-15 20,-9 43,-14 66,-14l30 0c17,-6 35,-9 55,-9z"/>
  <path class="fil1 str2" d="M6847 3708c-7,-18 -10,-36 -10,-56 -6,-17 -9,-36 -9,-55l0 -20c-6,-18 -9,-36 -9,-55l0 -58c-2,-6 -4,-12 -6,-17 -8,-21 -13,-43 -13,-66l0 -77c-4,-11 -7,-22 -8,-34 -3,-7 -5,-14 -7,-21 -9,-21 -14,-43 -14,-66l0 -48c-4,-13 -7,-26 -8,-40 -5,-20 -11,-41 -16,-62 -3,3 -6,5 -8,6 1,1 1,3 -1,9 0,2 -1,3 -1,5 0,1 -1,3 -1,5 0,1 3,27 3,27 2,15 3,30 5,45 4,41 13,266 -4,283 11,51 3,95 5,147 5,80 27,141 24,264 -2,104 6,85 10,140 49,5 159,13 198,-11l278 -15c39,-16 458,-43 486,-25l-40 12c22,16 114,20 128,19l18 -1c0,-14 -14,-66 -28,-128 -28,47 -80,78 -140,78 -22,0 -43,-4 -63,-12 -10,2 -20,3 -31,3l-293 0c-17,6 -36,9 -55,9l-96 0c-10,4 -22,7 -34,8 -18,7 -37,11 -58,11l-38 0 0 0 0 3 0 -3c-91,0 -164,-74 -164,-164l0 -40z"/>
  <path class="fil1" d="M7778 2674c16,19 27,42 33,67 9,20 14,42 14,66l0 385 0 2c6,17 9,36 9,55l0 67c6,17 10,36 10,55l0 340c3,7 -2,-9 4,58 4,54 7,9 16,40 3,9 0,46 8,68l13 22c3,-13 4,-241 1,-254 2,-63 5,-243 -3,-298 -14,-97 5,-204 -1,-300 -3,-57 11,-167 2,-288 -14,-169 -34,-98 -115,-196l-35 -5 7 69c15,13 27,29 37,47z"/>
  <path class="fil4 str1" d="M8178 2523c-2,28 23,54 39,75 17,21 38,47 69,52l22 3c-2,-26 -16,-81 -35,-104 -16,-18 -23,-24 -45,-32 -30,-9 -17,-11 -53,-25 -4,23 -3,6 3,31z"/>
  <path class="fil0 str0" d="M5336 1738c38,-8 155,-60 194,-80 57,-29 130,-60 189,-87 83,-39 187,-61 205,-70l396 -154c49,-26 169,-42 208,-67 9,-75 -46,-87 -47,-171 0,-6 14,-73 17,-82 3,-8 38,-55 45,-60 5,33 1,79 5,121 8,69 18,45 56,66 1,25 -5,58 -3,81 7,70 63,180 64,192 -21,-2 -47,-32 -54,-50 -24,-8 -37,-4 -52,-21 -23,-26 -25,-14 -60,-15 -32,19 -100,66 -131,75l-139 71c-52,36 -99,37 -148,61 -92,46 -233,89 -291,121l-437 185c-1,1 -3,2 -4,2l-44 27c-47,18 -102,34 -147,61 -33,6 -56,15 -87,20 -49,8 -74,24 -93,14 -16,-14 -44,-65 -42,-89 17,-16 72,-37 96,-41 40,-7 63,-26 99,-38 110,-38 105,-48 205,-72zm213 99c62,-36 136,-58 203,-84 72,-28 109,-58 149,-65 46,-7 28,-28 92,-34 24,-2 29,-12 51,-18 145,-39 115,-71 195,-89 34,-8 57,-32 95,-48 24,-10 169,-87 204,-82 57,24 32,69 95,94 45,18 95,54 143,42 31,-53 -2,-61 1,-91 -14,-9 -36,-32 -46,-43 -11,-10 -22,-34 -32,-51 -20,-35 -37,-84 -39,-119 -13,-20 26,-180 40,-207 23,19 5,41 9,75 15,113 18,77 44,141 6,14 1,15 10,34 6,13 9,14 15,31l6 21c14,10 7,12 13,35 9,-12 7,-6 34,6 17,8 26,17 31,36 25,1 10,3 28,9 8,2 14,4 25,9 17,8 32,26 50,33 28,4 17,-1 42,-8 20,-7 10,12 27,-15 5,-33 -23,-32 -35,-54 -13,-24 -29,-126 -30,-152 -1,-22 6,-45 5,-62 0,-12 -5,-22 -5,-37l0 -45c-5,-45 2,-19 3,-46 0,-14 -13,-21 3,-89 8,-37 -1,7 0,-21 13,-3 11,16 33,-15l24 13c-17,3 -34,11 -44,23l30 13c4,24 4,58 10,77 8,26 9,32 14,61 4,31 17,39 19,62 5,41 -9,28 -32,43 33,17 -13,-13 54,14 5,31 8,37 24,65l17 8c89,13 30,2 98,-11 1,-30 8,-33 -1,-51l0 -58c-3,-14 -12,-21 -18,-38 4,-36 11,-9 7,-38 0,-1 -1,-2 -1,-4 0,-1 -1,-2 -1,-4l-2 -93c1,-12 -1,-6 3,-17 24,10 19,-10 19,33 -1,43 60,139 99,146l57 -22c0,-36 4,-26 12,-44 9,-22 6,-37 4,-61 12,-21 -6,-56 35,-47 0,0 87,41 134,-16 53,-65 34,-95 10,-207 -11,-46 -49,-77 -102,-61 -39,46 -29,121 -48,144 -22,-5 -38,-108 -38,-108 -47,-9 -22,-3 -55,-27 -16,-9 -7,19 -8,27 0,4 -2,14 -3,19 -7,24 7,4 -10,23 -3,63 28,64 36,110 9,44 -1,85 -3,130 13,17 5,29 -10,41 -18,-10 -17,-17 -21,-35 -6,-28 -6,-17 -23,-32 -32,-30 -4,-59 -45,-84l21 -14c-39,-31 14,-33 -26,-135l-29 0c-20,0 -31,4 -39,19l-1 111c-1,26 -10,37 -12,53 -2,28 15,28 -10,37 4,37 10,166 -7,189 -16,-8 -6,-1 -18,-16 -15,-19 -20,-49 -28,-72 -13,-39 -19,-71 -20,-113 -17,-23 -10,-61 -12,-93 -2,-44 -18,-39 11,-52 -14,-57 -9,-91 -1,-147l-34 -23 -30 3c-42,89 -25,26 -48,129 -8,-4 -3,-3 -7,-5 -4,-1 -8,-3 -13,-4 8,32 3,14 -5,49 -6,23 5,35 -18,45l-11 120c-10,50 6,73 2,105 -2,23 -8,15 -4,47 3,28 4,29 0,56l19 139c-55,0 -66,-51 -90,-95 -16,-29 -6,-15 -27,-24 8,-56 -5,-13 -10,-49 -1,-9 0,-38 -1,-49 -5,-68 -14,-10 3,-101 7,-35 1,-23 -2,-47 -5,-44 6,-142 1,-168l-26 -23c-18,2 -28,9 -41,17 -9,14 -23,26 -28,42 -18,57 10,16 -40,97 -11,17 -5,28 -24,45 -24,-38 31,-157 -66,-158 -43,22 -99,123 -128,166 -48,71 -18,159 -39,240 -28,16 -273,89 -304,105 -67,36 -136,53 -188,83 -24,14 -72,22 -101,32 -53,18 -123,62 -184,80 -27,8 -29,-1 -52,19 -26,22 -12,13 -45,14 -42,0 -38,27 -88,41 -26,7 -72,27 -95,40 -30,18 -66,25 -98,36 -20,7 -29,18 -46,25 -21,8 -27,6 -49,17 -29,14 -62,27 -93,38 -33,13 -64,21 -98,34 -62,26 -46,16 -108,25 -10,16 -22,32 -24,48 8,37 39,65 42,94 2,25 5,9 24,55 7,16 16,34 29,47 67,1 347,-118 415,-155 68,-37 188,-77 201,-84zm1955 -932c-18,-20 -7,-96 2,-123 39,0 35,72 34,101l-30 18c-1,1 -4,3 -6,4z"/>
  <path class="fil5 str2" d="M7019 2134c6,6 -98,85 -95,88 -16,39 -68,78 -92,112 -15,23 -65,71 -87,93 -18,19 -29,22 -39,47 -19,47 -17,29 -40,49 -9,8 -25,38 -41,54 -56,55 -77,85 -135,129 -59,44 -166,156 -190,168 -46,23 -88,71 -20,98 44,17 45,55 106,70 66,-50 128,-179 208,-205 15,30 27,335 29,392 2,63 6,138 -2,200 -8,56 15,130 17,191 2,68 -9,138 5,204 14,68 -2,116 30,180 28,57 15,38 153,25 15,-2 30,-6 42,-7 17,-1 19,2 36,2 32,-1 44,-24 72,-15 3,-2 4,-1 17,-9 -22,-40 -13,-5 -16,-47 -39,24 -149,16 -198,11 -4,-55 -12,-36 -10,-140 3,-123 -19,-184 -24,-264 -2,-52 6,-96 -5,-147 -5,-24 7,-184 -5,-275 -25,-180 -7,-114 -5,-179 2,-52 2,-8 10,-30 -14,-16 -24,-96 -16,-105 -3,-41 -21,-97 12,-125l146 -162c26,-33 102,-102 151,-158 18,-21 59,-56 80,-75 25,-24 29,-51 71,-83 31,-24 61,-53 105,-49 19,9 75,83 81,89 17,20 27,15 51,31 21,15 20,23 45,38 17,9 44,20 58,31 6,4 96,94 133,112 31,6 19,-9 30,15 5,12 9,23 19,32 13,12 47,29 63,43 81,98 101,27 115,196 9,121 -5,231 -2,288 6,96 -13,203 1,300 8,55 5,235 3,298 20,6 8,123 8,151 0,56 7,104 -2,157 -23,-5 -28,-35 -34,-49 -12,26 10,20 -13,55l-16 -15c-14,1 -106,-3 -128,-19l40 -12c-28,-18 -447,9 -486,25 29,4 30,13 59,17 17,3 11,2 11,2 28,-3 25,-15 41,5 22,-22 3,-27 85,-15 16,2 14,-1 25,0 28,3 -4,7 20,4 19,-2 11,-15 33,-34l-4 33c10,2 16,0 26,29 -48,3 3,-10 -49,-11 -25,-1 4,9 -31,-6 -8,21 18,1 -3,18 -18,14 -3,-2 -23,3 -3,0 -56,22 -57,24l71 2c7,-7 47,-1 67,-4 70,-8 51,-14 136,-3 49,7 84,-6 142,16 69,26 85,-5 124,20 18,12 36,11 57,0 4,-35 -3,-123 -4,-165 -6,-177 6,-319 11,-495 2,-55 15,-100 12,-160 -2,-48 -9,-113 -6,-160 7,-97 4,-191 4,-288 14,14 97,73 118,96 90,99 98,53 136,69 2,-29 1,-31 22,-51 9,-22 6,-19 25,-29 29,-17 76,-14 76,-83l-22 -66c-18,-14 -13,-15 -37,-30 -5,-3 -18,-11 -20,-12 -16,-12 -5,8 -14,-14 -31,-5 -52,-31 -69,-52 -16,-21 -41,-47 -39,-75 -6,-4 -46,-61 -52,-71 -10,-16 -49,-53 -50,-61 -31,-11 -23,-14 -44,-32 -26,-2 -67,3 -87,-6 -12,-15 -15,-75 -17,-97 -31,-72 -79,-128 -149,-158 -26,-3 -25,-7 -45,-9 -17,-2 -31,0 -47,-2l-9 -14c-42,-8 -42,-12 -50,-54 -3,-15 -4,-34 -8,-46 -8,-19 -9,-15 -15,-39 -51,-43 -69,-124 -168,-122 -28,13 3,18 -44,18 -56,-1 -4,-10 -44,-15 -14,26 9,34 -21,43 -11,-14 -14,-39 3,-52 16,-13 29,0 43,-1 12,-17 8,-25 24,-41 13,-14 24,-12 36,-30 52,-81 33,-114 32,-157 -1,-21 3,-45 2,-66 -4,-77 -45,-77 -49,-86 -4,-24 7,-58 -2,-93 -6,-25 -23,-62 -8,-84 1,-19 4,-17 -1,-28 -10,-21 5,-5 -17,-17 -16,-8 -27,-2 -38,3l-10 7 8 98c6,18 11,45 12,64 2,33 -11,23 -28,30 16,33 17,1 17,29 0,26 -5,-9 -9,28l13 11c20,14 21,34 35,57 19,28 19,39 16,73 -8,104 -39,139 -132,172 -12,34 -21,32 -14,75 5,28 18,54 20,70l-76 16 -10 -17 -21 -10c-7,33 9,35 -11,71 -18,32 -16,18 -36,41 -24,27 -38,74 -75,84 -6,7 -27,25 -33,29 -18,-13 -15,-8 -26,-24 -11,16 -10,10 -32,16 -6,-25 7,-45 14,-68 22,-78 18,-49 58,-97 14,-17 2,-22 46,-41 0,-8 47,-100 56,-111 27,-32 54,-60 82,-85l25 -23c12,-12 10,-11 26,-17 -15,-18 -7,-14 5,-34 8,-14 15,-26 26,-37 16,-27 26,-69 0,-94 -6,-10 -52,-118 -55,-132 -4,-17 -1,-28 -5,-45 -18,-71 -6,-39 -1,-128 0,-14 -5,-35 -6,-50 -3,-42 4,-19 -14,-33 -1,-66 -26,-98 10,-105 0,-43 5,-23 -19,-33 -4,11 -2,5 -3,17l2 93c0,2 1,3 1,4 0,2 1,3 1,4 4,29 -3,2 -7,38 6,17 15,24 18,38l0 58c9,18 2,21 1,51 -68,13 -9,24 -98,11 16,23 25,11 55,17 10,51 -1,88 25,139 19,36 50,73 41,113 -16,76 -114,135 -149,177 -32,39 -45,132 -126,199 -48,40 -42,57 -53,114 -7,37 -32,76 -36,117 3,2 9,53 43,39m1170 532c-53,-50 -93,-49 -91,-98 23,1 77,44 115,69 25,16 24,27 49,44 18,12 38,20 52,36 -6,20 -2,2 -11,23l-61 -34c-38,-17 -27,-15 -53,-40zm-247 -216c-34,-4 -51,-38 -75,-57 -35,-27 -180,-134 -195,-164 45,10 43,29 77,46l59 34c5,5 6,9 12,16 17,19 107,88 122,125zm456 317c-2,-1 -126,-185 -130,-188 -20,-15 -14,-6 -50,-45 -69,-37 -115,-57 -175,-113 -20,-18 -35,-26 -52,-41 -1,-2 -25,-25 -25,-25 -20,-14 -18,-2 -36,-14 -7,-5 -24,-40 -38,-55 -50,-54 -66,-52 -106,-81 -30,-21 -24,-31 -53,-46 -51,-27 -96,-69 -138,-105 -14,-12 -12,-4 -27,-17 -19,-16 -18,-29 -49,-49 -40,-25 -129,-103 -127,-150 0,0 -16,-5 -16,-6 0,0 16,6 16,6 34,-6 8,20 43,0 28,-16 15,-15 47,-7 18,-29 10,-45 60,-36 22,4 44,17 58,34 94,119 -3,164 162,224 30,10 58,1 82,16 84,52 103,45 117,169 8,63 19,95 88,104 26,4 48,-15 74,5 40,32 87,135 112,170 17,8 41,42 33,62m-1377 -118l-72 83c-7,-46 95,-158 110,-161 0,-31 2,-13 21,-33 8,-10 14,-22 22,-34 20,-27 38,-35 40,-70 32,12 48,-35 69,-62l139 -148c24,-18 49,-45 70,-69 26,-30 60,-14 93,6l125 86c23,18 12,16 30,41 20,28 60,48 65,72 -72,1 -215,-196 -263,-182 -30,20 -30,33 -52,54 -48,45 -71,49 -105,103 -13,20 -38,36 -49,50 -103,132 -93,99 -150,159 -15,16 -35,42 -45,52 -17,21 -26,8 -38,30 -6,13 2,6 -10,23zm-337 332c6,14 14,1 -3,14 -13,12 1,0 -9,-1 -7,32 -42,75 -68,34l-20 21c-30,-41 22,-24 36,-87 23,7 52,-19 28,21 36,0 13,-10 36,-2z"/>
  <path class="fil6 str1" d="M8349 3228c14,18 0,6 19,29l55 109 7 18c25,13 10,10 20,33 -2,-30 -20,-33 7,-54 -51,38 -2,-71 -1,-75 -23,-30 0,-41 -44,-76 -20,-16 -8,5 -14,-19 -5,-14 -8,-22 -13,-31 -18,-35 -12,-6 -26,-32l-19 -51 -3 -6c-24,-8 -55,-70 -96,-36 -6,7 6,104 -6,163 -3,13 -5,47 -8,63 -2,20 -18,39 -21,65 8,-15 20,-4 36,9 8,-16 21,-38 38,-49 14,-34 -2,-128 21,-140l19 28c3,28 12,23 14,58l15 -6z"/>
  <path class="fil7 str1" d="M6975 2058c22,-78 18,-49 58,-97 14,-17 2,-22 46,-41 0,-8 47,-100 56,-111 27,-32 54,-60 82,-85l25 -23c12,-12 10,-11 26,-17 -15,-18 -7,-14 5,-34 8,-14 15,-26 26,-37 16,-27 26,-69 0,-94 -6,-10 -52,-118 -55,-132 -4,-17 -1,-28 -5,-45 -18,-71 -6,-39 -1,-128 0,-14 -5,-35 -6,-50 -3,-42 4,-19 -14,-33 -1,-66 -26,-98 10,-105 0,-43 5,-23 -19,-33 -4,11 -2,5 -3,17l2 93c0,2 1,3 1,4 0,2 1,3 1,4 4,29 -3,2 -7,38 6,17 15,24 18,38l0 58c9,18 2,21 1,51 -68,13 -9,24 -98,11 16,23 25,11 55,17 10,51 -1,88 25,139 19,36 50,73 41,113 -16,76 -114,135 -149,177 -32,39 -45,132 -126,199 -48,40 -42,57 -53,114 -7,37 -32,76 -36,117 3,2 9,53 43,39 -3,-3 101,-82 95,-88 -18,-13 -15,-8 -26,-24 -11,16 -10,10 -32,16 -6,-25 7,-45 14,-68z"/>
  <path class="fil6 str1" d="M6865 728c5,-14 11,-21 18,-41 5,-13 13,-26 20,-40 33,-73 68,-197 148,-228 49,-18 166,-1 202,38 62,68 50,144 76,177 22,17 15,7 44,8l20 -7c0,-10 -25,-127 -27,-132 -7,-12 -59,-70 -71,-83 -46,-48 -190,-65 -252,-49 -46,12 -73,23 -95,67 -12,24 -42,51 -45,64 0,4 1,12 -4,29l-82 156c-20,26 -29,14 -30,48 14,21 12,34 42,30 33,-5 20,-15 36,-37z"/>
  <path class="fil6" d="M6737 3053c0,1 -1,3 -1,5 0,-1 0,-3 0,-4 0,0 1,-1 1,-1 0,0 0,0 0,0zm0 0c-6,13 0,-10 0,0zm2 -14c-4,4 -1,-1 0,0zm74 408c-8,-21 -13,-43 -13,-66l0 -77c-4,-11 -7,-22 -8,-34 -3,-7 -5,-14 -7,-21 -9,-21 -14,-43 -14,-66l0 -48c-4,-13 -7,-26 -8,-40 -1,-5 -1,-10 -1,-15l0 -38c0,-18 3,-35 8,-51 -7,-17 -14,-33 -16,-49 -5,-28 -16,-103 -30,-118 -8,9 2,89 16,105 -8,22 -8,-22 -10,30 -2,65 -20,-1 5,179 12,91 0,251 5,275 11,51 3,95 5,147 5,80 27,141 24,264 -2,104 6,85 10,140 49,5 159,13 198,-11l278 -15c39,-16 458,-43 486,-25l-40 12c22,16 114,20 128,19l18 -1c0,-14 -14,-66 -28,-128 -28,47 -80,78 -140,78 -22,0 -43,-4 -63,-12 -10,2 -20,3 -31,3l-293 0c-17,6 -36,9 -55,9l-96 0c-10,4 -22,7 -34,8 -18,7 -37,11 -58,11l-38 0 0 0 0 3 0 -3c-91,0 -164,-74 -164,-164l0 -40c-7,-18 -10,-36 -10,-56 -6,-17 -9,-36 -9,-55l0 -20c-6,-18 -9,-36 -9,-55l0 -58c-2,-6 -4,-12 -6,-17z"/>
  <path class="fil6 str1" d="M8140 2605c16,8 38,38 34,58 0,1 -1,2 -1,4 4,3 128,187 130,188 29,-17 76,-14 76,-83l-22 -66c-18,-14 -13,-15 -37,-30 -5,-3 -18,-11 -20,-12 -16,-12 -5,8 -14,-14 -31,-5 -52,-31 -69,-52 -16,-21 -41,-47 -39,-75 -6,-4 -46,-61 -52,-71 -10,-16 -49,-53 -50,-61 -31,-11 -23,-14 -44,-32 -26,-2 -67,3 -87,-6 -12,-15 -15,-75 -17,-97 -31,-72 -79,-128 -149,-158 -26,-3 -25,-7 -45,-9 -17,-2 -31,0 -47,-2l-9 -14c-42,-8 -42,-12 -50,-54 -3,-15 -4,-34 -8,-46 -8,-19 -9,-15 -15,-39 -51,-43 -69,-124 -168,-122 -28,13 3,18 -44,18 -56,-1 -4,-10 -44,-15 -14,26 9,34 -21,43 -11,-14 -14,-39 3,-52 16,-13 29,0 43,-1 12,-17 8,-25 24,-41 13,-14 24,-12 36,-30 52,-81 33,-114 32,-157 -1,-21 3,-45 2,-66 -4,-77 -45,-77 -49,-86 -4,-24 7,-58 -2,-93 -6,-25 -23,-62 -8,-84 1,-19 4,-17 -1,-28 -10,-21 5,-5 -17,-17 -16,-8 -27,-2 -38,3l-10 7 8 98c6,18 11,45 12,64 2,33 -11,23 -28,30 16,33 17,1 17,29 0,26 -5,-9 -9,28l13 11c20,14 21,34 35,57 19,28 19,39 16,73 -8,104 -39,139 -132,172 -12,34 -21,32 -14,75 5,28 18,54 20,70 0,0 4,2 8,3 4,1 8,3 8,3 34,-6 8,20 43,0 28,-16 15,-15 47,-7 18,-29 10,-45 60,-36 22,4 44,17 58,34 94,119 -3,164 162,224 30,10 58,1 82,16 84,52 103,45 117,169 8,63 19,95 88,104 26,4 48,-15 74,5 40,32 87,135 112,170z"/>
  <path class="fil6 str1" d="M8401 3645c-68,-15 -65,25 -63,-27 -4,33 5,12 -15,22 -23,-16 -38,-27 -64,-32l-2 -27 -39 46c14,26 25,27 31,62 35,4 44,12 74,24 23,0 45,9 60,5 12,-3 9,-5 21,-12 8,-4 15,-5 26,-10l2 -19c8,-28 3,-7 22,-30 -3,0 -13,7 -32,-5 -12,-8 1,-10 -14,-8 -12,3 2,3 -7,11z"/>
  <path class="fil0 str2" d="M6740 2929c-14,-16 -24,-96 -16,-105 -3,-41 -21,-97 12,-125l146 -162c26,-33 102,-102 151,-158 18,-21 59,-56 80,-75 25,-24 29,-51 71,-83 31,-24 61,-53 105,-49 19,9 75,83 81,89 17,20 27,15 51,31 21,15 20,23 45,38 17,9 44,20 58,31 6,4 96,94 133,112 31,6 19,-9 30,15 5,12 9,23 19,32 13,12 47,29 63,43 81,98 101,27 115,196 9,121 -5,231 -2,288 6,96 -13,203 1,300 8,55 5,235 3,298 20,6 8,123 8,151 0,56 7,104 -2,157 -23,-5 -28,-35 -34,-49 -12,26 10,20 -13,55l-16 -15c-14,1 -106,-3 -128,-19l40 -12c-28,-18 -447,9 -486,25 29,4 30,13 59,17 17,3 11,2 11,2 28,-3 25,-15 41,5 22,-22 3,-27 85,-15 16,2 14,-1 25,0 28,3 -4,7 20,4 19,-2 11,-15 33,-34l-4 33c10,2 16,0 26,29 -48,3 3,-10 -49,-11 -25,-1 4,9 -31,-6 -8,21 18,1 -3,18 -18,14 -3,-2 -23,3 -3,0 -56,22 -57,24l71 2c7,-7 47,-1 67,-4 70,-8 51,-14 136,-3 49,7 84,-6 142,16 69,26 85,-5 124,20 18,12 36,11 57,0 4,-35 -3,-123 -4,-165 -6,-177 6,-319 11,-495 2,-55 15,-100 12,-160 -2,-48 -9,-113 -6,-160 7,-97 4,-191 4,-288 14,14 97,73 118,96 90,99 98,53 136,69 2,-29 1,-31 22,-51 9,-22 6,-19 25,-29 -2,-1 -126,-185 -130,-188 -4,-3 -7,-5 -9,-7 -10,-7 -12,-7 -41,-38 -69,-37 -115,-57 -175,-113 -20,-18 -35,-26 -52,-41 -1,-2 -25,-25 -25,-25 -20,-14 -18,-2 -36,-14 -7,-5 -24,-40 -38,-55 -50,-54 -66,-52 -106,-81 -30,-21 -24,-31 -53,-46 -51,-27 -96,-69 -138,-105 -14,-12 -12,-4 -27,-17 -19,-16 -18,-29 -49,-49 -40,-25 -129,-103 -127,-150 0,0 -4,-1 -8,-3 -4,-1 -8,-3 -8,-3l-76 16 -10 -17 -21 -10c-7,33 9,35 -11,71 -18,32 -16,18 -36,41 -24,27 -38,74 -75,84 -6,7 -27,25 -33,29 6,6 -98,85 -95,88 -16,39 -68,78 -92,112 -15,23 -65,71 -87,93 -18,19 -29,22 -39,47 -19,47 -17,29 -40,49 -9,8 -25,38 -41,54 -56,55 -77,85 -135,129 -59,44 -166,156 -190,168 -46,23 -88,71 -20,98 44,17 45,55 106,70 66,-50 128,-179 208,-205 15,30 27,335 29,392 2,63 6,138 -2,200 -8,56 15,130 17,191 2,68 -9,138 5,204 14,68 -2,116 30,180 28,57 15,38 153,25 15,-2 30,-6 42,-7 17,-1 19,2 36,2 32,-1 44,-24 72,-15 3,-2 4,-1 17,-9 -22,-40 -13,-5 -16,-47 -39,24 -149,16 -198,11 -4,-55 -12,-36 -10,-140 3,-123 -19,-184 -24,-264 -2,-52 6,-96 -5,-147 -5,-24 7,-184 -5,-275 -25,-180 -7,-114 -5,-179 2,-52 2,-8 10,-30zm1354 -175c-53,-50 -93,-49 -91,-98 23,1 77,44 115,69 25,16 24,27 49,44 18,12 38,20 52,36 -6,20 -2,2 -11,23l-61 -34c-38,-17 -27,-15 -53,-40zm-247 -216c-34,-4 -51,-38 -75,-57 -35,-27 -180,-134 -195,-164 45,10 43,29 77,46l59 34c5,5 6,9 12,16 17,19 107,88 122,125zm-1013 -67c0,-31 2,-13 21,-33 8,-10 14,-22 22,-34 20,-27 38,-35 40,-70 32,12 48,-35 69,-62l139 -148c24,-18 49,-45 70,-69 26,-30 60,-14 93,6l125 86c23,18 12,16 30,41 20,28 60,48 65,72 -72,1 -215,-196 -263,-182 -30,20 -30,33 -52,54 -48,45 -71,49 -105,103 -13,20 -38,36 -49,50 -103,132 -93,99 -150,159 -15,16 -35,42 -45,52 -17,21 -26,8 -38,30 -6,13 2,6 -10,23l-72 83c-7,-46 95,-158 110,-161zm-411 412c36,0 13,-10 36,-2 6,14 14,1 -3,14 -13,12 1,0 -9,-1 -7,32 -42,75 -68,34l-20 21c-30,-41 22,-24 36,-87 23,7 52,-19 28,21z"/>
  <path class="fil0 str2" d="M7255 3938l-278 15c3,42 -6,7 16,47 -13,8 -14,7 -17,9 7,6 196,6 293,1l-1 0c24,-6 29,-4 54,-4l10 10 56 -9c1,-2 54,-24 57,-24 20,-5 5,11 23,-3 21,-17 -5,3 3,-18 35,15 6,5 31,6 52,1 1,14 49,11 -10,-29 -16,-27 -26,-29l4 -33c-22,19 -14,32 -33,34 -24,3 8,-1 -20,-4 -11,-1 -9,2 -25,0 -82,-12 -63,-7 -85,15 -16,-20 -13,-8 -41,-5 0,0 6,1 -11,-2 -29,-4 -30,-13 -59,-17z"/>
  <path class="fil0 str2" d="M7819 3815c14,62 28,114 28,128l-18 1 16 15c23,-35 1,-29 13,-55 6,14 11,44 34,49 9,-53 2,-101 2,-157 0,-28 12,-145 -8,-151 3,13 2,241 -1,254l-13 -22c-8,-22 -5,-59 -8,-68 -9,-31 -12,14 -16,-40 -6,-67 -1,-51 -4,-58l0 18c0,31 -9,61 -25,86z"/>
  <path class="fil0 str2" d="M6379 2928c26,41 61,-2 68,-34 10,1 -4,13 9,1 17,-13 9,0 3,-14 -23,-8 0,2 -36,2 24,-40 -5,-14 -28,-21 -14,63 -66,46 -36,87l20 -21z"/>
  <path class="fil8 str1" d="M6855 2438c-19,20 -21,2 -21,33 -13,25 -13,4 -9,25l19 0c10,-10 30,-36 45,-52 57,-60 47,-27 150,-159 11,-14 36,-30 49,-50 34,-54 57,-58 105,-103 22,-21 22,-34 52,-54 48,-14 191,183 263,182 -5,-24 -45,-44 -65,-72 -18,-25 -7,-23 -30,-41l-125 -86c-33,-20 -67,-36 -93,-6 -21,24 -46,51 -70,69l-139 148c-21,27 -37,74 -69,62 -2,35 -20,43 -40,70 -8,12 -14,24 -22,34z"/>
  <path class="fil8 str1" d="M6834 2471c-15,3 -117,115 -110,161l72 -83c12,-17 4,-10 10,-23 12,-22 21,-9 38,-30l-19 0c-4,-21 -4,0 9,-25z"/>
  <path class="fil8 str1" d="M7577 2317c15,30 160,137 195,164 24,19 41,53 75,57 -15,-37 -105,-106 -122,-125 -6,-7 -7,-11 -12,-16l-59 -34c-34,-17 -32,-36 -77,-46z"/>
  <path class="fil1 str1" d="M8003 2656c-2,49 38,48 91,98 26,25 15,23 53,40l61 34c9,-21 5,-3 11,-23 -14,-16 -34,-24 -52,-36 -25,-17 -24,-28 -49,-44 -38,-25 -92,-68 -115,-69z"/>
  <path class="fil1 str1" d="M7508 2260c-5,-24 -45,-44 -65,-72 -18,-25 -7,-23 -30,-41l-125 -86c-33,-20 -67,-36 -93,-6 -21,24 -46,51 -70,69l-139 148c-21,27 -37,74 -69,62 -2,35 -20,43 -40,70 -8,12 -14,24 -22,34 -19,20 -21,2 -21,33 -13,25 -13,4 -9,25l19 0c10,-10 30,-36 45,-52 57,-60 47,-27 150,-159 11,-14 36,-30 49,-50 34,-54 57,-58 105,-103 22,-21 22,-34 52,-54 48,-14 191,183 263,182z"/>
  <path class="fil1 str1" d="M7654 2363c-34,-17 -32,-36 -77,-46 15,30 160,137 195,164 24,19 41,53 75,57 -15,-37 -105,-106 -122,-125 -6,-7 -7,-11 -12,-16l-59 -34z"/>
  <path class="fil1 str1" d="M6796 2549c12,-17 4,-10 10,-23 12,-22 21,-9 38,-30l-19 0c-4,-21 -4,0 9,-25 -15,3 -117,115 -110,161l72 -83z"/>
  <path class="fil8 str3" d="M7648 2032c1,9 -4,0 0,0zm-20 -13c8,42 8,46 50,54l10 -12 -29 -21c-6,-6 -9,-8 -11,-8 0,-3 -1,-6 -2,-10 -4,-13 -3,-5 -1,-19 2,1 2,2 4,3l8 6c1,1 2,2 3,3 8,7 4,9 16,10 38,3 -8,-22 27,-5 -14,-34 -9,-11 -26,-33l-12 -15c-29,-26 -9,-20 -60,-38 6,24 7,20 15,39 4,12 5,31 8,46z"/>
  <path class="fil8" d="M7648 2032c0,2 0,4 0,4 0,0 0,0 0,0 -1,0 -2,-4 0,-4 0,0 0,0 0,0zm0 0c0,2 0,4 0,4 -1,0 -3,-4 0,-4zm-28 -59c4,12 5,31 8,46 8,42 8,46 50,54l10 -12 -29 -21c-6,-6 -9,-8 -11,-8 0,-3 -1,-6 -2,-10 -4,-13 -3,-5 -1,-19 2,1 2,2 4,3l8 6c1,1 2,2 3,3 8,7 4,9 16,10 38,3 -8,-22 27,-5 -14,-34 -9,-11 -26,-33l-12 -15c-29,-26 -9,-20 -60,-38 6,24 7,20 15,39z"/>
  <path class="fil8 str4" d="M7659 2040l29 21 -10 12 9 14c16,2 30,0 47,2 20,2 19,6 45,9 -26,-16 -27,-18 -50,-36 -45,-35 4,-6 -26,-42 -35,-17 11,8 -27,5 -12,-1 -8,-3 -16,-10 0,0 0,0 0,0l-11 -9c-2,-1 -2,-2 -4,-3 -2,14 -3,6 1,19 1,4 2,7 2,10 2,0 5,2 11,8z"/>
  <path class="fil8 str4" d="M7648 2032c1,6 -1,4 -1,1 0,0 0,-1 1,-1zm0 0c1,3 0,4 0,4 -1,0 -1,-1 -1,-1 0,0 0,-1 0,-2 0,0 0,-1 1,-1zm1 -26l11 9c8,7 4,9 16,10 38,3 -8,-22 27,-5 -14,-34 -9,-11 -26,-33l-12 -15c-29,-26 -9,-20 -60,-38 6,24 7,20 15,39 4,12 5,31 8,46 8,42 8,46 50,54l10 -12 -29 -21c-6,-6 -9,-8 -11,-8 0,-3 -1,-6 -2,-10 -4,-13 -3,-5 -1,-19 2,1 2,2 4,3z"/>
  <path class="fil8 str4" d="M7648 2032c0,-3 -1,-6 -2,-10 -4,-13 -3,-5 -1,-19 2,1 2,2 4,3l11 9c8,7 4,9 16,10 38,3 -8,-22 27,-5 -14,-34 -9,-11 -26,-33l-12 -15c-29,-26 -9,-20 -60,-38 6,24 7,20 15,39 4,12 5,31 8,46 8,42 8,46 50,54l10 -12 -29 -21c-6,-6 -9,-8 -11,-8zm-1 1c0,0 0,-1 1,-1 1,6 -1,4 -1,1zm0 0c0,0 0,-1 1,-1 1,6 -1,4 -1,1z"/>
  <path class="fil8 str4" d="M7928 2256c2,22 5,82 17,97 20,9 61,4 87,6 21,18 13,21 44,32 12,3 4,-2 8,-15 -47,-3 -34,-22 -62,-48 -41,9 -1,7 -29,17l-1 -35c-35,-18 -4,-7 -29,-31 -9,-8 -25,-17 -35,-23z"/>
  <path class="fil8 str4" d="M8175 2492c-4,23 -3,6 3,31 -2,28 23,54 39,75 17,21 38,47 69,52l22 3c-2,-26 -16,-81 -35,-104 -16,-18 -23,-24 -45,-32 -30,-9 -17,-11 -53,-25z"/>
  <path class="fil8 str4" d="M7648 2032c1,3 0,4 0,4 -1,0 -1,-1 -1,-1 0,0 0,-1 0,-2 0,0 0,-1 1,-1zm12 -17c8,7 4,9 16,10 38,3 -8,-22 27,-5 -14,-34 -9,-11 -26,-33l-12 -15c-29,-26 -9,-20 -60,-38 6,24 7,20 15,39 4,12 5,31 8,46 8,42 8,46 50,54l10 -12 -29 -21c-6,-6 -9,-8 -11,-8 0,-3 -1,-6 -2,-10 -4,-13 -3,-5 -1,-19 2,1 2,2 4,3l11 9z"/>
  <path class="fil9 str4" d="M7648 2032c1,6 -1,4 -1,1 0,0 0,-1 1,-1zm1 -26l11 9c8,7 4,9 16,10 38,3 -8,-22 27,-5 -14,-34 -9,-11 -26,-33l-12 -15c-29,-26 -9,-20 -60,-38 6,24 7,20 15,39 4,12 5,31 8,46 8,42 8,46 50,54l10 -12 -29 -21c-6,-6 -9,-8 -11,-8 0,-3 -1,-6 -2,-10 -4,-13 -3,-5 -1,-19 2,1 2,2 4,3z"/>
  <path class="fil9 str4" d="M7659 2040l29 21 -10 12 9 14c16,2 30,0 47,2 20,2 19,6 45,9 -26,-16 -27,-18 -50,-36 -45,-35 4,-6 -26,-42 -35,-17 11,8 -27,5 -12,-1 -8,-3 -16,-10l0 0 -11 -9c-2,-1 -2,-2 -4,-3 -2,14 -3,6 1,19 1,4 2,7 2,10 2,0 5,2 11,8z"/>
  <path class="fil9 str4" d="M7928 2256c2,22 5,82 17,97 20,9 61,4 87,6 21,18 13,21 44,32 12,3 4,-2 8,-15 -47,-3 -34,-22 -62,-48 -41,9 -1,7 -29,17l-1 -35c-35,-18 -4,-7 -29,-31 -9,-8 -25,-17 -35,-23z"/>
  <path class="fil9 str4" d="M8178 2523c-2,28 23,54 39,75 17,21 38,47 69,52l22 3c-2,-26 -16,-81 -35,-104 -16,-18 -23,-24 -45,-32 -30,-9 -17,-11 -53,-25 -4,23 -3,6 3,31z"/>
  <path class="fil9 str4" d="M8430 3384c11,55 3,111 2,165 0,19 -16,51 -25,62 -30,35 -35,6 -43,-14 -17,-20 -11,-28 -11,-58 -16,11 -18,22 -26,35 -10,18 -9,8 -30,37 -12,-12 -39,-39 -45,-50 1,-16 1,-8 -9,-25 -10,-21 -9,-46 -11,-71 -1,-16 10,-11 9,-56 -2,-44 31,-81 39,-121 -17,11 -30,33 -38,49 -16,-13 -28,-24 -36,-9 3,-26 19,-45 21,-65 3,-16 5,-50 8,-63 12,-59 0,-156 6,-163 41,-34 72,28 96,36 -3,-32 5,-10 13,-36 -15,-13 -7,-5 -14,-6 -12,-3 5,3 -11,-3 -1,0 -2,-2 -4,-2 -2,0 -3,-1 -4,-2 -37,-6 -42,-45 -84,-29 -24,27 -8,27 -3,58 4,23 0,184 -15,198l-38 128c-2,53 -21,83 -8,136 9,34 31,84 49,112l39 -46 2 27c26,5 41,16 64,32 20,-10 11,11 15,-22 -2,52 -5,12 63,27 9,-8 -5,-8 7,-11 15,-2 2,0 14,8 19,12 29,5 32,5 -19,23 -14,2 -22,30 82,-32 64,-114 68,-195 0,-18 7,-40 7,-57 0,-13 -8,-25 -11,-47 -4,-25 -28,-67 -40,-90 -1,4 -50,113 1,75 -27,21 -9,24 -7,54 -10,-23 5,-20 -20,-33z"/>
  <path class="fil9 str4" d="M8405 3801c-30,-5 -34,7 -72,1l-11 0c-6,31 -10,18 -24,20 -14,3 -5,8 -39,14 -17,26 -32,31 -61,38 -22,50 1,26 -43,64 2,41 13,65 42,90 37,32 48,22 94,21 83,-3 112,19 217,5 23,-3 24,-1 39,-12 11,-7 26,-15 37,-24 31,-28 48,-111 10,-151 -16,-18 -13,-26 -25,-35 -17,-12 -71,-25 -94,-23 -32,-6 -33,-1 -70,-8zm-70 72c30,-10 146,-9 170,13 34,13 35,44 29,76 -17,29 -184,29 -221,26 -21,-1 -19,-4 -36,-8 -22,-4 -21,7 -30,-8 -37,-31 59,-90 88,-99z"/>
  <path class="fil9 str4" d="M8291 3807c-15,-28 -4,-89 -33,-107 -12,7 -15,3 -13,18 2,17 5,-6 9,17 -12,7 3,-6 -19,6 -1,14 1,45 5,58 8,27 7,19 25,24l-6 13c34,-6 25,-11 39,-14 14,-2 18,11 24,-20 -17,6 -16,10 -31,5z"/>
  <path class="fil9 str4" d="M8363 3739c11,20 17,29 16,51 -28,7 -30,-4 -46,12 38,6 42,-6 72,-1 37,7 38,2 70,8 -27,-25 -47,-74 -45,-113 -11,5 -18,6 -26,10 -12,7 -9,9 -21,12 -15,4 -37,-5 -60,-5l13 17c4,-1 7,-28 27,9z"/>
  <path class="fil10 str4" d="M8405 3801c-30,-5 -34,7 -72,1l-11 0c-6,31 -10,18 -24,20 -14,3 -5,8 -39,14 -17,26 -32,31 -61,38 -22,50 1,26 -43,64 2,41 13,65 42,90 37,32 48,22 94,21 83,-3 112,19 217,5 23,-3 24,-1 39,-12 11,-7 26,-15 37,-24 31,-28 48,-111 10,-151 -16,-18 -13,-26 -25,-35 -17,-12 -71,-25 -94,-23 -32,-6 -33,-1 -70,-8zm-70 72c30,-10 146,-9 170,13 34,13 35,44 29,76 -17,29 -184,29 -221,26 -21,-1 -19,-4 -36,-8 -22,-4 -21,7 -30,-8 -37,-31 59,-90 88,-99z"/>
  <path class="fil11 str4" d="M8398 3193c6,24 -6,3 14,19 44,35 21,46 44,76 6,-29 5,-107 -13,-134 -16,-23 -52,-60 -79,-66l-13 7 -11 -16 19 51c14,26 8,-3 26,32 5,9 8,17 13,31z"/>
  <path class="fil11 str4" d="M8351 3095l13 -7c17,-35 -5,-11 31,-30 -27,-15 -16,-12 -36,-30 -14,-13 -25,-14 -42,-4 1,1 2,2 4,2 2,0 3,2 4,2 16,6 -1,0 11,3 7,1 -1,-7 14,6 -8,26 -16,4 -13,36l3 6 11 16z"/>
  <path class="fil11 str4" d="M8274 2545c-2,0 1,-6 0,0zm-96 -22c-6,-25 -7,-8 -3,-31 36,14 23,16 53,25 22,8 29,14 45,32 0,-2 1,-3 1,-4 1,0 2,-1 5,-5 4,-3 6,-6 8,-7 -26,14 -17,3 -24,-7l8 -7c16,-11 11,-5 32,-7 -12,-22 -32,-23 -63,-55 -26,-27 -13,19 -32,-29 -28,20 -62,-4 -101,-28 -20,-14 -2,-9 -23,-24 -4,13 4,18 -8,15 1,8 40,45 50,61 6,10 46,67 52,71z"/>
  <path class="fil11 str4" d="M8287 2533c10,-8 -7,21 1,0 -1,0 -1,0 -1,0zm-8 7c-3,4 -4,5 -5,5 0,1 -1,2 -1,4 19,23 33,78 35,104l-22 -3c9,22 -2,2 14,14 2,1 15,9 20,12 24,15 19,16 37,30 -1,-5 -1,-20 -1,-21 -1,-8 -7,-5 -6,-36 0,-57 -6,-56 -36,-80 1,-24 3,-38 -11,-57 -21,2 -16,-4 -32,7l-8 7c7,10 -2,21 24,7 -2,1 -4,4 -8,7z"/>
  <path class="fil11 str4" d="M8379 2772c0,69 -47,66 -76,83 -19,10 -16,7 -25,29 22,-12 5,-3 22,-23 44,21 13,12 62,5 47,-7 53,-42 42,-68l-5 -11c-4,-5 -13,-10 -20,-15z"/>
  <path class="fil11 str4" d="M7648 2032c1,6 -1,4 -1,1 0,0 0,-1 1,-1zm1 -26l11 9c0,0 0,0 0,0l-11 -9zm11 9c8,7 4,9 16,10 38,3 -8,-22 27,-5 -14,-34 -9,-11 -26,-33l-12 -15c-29,-26 -9,-20 -60,-38 6,24 7,20 15,39 4,12 5,31 8,46 8,42 8,46 50,54l10 -12 -29 -21c-6,-6 -9,-8 -11,-8 0,-3 -1,-6 -2,-10 -4,-13 -3,-5 -1,-19 2,1 2,2 4,3l11 9z"/>
  <path class="fil11 str4" d="M7928 2256c2,22 5,82 17,97 20,9 61,4 87,6 21,18 13,21 44,32 12,3 4,-2 8,-15 -47,-3 -34,-22 -62,-48 -41,9 -1,7 -29,17l-1 -35c-35,-18 -4,-7 -29,-31 -9,-8 -25,-17 -35,-23z"/>
  <path class="fil11 str4" d="M7434 1734c52,-81 33,-114 32,-157 -1,-21 3,-45 2,-66 -4,-77 -45,-77 -49,-86 -4,-24 7,-58 -2,-93 -6,-25 -23,-62 -8,-84 1,-19 4,-17 -1,-28 -10,-21 5,-5 -17,-17 -16,-8 -27,-2 -38,3l-10 7 8 98c6,18 11,45 12,64 2,33 -11,23 -28,30 16,33 17,1 17,29 0,26 -5,-9 -9,28l13 11c20,14 21,34 35,57 19,28 19,39 16,73 -8,104 -39,139 -132,172 -12,34 -21,32 -14,75 5,28 18,54 20,70 0,0 4,2 8,3 4,1 8,3 8,3 34,-6 8,20 43,0 28,-16 15,-15 47,-7 18,-29 10,-45 60,-36 22,4 44,17 58,34 94,119 -3,164 162,224 30,10 58,1 82,16 84,52 103,45 117,169 8,63 19,95 88,104 26,4 48,-15 74,5 40,32 87,135 112,170 16,8 38,38 34,58 0,1 -1,2 -1,4 4,3 128,187 130,188 29,-17 76,-14 76,-83l-22 -66c-18,-14 -13,-15 -37,-30 -5,-3 -18,-11 -20,-12 -16,-12 -5,8 -14,-14 -31,-5 -52,-31 -69,-52 -16,-21 -41,-47 -39,-75 -6,-4 -46,-61 -52,-71 -10,-16 -49,-53 -50,-61 -31,-11 -23,-14 -44,-32 -26,-2 -67,3 -87,-6 -12,-15 -15,-75 -17,-97 -31,-72 -79,-128 -149,-158 -26,-3 -25,-7 -45,-9 -17,-2 -31,0 -47,-2l-9 -14c-42,-8 -42,-12 -50,-54 -3,-15 -4,-34 -8,-46 -8,-19 -9,-15 -15,-39 -51,-43 -69,-124 -168,-122 -28,13 3,18 -44,18 -56,-1 -4,-10 -44,-15 -14,26 9,34 -21,43 -11,-14 -14,-39 3,-52 16,-13 29,0 43,-1 12,-17 8,-25 24,-41 13,-14 24,-12 36,-30z"/>
  <path class="fil9 str4" d="M7163 956c2,-16 11,-27 12,-53l1 -111c-73,0 -29,-135 -132,-126l34 23c-8,56 -13,90 1,147 -29,13 -13,8 -11,52 2,32 -5,70 12,93 -4,-42 -11,-67 -2,-111 3,-15 8,-32 8,-47 -1,-30 -15,-30 -2,-51 31,37 79,166 69,221 25,-9 8,-9 10,-37z"/>
  <path class="fil9 str4" d="M6947 725c29,-3 10,2 28,-19 0,20 -4,28 -11,48 -8,26 -2,19 -30,28l-11 101c23,-10 12,-22 18,-45 8,-35 13,-17 5,-49 5,1 9,3 13,4 4,2 -1,1 7,5 23,-103 6,-40 48,-129l30 -3 -32 -5 -19 25c-16,-7 -24,-15 -27,-31 3,30 -49,27 -19,70z"/>
  <path class="fil9 str4" d="M6958 735c-21,-3 -17,-5 -36,2l1 33c3,0 17,1 26,-9 5,-6 7,-15 9,-26z"/>
  <path class="fil9 str4" d="M7255 724c-52,8 -10,-14 -40,49l29 0c40,102 -13,104 26,135l-21 14c41,25 13,54 45,84 17,15 17,4 23,32 4,18 3,25 21,35 15,-12 23,-24 10,-41 -10,15 -2,1 -51,-32 8,-47 -3,-33 -11,-74 15,-16 39,-35 47,-55 -42,-1 0,4 -34,12 -24,-18 -21,-9 -20,-44 1,-56 -5,-19 -19,-55 6,-3 10,-6 14,-8l39 -22 2 38c17,-19 3,1 10,-23 1,-5 3,-15 3,-19 1,-8 -8,-36 8,-27l-6 -23c-20,-15 -19,-5 -32,12 -4,-11 8,-24 -12,-9 -18,14 3,15 -31,21z"/>
  <path class="fil9 str4" d="M7384 1150l-57 22c12,14 -4,4 17,14l-1 27 10 -7c11,-5 22,-11 38,-3 22,12 7,-4 17,17 5,11 2,9 1,28 33,-11 13,-43 -9,-58 27,-15 10,11 23,-17 -5,-10 -7,-41 -12,-59 -11,-44 2,-10 9,-50 -9,-9 -11,-11 -20,-19 2,24 5,39 -4,61 -8,18 -12,8 -12,44z"/>
  <path class="fil9 str4" d="M6862 1421c-5,-19 -14,-28 -31,-36 -27,-12 -25,-18 -34,-6 -6,-23 1,-25 -13,-35l10 66c23,5 42,15 68,11z"/>
  <path class="fil11 str4" d="M6611 1377c-8,-30 -1,-21 -1,-46 -28,-3 -29,-3 -55,2 -28,5 -34,-7 -56,8 35,1 37,-11 60,15 15,17 28,13 52,21z"/>
  <path class="fil11 str4" d="M6887 2205c-15,-3 -21,-15 -30,4 -11,26 7,14 -8,47 -10,22 -10,8 -16,36 -2,13 -1,22 -13,37l12 5c24,-34 76,-73 92,-112 -34,14 -40,-37 -43,-39l6 22z"/>
  <path class="fil11 str4" d="M7688 2496c-11,76 -14,30 21,64 -2,16 -1,30 0,45 11,6 22,13 32,22l-7 -69 35 5c-16,-14 -50,-31 -63,-43 -10,-9 -14,-20 -19,-32 -11,-24 1,-9 -30,-15 11,26 7,8 31,23z"/>
  <path class="fil11 str4" d="M8123 2622c29,31 31,31 41,38 9,-1 7,2 10,3 4,-20 -18,-50 -34,-58l4 21 -21 -4z"/>
  <path class="fil11 str4" d="M7175 903l1 -111c-73,0 -29,-135 -132,-126l34 23c-8,56 -13,90 1,147 -29,13 -13,8 -11,52 2,32 -5,70 12,93 -4,-42 -11,-67 -2,-111 3,-15 8,-32 8,-47 -1,-30 -15,-30 -2,-51 31,37 79,166 69,221 25,-9 8,-9 10,-37 2,-16 11,-27 12,-53z"/>
  <path class="fil11 str4" d="M6966 798c23,-103 6,-40 48,-129l30 -3 -32 -5 -19 25c-16,-7 -24,-15 -27,-31 3,30 -49,27 -19,70 29,-3 10,2 28,-19 0,20 -4,28 -11,48 -8,26 -2,19 -30,28l-11 101c23,-10 12,-22 18,-45 8,-35 13,-17 5,-49 5,1 9,3 13,4 4,2 -1,1 7,5z"/>
  <path class="fil11 str4" d="M7244 773c40,102 -13,104 26,135l-21 14c41,25 13,54 45,84 17,15 17,4 23,32 4,18 3,25 21,35 15,-12 23,-24 10,-41 -10,15 -2,1 -51,-32 8,-47 -3,-33 -11,-74 15,-16 39,-35 47,-55 -42,-1 0,4 -34,12 -24,-18 -21,-9 -20,-44 1,-56 -5,-19 -19,-55 6,-3 10,-6 14,-8l39 -22 2 38c17,-19 3,1 10,-23 1,-5 3,-15 3,-19 1,-8 -8,-36 8,-27l-6 -23c-20,-15 -19,-5 -32,12 -4,-11 8,-24 -12,-9 -18,14 3,15 -31,21 -52,8 -10,-14 -40,49l29 0z"/>
  <path class="fil11 str1" d="M7260 784c6,-3 10,-6 14,-8l39 -22 2 38c17,-19 3,1 10,-23 1,-5 3,-15 3,-19 1,-8 -8,-36 8,-27l-6 -23c-20,-15 -19,-5 -32,12 -4,-11 8,-24 -12,-9 -18,14 3,15 -31,21 -52,8 -10,-14 -40,49l29 0c40,102 -13,104 26,135l-21 14c41,25 13,54 45,84 17,15 17,4 23,32 4,18 3,25 21,35 15,-12 23,-24 10,-41 -10,15 -2,1 -51,-32 8,-47 -3,-33 -11,-74 15,-16 39,-35 47,-55 -42,-1 0,4 -34,12 -24,-18 -21,-9 -20,-44 1,-56 -5,-19 -19,-55z"/>
  <path class="fil11 str1" d="M7175 903l1 -111c-73,0 -29,-135 -132,-126l34 23c-8,56 -13,90 1,147 -29,13 -13,8 -11,52 2,32 -5,70 12,93 -4,-42 -11,-67 -2,-111 3,-15 8,-32 8,-47 -1,-30 -15,-30 -2,-51 31,37 79,166 69,221 25,-9 8,-9 10,-37 2,-16 11,-27 12,-53z"/>
  <path class="fil11 str1" d="M6947 725c29,-3 10,2 28,-19 0,20 -4,28 -11,48 -8,26 -2,19 -30,28l-11 101c23,-10 12,-22 18,-45 8,-35 13,-17 5,-49 5,1 9,3 13,4 4,2 -1,1 7,5 23,-103 6,-40 48,-129l30 -3 -32 -5 -19 25c-16,-7 -24,-15 -27,-31 3,30 -49,27 -19,70z"/>
  <path class="fil12 str1" d="M6910 1211c-40,-12 -57,-100 -64,-132 -9,-35 -29,-108 -18,-144 91,-9 45,15 51,50 5,23 5,4 8,26 2,17 -1,15 3,36 13,-13 16,-18 11,-43l11 -1 11 -120 11 -101c28,-9 22,-2 30,-28 7,-20 11,-28 11,-48 -18,21 1,16 -28,19 -30,-43 22,-40 19,-70 3,16 11,24 27,31l19 -25 32 5c103,-9 59,126 132,126 8,-15 19,-19 39,-19 30,-63 -12,-41 40,-49 34,-6 13,-7 31,-21 20,-15 8,-2 12,9 13,-17 12,-27 32,-12l12 0c-19,-39 12,-29 -17,-53l4 -13c-26,-33 -14,-109 -76,-177 -36,-39 -153,-56 -202,-38 -80,31 -115,155 -148,228 -7,14 -15,27 -20,40 -7,20 -13,27 -18,41 -2,41 19,46 19,65 0,2 -2,0 -1,11 0,3 2,10 3,13 6,36 -5,71 -7,111l-46 -6c-16,-45 24,-107 -30,-134l0 29c5,26 -6,124 -1,168 3,24 9,12 2,47 -17,91 -8,33 -3,101 1,11 0,40 1,49 5,36 18,-7 10,49 21,9 11,-5 27,24 24,44 35,95 90,95l-19 -139zm39 -450c-9,10 -23,9 -26,9l-1 -33c19,-7 15,-5 36,-2 -2,11 -4,20 -9,26z"/>
  <path class="fil11 str1" d="M6610 1331c-28,-3 -29,-3 -55,2 -28,5 -34,-7 -56,8 35,1 37,-11 60,15 15,17 28,13 52,21 -8,-30 -1,-21 -1,-46z"/>
  <g>
   <g style="clip-path:url(#id0)">
    <polygon class="fil13" points="7819,2027 8819,2059 8819,1995 "/>
    <polygon id="1" class="fil14" points="7819,2027 6819,1995 6819,2059 "/>
    <polygon id="2" class="fil15" points="7819,2027 8819,1995 8814,1931 "/>
    <polygon id="3" class="fil16" points="7819,2027 6819,2059 6823,2123 "/>
    <polygon id="4" class="fil17" points="7819,2027 8814,1931 8806,1867 "/>
    <polygon id="5" class="fil18" points="7819,2027 6823,2123 6832,2186 "/>
    <polygon id="6" class="fil19" points="7819,2027 8806,1867 8794,1804 "/>
    <polygon id="7" class="fil20" points="7819,2027 6832,2186 6844,2249 "/>
    <polygon id="8" class="fil21" points="7819,2027 8794,1804 8778,1742 "/>
    <polygon id="9" class="fil22" points="7819,2027 6844,2249 6860,2311 "/>
    <polygon id="10" class="fil23" points="7819,2027 8778,1742 8757,1681 "/>
    <polygon id="11" class="fil24" points="7819,2027 6860,2311 6880,2372 "/>
    <polygon id="12" class="fil25" points="7819,2027 8757,1681 8733,1622 "/>
    <polygon id="13" class="fil26" points="7819,2027 6880,2372 6904,2432 "/>
    <polygon id="14" class="fil27" points="7819,2027 8733,1622 8706,1564 "/>
    <polygon id="15" class="fil28" points="7819,2027 6904,2432 6932,2489 "/>
    <polygon id="16" class="fil29" points="7819,2027 8706,1564 8674,1508 "/>
    <polygon id="17" class="fil30" points="7819,2027 6932,2489 6964,2545 "/>
    <polygon id="18" class="fil31" points="7819,2027 8674,1508 8639,1455 "/>
    <polygon id="19" class="fil32" points="7819,2027 6964,2545 6999,2599 "/>
    <polygon id="20" class="fil33" points="7819,2027 8639,1455 8601,1403 "/>
    <polygon id="21" class="fil34" points="7819,2027 6999,2599 7037,2650 "/>
    <polygon id="22" class="fil35" points="7819,2027 8601,1403 8559,1354 "/>
    <polygon id="23" class="fil36" points="7819,2027 7037,2650 7079,2699 "/>
    <polygon id="24" class="fil37" points="7819,2027 8559,1354 8515,1308 "/>
    <polygon id="25" class="fil38" points="7819,2027 7079,2699 7123,2745 "/>
    <polygon id="26" class="fil39" points="7819,2027 8515,1308 8467,1265 "/>
    <polygon id="27" class="fil40" points="7819,2027 7123,2745 7171,2788 "/>
    <polygon id="28" class="fil41" points="7819,2027 8467,1265 8417,1225 "/>
    <polygon id="29" class="fil42" points="7819,2027 7171,2788 7221,2828 "/>
    <polygon id="30" class="fil43" points="7819,2027 8417,1225 8365,1189 "/>
    <polygon id="31" class="fil44" points="7819,2027 7221,2828 7273,2865 "/>
    <polygon id="32" class="fil45" points="7819,2027 8365,1189 8310,1155 "/>
    <polygon id="33" class="fil46" points="7819,2027 7273,2865 7328,2898 "/>
    <polygon id="34" class="fil47" points="7819,2027 8310,1155 8253,1126 "/>
    <polygon id="35" class="fil48" points="7819,2027 7328,2898 7385,2928 "/>
    <polygon id="36" class="fil49" points="7819,2027 8253,1126 8194,1100 "/>
    <polygon id="37" class="fil50" points="7819,2027 7385,2928 7444,2954 "/>
    <polygon id="38" class="fil51" points="7819,2027 8194,1100 8134,1078 "/>
    <polygon id="39" class="fil52" points="7819,2027 7444,2954 7504,2976 "/>
    <polygon id="40" class="fil53" points="7819,2027 8134,1078 8073,1059 "/>
    <polygon id="41" class="fil54" points="7819,2027 7504,2976 7565,2994 "/>
    <polygon id="42" class="fil55" points="7819,2027 8073,1059 8010,1045 "/>
    <polygon id="43" class="fil56" points="7819,2027 7565,2994 7628,3008 "/>
    <polygon id="44" class="fil57" points="7819,2027 8010,1045 7947,1035 "/>
    <polygon id="45" class="fil58" points="7819,2027 7628,3008 7691,3019 "/>
    <polygon id="46" class="fil59" points="7819,2027 7947,1035 7883,1029 "/>
    <polygon id="47" class="fil60" points="7819,2027 7691,3019 7755,3025 "/>
    <polygon id="48" class="fil61" points="7819,2027 7883,1029 7819,1027 "/>
    <polygon id="49" class="fil62" points="7819,2027 7755,3025 7819,3027 "/>
    <polygon id="50" class="fil62" points="7819,2027 7819,1027 7755,1029 "/>
    <polygon id="51" class="fil61" points="7819,2027 7819,3027 7883,3025 "/>
    <polygon id="52" class="fil60" points="7819,2027 7755,1029 7691,1035 "/>
    <polygon id="53" class="fil59" points="7819,2027 7883,3025 7947,3019 "/>
    <polygon id="54" class="fil58" points="7819,2027 7691,1035 7628,1045 "/>
    <polygon id="55" class="fil57" points="7819,2027 7947,3019 8010,3008 "/>
    <polygon id="56" class="fil56" points="7819,2027 7628,1045 7565,1059 "/>
    <polygon id="57" class="fil55" points="7819,2027 8010,3008 8073,2994 "/>
    <polygon id="58" class="fil54" points="7819,2027 7565,1059 7504,1078 "/>
    <polygon id="59" class="fil53" points="7819,2027 8073,2994 8134,2976 "/>
    <polygon id="60" class="fil52" points="7819,2027 7504,1078 7444,1100 "/>
    <polygon id="61" class="fil51" points="7819,2027 8134,2976 8194,2954 "/>
    <polygon id="62" class="fil50" points="7819,2027 7444,1100 7385,1126 "/>
    <polygon id="63" class="fil49" points="7819,2027 8194,2954 8253,2928 "/>
    <polygon id="64" class="fil48" points="7819,2027 7385,1126 7328,1155 "/>
    <polygon id="65" class="fil47" points="7819,2027 8253,2928 8310,2898 "/>
    <polygon id="66" class="fil46" points="7819,2027 7328,1155 7273,1189 "/>
    <polygon id="67" class="fil45" points="7819,2027 8310,2898 8365,2865 "/>
    <polygon id="68" class="fil44" points="7819,2027 7273,1189 7221,1225 "/>
    <polygon id="69" class="fil43" points="7819,2027 8365,2865 8417,2828 "/>
    <polygon id="70" class="fil42" points="7819,2027 7221,1225 7171,1265 "/>
    <polygon id="71" class="fil41" points="7819,2027 8417,2828 8467,2788 "/>
    <polygon id="72" class="fil40" points="7819,2027 7171,1265 7123,1308 "/>
    <polygon id="73" class="fil39" points="7819,2027 8467,2788 8515,2745 "/>
    <polygon id="74" class="fil38" points="7819,2027 7123,1308 7079,1354 "/>
    <polygon id="75" class="fil37" points="7819,2027 8515,2745 8559,2699 "/>
    <polygon id="76" class="fil36" points="7819,2027 7079,1354 7037,1403 "/>
    <polygon id="77" class="fil35" points="7819,2027 8559,2699 8601,2650 "/>
    <polygon id="78" class="fil34" points="7819,2027 7037,1403 6999,1455 "/>
    <polygon id="79" class="fil33" points="7819,2027 8601,2650 8639,2599 "/>
    <polygon id="80" class="fil32" points="7819,2027 6999,1455 6964,1508 "/>
    <polygon id="81" class="fil31" points="7819,2027 8639,2599 8674,2545 "/>
    <polygon id="82" class="fil30" points="7819,2027 6964,1508 6932,1564 "/>
    <polygon id="83" class="fil29" points="7819,2027 8674,2545 8706,2489 "/>
    <polygon id="84" class="fil28" points="7819,2027 6932,1564 6904,1622 "/>
    <polygon id="85" class="fil27" points="7819,2027 8706,2489 8733,2432 "/>
    <polygon id="86" class="fil26" points="7819,2027 6904,1622 6880,1681 "/>
    <polygon id="87" class="fil25" points="7819,2027 8733,2432 8757,2372 "/>
    <polygon id="88" class="fil24" points="7819,2027 6880,1681 6860,1742 "/>
    <polygon id="89" class="fil23" points="7819,2027 8757,2372 8778,2311 "/>
    <polygon id="90" class="fil22" points="7819,2027 6860,1742 6844,1804 "/>
    <polygon id="91" class="fil21" points="7819,2027 8778,2311 8794,2249 "/>
    <polygon id="92" class="fil20" points="7819,2027 6844,1804 6832,1867 "/>
    <polygon id="93" class="fil19" points="7819,2027 8794,2249 8806,2186 "/>
    <polygon id="94" class="fil18" points="7819,2027 6832,1867 6823,1931 "/>
    <polygon id="95" class="fil17" points="7819,2027 8806,2186 8814,2123 "/>
    <polygon id="96" class="fil16" points="7819,2027 6823,1931 6819,1995 "/>
    <polygon id="97" class="fil15" points="7819,2027 8814,2123 8819,2059 "/>
   </g>
   <path id="98" class="fil63 str1" d="M7505 1917c94,119 -3,164 162,224 30,10 58,1 82,16 84,52 103,45 117,169 8,63 19,95 88,104 26,4 48,-15 74,5 40,32 87,135 112,170 16,8 38,38 34,58 0,1 -1,2 -1,4 4,3 128,187 130,188 29,-17 76,-14 76,-83l-22 -66c-18,-14 -13,-15 -37,-30 -5,-3 -18,-11 -20,-12 -16,-12 -5,8 -14,-14 -31,-5 -52,-31 -69,-52 -16,-21 -41,-47 -39,-75 -6,-4 -46,-61 -52,-71 -10,-16 -49,-53 -50,-61 -31,-11 -23,-14 -44,-32 -26,-2 -67,3 -87,-6 -12,-15 -15,-75 -17,-97 -31,-72 -79,-128 -149,-158 -26,-3 -25,-7 -45,-9 -17,-2 -31,0 -47,-2l-9 -14c-42,-8 -42,-12 -50,-54 -3,-15 -4,-34 -8,-46 -8,-19 -9,-15 -15,-39 -51,-43 -69,-124 -168,-122 -28,13 3,18 -44,18 -56,-1 -4,-10 -44,-15 -14,26 9,34 -21,43 -11,-14 -14,-39 3,-52 16,-13 29,0 43,-1 12,-17 8,-25 24,-41 13,-14 24,-12 36,-30 52,-81 33,-114 32,-157 -1,-21 3,-45 2,-66 -4,-77 -45,-77 -49,-86 -4,-24 7,-58 -2,-93 -6,-25 -23,-62 -8,-84 1,-19 4,-17 -1,-28 -10,-21 5,-5 -17,-17 -16,-8 -27,-2 -38,3l-10 7 8 98c6,18 11,45 12,64 2,33 -11,23 -28,30 16,33 17,1 17,29 0,26 -5,-9 -9,28l13 11c20,14 21,34 35,57 19,28 19,39 16,73 -8,104 -39,139 -132,172 -12,34 -21,32 -14,75 5,28 18,54 20,70 0,0 4,2 8,3 4,1 8,3 8,3 34,-6 8,20 43,0 28,-16 15,-15 47,-7 18,-29 10,-45 60,-36 22,4 44,17 58,34z"/>
  </g>
  <path class="fil11 str1" d="M7928 2256c2,22 5,82 17,97 20,9 61,4 87,6 21,18 13,21 44,32 12,3 4,-2 8,-15 -47,-3 -34,-22 -62,-48 -41,9 -1,7 -29,17l-1 -35c-35,-18 -4,-7 -29,-31 -9,-8 -25,-17 -35,-23z"/>
  <path class="fil11 str1" d="M8177 3379c-2,53 -21,83 -8,136 9,34 31,84 49,112l39 -46 2 27c26,5 41,16 64,32 20,-10 11,11 15,-22 -2,52 -5,12 63,27 9,-8 -5,-8 7,-11 15,-2 2,0 14,8 19,12 29,5 32,5 -19,23 -14,2 -22,30 82,-32 64,-114 68,-195 0,-18 7,-40 7,-57 0,-13 -8,-25 -11,-47 -4,-25 -28,-67 -40,-90 -1,4 -50,113 1,75 -27,21 -9,24 -7,54 -10,-23 5,-20 -20,-33 11,55 3,111 2,165 0,19 -16,51 -25,62 -30,35 -35,6 -43,-14 -17,-20 -11,-28 -11,-58 -16,11 -18,22 -26,35 -10,18 -9,8 -30,37 -12,-12 -39,-39 -45,-50 1,-16 1,-8 -9,-25 -10,-21 -9,-46 -11,-71 -1,-16 10,-11 9,-56 -2,-44 31,-81 39,-121 -17,11 -30,33 -38,49 -16,-13 -28,-24 -36,-9 3,-26 19,-45 21,-65 3,-16 5,-50 8,-63 12,-59 0,-156 6,-163 41,-34 72,28 96,36 -3,-32 5,-10 13,-36 -15,-13 -7,-5 -14,-6 -12,-3 5,3 -11,-3 -1,0 -2,-2 -4,-2 -2,0 -3,-1 -4,-2 -37,-6 -42,-45 -84,-29 -24,27 -8,27 -3,58 4,23 0,184 -15,198l-38 128z"/>
  <path class="fil9 str1" d="M8376 3475c-20,28 -5,5 -27,19 2,26 9,19 14,44 2,15 1,43 1,59 8,20 13,49 43,14 9,-11 25,-43 25,-62 1,-54 9,-110 -2,-165l-7 -18 -38 3c28,18 5,86 -9,106z"/>
  <path class="fil9 str1" d="M8505 3886c-29,-1 -31,13 -36,42 -38,2 -40,16 -30,18 -37,0 -69,11 -88,-1 -17,-11 -2,-30 -33,-13 -14,8 -16,19 -18,33 -17,-31 -53,-16 -53,7 9,15 8,4 30,8 17,4 15,7 36,8 37,3 204,3 221,-26 6,-32 5,-63 -29,-76z"/>
  <path class="fil11 str1" d="M8232 3465c-1,-16 10,-11 9,-56 -2,-44 31,-81 39,-121 -17,11 -30,33 -38,49 -16,-13 -28,-24 -36,-9 3,-26 19,-45 21,-65 3,-16 5,-50 8,-63 12,-59 0,-156 6,-163 41,-34 72,28 96,36 -3,-32 5,-10 13,-36 -15,-13 -7,-5 -14,-6 -12,-3 5,3 -11,-3 -1,0 -2,-2 -4,-2 -2,0 -3,-1 -4,-2 -37,-6 -42,-45 -84,-29 -24,27 -8,27 -3,58 4,23 0,184 -15,198l-38 128c-2,53 -21,83 -8,136 9,34 31,84 49,112l39 -46 2 27c26,5 41,16 64,32 20,-10 11,11 15,-22 -2,52 -5,12 63,27 9,-8 -5,-8 7,-11 15,-2 2,0 14,8 19,12 29,5 32,5 -19,23 -14,2 -22,30 82,-32 64,-114 68,-195 0,-18 7,-40 7,-57 0,-13 -8,-25 -11,-47 -4,-25 -28,-67 -40,-90 -1,4 -50,113 1,75 -27,21 -9,24 -7,54 -10,-23 5,-20 -20,-33 11,55 3,111 2,165 0,19 -16,51 -25,62 -30,35 -35,6 -43,-14 -17,-20 -11,-28 -11,-58 -16,11 -18,22 -26,35 -10,18 -9,8 -30,37 -12,-12 -39,-39 -45,-50 1,-16 1,-8 -9,-25 -10,-21 -9,-46 -11,-71z"/>
  <path class="fil11 str1" d="M8232 3465c-1,-16 10,-11 9,-56 -2,-44 31,-81 39,-121 -17,11 -30,33 -38,49 -16,-13 -28,-24 -36,-9 3,-26 19,-45 21,-65 3,-16 5,-50 8,-63 12,-59 0,-156 6,-163 41,-34 72,28 96,36 -3,-32 5,-10 13,-36 -15,-13 -7,-5 -14,-6 -12,-3 5,3 -11,-3 -1,0 -2,-2 -4,-2 -2,0 -3,-1 -4,-2 -37,-6 -42,-45 -84,-29 -24,27 -8,27 -3,58 4,23 0,184 -15,198l-38 128c-2,53 -21,83 -8,136 9,34 31,84 49,112l39 -46 2 27c26,5 41,16 64,32 20,-10 11,11 15,-22 -2,52 -5,12 63,27 9,-8 -5,-8 7,-11 15,-2 2,0 14,8 19,12 29,5 32,5 -19,23 -14,2 -22,30 82,-32 64,-114 68,-195 0,-18 7,-40 7,-57 0,-13 -8,-25 -11,-47 -4,-25 -28,-67 -40,-90 -1,4 -50,113 1,75 -27,21 -9,24 -7,54 -10,-23 5,-20 -20,-33 11,55 3,111 2,165 0,19 -16,51 -25,62 -30,35 -35,6 -43,-14 -17,-20 -11,-28 -11,-58 -16,11 -18,22 -26,35 -10,18 -9,8 -30,37 -12,-12 -39,-39 -45,-50 1,-16 1,-8 -9,-25 -10,-21 -9,-46 -11,-71z"/>
  <path class="fil1 str1" d="M8232 3465c-1,-16 10,-11 9,-56 -2,-44 31,-81 39,-121 -17,11 -30,33 -38,49 -16,-13 -28,-24 -36,-9 3,-26 19,-45 21,-65 3,-16 5,-50 8,-63 12,-59 0,-156 6,-163 41,-34 72,28 96,36 -3,-32 5,-10 13,-36 -15,-13 -7,-5 -14,-6 -12,-3 5,3 -11,-3 -1,0 -2,-2 -4,-2 -2,0 -3,-1 -4,-2 -37,-6 -42,-45 -84,-29 -24,27 -8,27 -3,58 4,23 0,184 -15,198l-38 128c-2,53 -21,83 -8,136 9,34 31,84 49,112l39 -46 2 27c26,5 41,16 64,32 20,-10 11,11 15,-22 -2,52 -5,12 63,27 9,-8 -5,-8 7,-11 15,-2 2,0 14,8 19,12 29,5 32,5 -19,23 -14,2 -22,30 82,-32 64,-114 68,-195 0,-18 7,-40 7,-57 0,-13 -8,-25 -11,-47 -4,-25 -28,-67 -40,-90 -1,4 -50,113 1,75 -27,21 -9,24 -7,54 -10,-23 5,-20 -20,-33 11,55 3,111 2,165 0,19 -16,51 -25,62 -30,35 -35,6 -43,-14 -17,-20 -11,-28 -11,-58 -16,11 -18,22 -26,35 -10,18 -9,8 -30,37 -12,-12 -39,-39 -45,-50 1,-16 1,-8 -9,-25 -10,-21 -9,-46 -11,-71z"/>
  <path class="fil1 str1" d="M8241 3409c1,45 -10,40 -9,56 2,25 1,50 11,71 0,-30 -10,-45 4,-72 13,13 18,19 8,32 36,-1 26,13 45,42l-48 23c6,11 33,38 45,50 21,-29 20,-19 30,-37 8,-13 10,-24 26,-35 0,30 -6,38 11,58 0,-16 1,-44 -1,-59 -5,-25 -12,-18 -14,-44 22,-14 7,9 27,-19 14,-20 37,-88 9,-106l38 -3 -55 -109c-19,-23 -5,-11 -19,-29l-15 6c3,28 13,17 5,49l-45 -7 6 -108 20 8 -19 -28c-23,12 -7,106 -21,140 -8,40 -41,77 -39,121zm63 39c-14,-7 -43,0 -45,-54 0,-31 21,-75 31,-83 14,20 -4,17 24,28 12,5 25,6 38,11 -1,27 -6,44 -22,62 -35,39 17,15 -6,54 -25,-13 4,-6 -20,-18z"/>
  <path class="fil1 str1" d="M8241 3409c1,45 -10,40 -9,56 2,25 1,50 11,71 0,-30 -10,-45 4,-72 13,13 18,19 8,32 36,-1 26,13 45,42l-48 23c6,11 33,38 45,50 21,-29 20,-19 30,-37 8,-13 10,-24 26,-35 0,30 -6,38 11,58 0,-16 1,-44 -1,-59 -5,-25 -12,-18 -14,-44 22,-14 7,9 27,-19 14,-20 37,-88 9,-106l38 -3 -55 -109c-19,-23 -5,-11 -19,-29l-15 6c3,28 13,17 5,49l-45 -7 6 -108 20 8 -19 -28c-23,12 -7,106 -21,140 -8,40 -41,77 -39,121zm63 39c-14,-7 -43,0 -45,-54 0,-31 21,-75 31,-83 14,20 -4,17 24,28 12,5 25,6 38,11 -1,27 -6,44 -22,62 -35,39 17,15 -6,54 -25,-13 4,-6 -20,-18z"/>
  <path class="fil64 str1" d="M8241 3409c1,45 -10,40 -9,56 2,25 1,50 11,71 0,-30 -10,-45 4,-72 13,13 18,19 8,32 36,-1 26,13 45,42l-48 23c6,11 33,38 45,50 21,-29 20,-19 30,-37 8,-13 10,-24 26,-35 0,30 -6,38 11,58 0,-16 1,-44 -1,-59 -5,-25 -12,-18 -14,-44 22,-14 7,9 27,-19 14,-20 37,-88 9,-106l38 -3 -55 -109c-19,-23 -5,-11 -19,-29l-15 6c3,28 13,17 5,49l-45 -7 6 -108 20 8 -19 -28c-23,12 -7,106 -21,140 -8,40 -41,77 -39,121zm63 39c-14,-7 -43,0 -45,-54 0,-31 21,-75 31,-83 14,20 -4,17 24,28 12,5 25,6 38,11 -1,27 -6,44 -22,62 -35,39 17,15 -6,54 -25,-13 4,-6 -20,-18z"/>
  <path class="fil1 str1" d="M8232 3465c-1,-16 10,-11 9,-56 -2,-44 31,-81 39,-121 -17,11 -30,33 -38,49 -16,-13 -28,-24 -36,-9 3,-26 19,-45 21,-65 3,-16 5,-50 8,-63 12,-59 0,-156 6,-163 41,-34 72,28 96,36 -3,-32 5,-10 13,-36 -15,-13 -7,-5 -14,-6 -12,-3 5,3 -11,-3 -1,0 -2,-2 -4,-2 -2,0 -3,-1 -4,-2 -37,-6 -42,-45 -84,-29 -24,27 -8,27 -3,58 4,23 0,184 -15,198l-38 128c-2,53 -21,83 -8,136 9,34 31,84 49,112l39 -46 2 27c26,5 41,16 64,32 20,-10 11,11 15,-22 -2,52 -5,12 63,27 9,-8 -5,-8 7,-11 15,-2 2,0 14,8 19,12 29,5 32,5 -19,23 -14,2 -22,30 82,-32 64,-114 68,-195 0,-18 7,-40 7,-57 0,-13 -8,-25 -11,-47 -4,-25 -28,-67 -40,-90 -1,4 -50,113 1,75 -27,21 -9,24 -7,54 -10,-23 5,-20 -20,-33 11,55 3,111 2,165 0,19 -16,51 -25,62 -30,35 -35,6 -43,-14 -17,-20 -11,-28 -11,-58 -16,11 -18,22 -26,35 -10,18 -9,8 -30,37 -12,-12 -39,-39 -45,-50 1,-16 1,-8 -9,-25 -10,-21 -9,-46 -11,-71z"/>
  <path class="fil1 str1" d="M8254 3735c-12,7 3,-6 -19,6 -1,14 1,45 5,58 8,27 7,19 25,24l-6 13c34,-6 25,-11 39,-14 14,-2 18,11 24,-20 -17,6 -16,10 -31,5 -15,-28 -4,-89 -33,-107 -12,7 -15,3 -13,18 2,17 5,-6 9,17z"/>
  <path class="fil63" d="M3578 3667c-66,-29 -28,-261 285,-161 64,21 185,164 -65,166 -51,0 -129,9 -220,-5z"/>
  <path class="fil63" d="M3616 2839c-43,90 -120,467 36,519 52,17 89,34 149,21 124,-25 22,-298 4,-393 -7,-41 -63,-276 -122,-262 -23,6 -52,83 -67,115z"/>
  <path class="fil63" d="M3641 3354c28,8 26,109 -12,142 -1,0 -12,10 -12,10"/>
  <path class="fil63" d="M3848 3345c2,10 -16,49 -10,96 2,15 44,72 44,74"/>
  <path class="fil65" d="M1817 749c4,-154 106,-339 290,-480 23,-18 71,183 95,175 23,-8 25,-14 71,-45 50,-33 -85,-173 -74,-189 31,-44 154,-78 157,-74 36,54 40,192 85,177 54,-18 45,-23 55,-32 41,-37 -72,-168 -17,-184 30,-9 69,-25 128,-26 9,0 26,177 38,180 8,2 73,2 82,-22 11,-28 -17,-165 -13,-165 62,-2 50,-4 142,10 30,5 -11,191 20,197 56,10 29,8 78,17 29,5 -10,-156 22,-180 67,-6 172,140 185,203 24,121 44,196 -43,312 -59,15 -76,-151 -115,-128 -18,11 -49,48 -68,73 -21,27 134,110 115,143 -13,24 -50,52 -110,104 0,0 -92,-136 -98,-134 -8,3 -25,-3 -68,42 -15,16 65,89 69,160 1,15 -144,64 -147,76 -4,20 -52,-169 -63,-176 -37,-21 -42,23 -89,33 -28,6 31,95 70,175 1,1 -147,72 -198,49 -20,-9 -29,-73 -33,-125 -11,-115 25,-55 -76,-74 -36,-6 -4,205 -21,209 -90,23 -348,-103 -352,-98 -264,106 -1721,686 -1775,690 -89,6 -156,-99 -96,-197 7,-12 1797,-684 1754,-696z"/>
  <path class="fil63 str5" d="M2542 79c71,383 76,470 217,848"/>
  <path class="fil63 str5" d="M2804 66c-2,273 46,490 194,699"/>
  <path class="fil63 str5" d="M2272 162c122,181 213,639 223,871"/>
  <path class="fil63 str5" d="M2048 318c120,134 230,544 165,730"/>
  <polyline class="fil63" points="1760,2477 2460,1774 3283,2423 "/>
  <path class="fil63" d="M2673 1108c64,3 174,486 236,578 218,323 328,414 680,631 90,56 274,339 76,366 -36,5 -70,-64 -54,-84"/>
  <path class="fil63" d="M2777 1318c36,16 234,395 509,481 92,29 164,157 189,176 146,115 176,348 87,326"/>
  <path class="fil63" d="M2390 230c6,-2 1,-106 79,-69 2,1 7,7 4,-2"/>
  <path class="fil63" d="M2621 139c18,-32 51,-79 96,-64 3,1 -6,-4 -4,-1"/>
  <path class="fil63" d="M2181 419c33,-23 -47,-51 72,-117"/>
  <path class="fil63" d="M2867 147c62,-6 72,17 102,22l-7 2"/>
  <path class="fil63" d="M2291 991c40,-44 6,-56 82,-97l8 -8"/>
  <polygon class="fil65" points="2059,1983 1351,2686 1447,2768 1760,2477 2460,1774 3157,2323 3253,2399 3568,2648 3611,2599 3654,2549 2887,1932 2458,1587 "/>
  <polygon class="fil65" points="1857,2371 1760,2454 1759,3677 3252,3663 3253,2387 3157,2323 3147,3590 1858,3595 "/>
  <path class="fil11" d="M2291 991c40,-44 6,-56 82,-97l8 -8c-3,-75 17,-27 -74,-45 -24,-4 -18,86 -16,150z"/>
  <path class="fil11" d="M2202 444c23,-8 25,-14 71,-45 25,-16 5,-57 -20,-97 -119,66 -39,94 -72,117 8,17 15,27 21,25z"/>
  <path class="fil11" d="M2645 251c8,2 73,2 82,-22 9,-23 -9,-123 -13,-155 -43,-12 -76,34 -93,65 8,50 17,110 24,112z"/>
  <path class="fil63" d="M2635 222c197,48 124,-91 124,155 0,69 101,293 73,312 -18,11 -42,-1 -57,29 -10,20 -64,-207 -84,-236 -21,-29 -99,-271 -56,-260z"/>
  <path class="fil63" d="M2430 313c35,-2 82,-118 123,68 17,79 -7,120 24,241 7,25 56,141 19,147 -96,14 -25,-31 -67,-158 -27,-83 -84,-258 -99,-298z"/>
  <path class="fil63" d="M2273 414c33,-12 31,-85 66,66 8,35 75,390 11,372 -106,-29 -44,-25 -69,-133 -57,-256 -174,-249 -8,-305z"/>
  <path class="fil63" d="M2887 272c100,40 64,17 81,32 57,50 15,142 41,242 12,2 -45,36 -83,-81 -31,-97 -83,-210 -39,-193z"/>
  <path class="fil11" d="M2501 276c15,-25 -12,-76 -28,-117 3,9 -2,3 -4,2 -78,-37 -73,67 -79,69 11,41 21,78 40,83 21,-1 45,-42 71,-37z"/>
  <path class="fil11" d="M2867 147c-3,54 -9,120 9,124 1,0 1,0 1,0 3,-1 6,0 10,1 42,8 21,7 67,16 18,3 9,-63 8,-117 0,-1 0,-2 0,-3 -25,-7 -38,-27 -95,-21z"/>
  <path class="fil1" d="M2577 622c-31,-121 -7,-162 -24,-241 -17,-76 -34,-102 -52,-105 -1,2 -3,4 -5,5 -10,9 -1,14 -55,32 -4,1 -8,1 -11,0 15,40 72,215 99,298 42,127 -29,172 67,158 37,-6 -12,-122 -19,-147z"/>
  <path class="fil1" d="M2691 482c20,29 74,256 84,236 8,-15 18,-20 29,-22 16,-11 26,-13 32,-14 11,-41 -77,-241 -77,-305 0,-195 46,-148 -33,-144 -14,20 -73,20 -81,18 -3,-1 -6,-12 -10,-29 -43,-11 35,231 56,260z"/>
  <path class="fil1" d="M2926 465c11,35 24,56 36,69 14,-16 28,-30 39,-38 -7,-80 15,-150 -33,-192 -17,-15 19,8 -81,-32 -3,0 -6,-1 -10,-1 -25,3 20,105 49,194z"/>
  <path class="fil1" d="M2367 844c32,-54 -21,-333 -28,-364 -35,-151 -33,-78 -66,-66 -17,5 -31,10 -42,15 -10,7 -16,11 -29,15 0,0 0,0 -1,0 -47,35 35,74 80,275 22,96 -24,104 39,125 24,3 39,1 47,0z"/>
  <path class="fil9" d="M2367 844c32,-54 -21,-333 -28,-364 -35,-151 -33,-78 -66,-66 -17,5 -31,10 -42,15 -10,7 -16,11 -29,15 0,0 0,0 -1,0 -47,35 35,74 80,275 22,96 -24,104 39,125 24,3 39,1 47,0z"/>
  <path class="fil9" d="M2430 313c15,40 72,215 99,298 42,127 -29,172 67,158 37,-6 -12,-122 -19,-147 -31,-121 -7,-162 -24,-241 -17,-76 -34,-102 -52,-105 -1,2 -3,4 -5,5 -10,9 -1,14 -55,32 -4,1 -8,1 -11,0z"/>
  <path class="fil9" d="M2635 222c-43,-11 35,231 56,260 20,29 74,256 84,236 8,-15 18,-20 29,-22 16,-11 26,-13 32,-14 11,-41 -77,-241 -77,-305 0,-195 46,-148 -33,-144 -14,20 -73,20 -81,18 -3,-1 -6,-12 -10,-29z"/>
  <path class="fil9" d="M2877 271c-25,3 20,105 49,194 11,35 24,56 36,69 14,-16 28,-30 39,-38 -7,-80 15,-150 -33,-192 -17,-15 19,8 -81,-32l-10 -1z"/>
  <path class="fil63" d="M2979 1657c41,107 360,204 459,304 61,62 62,107 74,121 30,32 35,125 -90,83 -42,-14 -278,-199 -297,-238 -43,-89 -112,-180 -146,-270z"/>
  <path class="fil63" d="M3693 2775c26,65 86,181 101,286 18,126 43,261 -136,251 -60,-3 -26,-213 -8,-256 34,-81 39,-186 39,-274l4 -7z"/>
  <path class="fil63" d="M3896 3564c54,43 0,86 -55,85 -38,-1 -157,34 -207,-4 -49,-37 -38,-82 15,-109 98,-50 162,-38 247,28z"/>
  <path class="fil9" d="M3125 1927c19,39 255,224 297,238 125,42 120,-51 90,-83 -12,-14 -13,-59 -74,-121 -99,-100 -418,-197 -459,-304 34,90 103,181 146,270z"/>
  <path class="fil9" d="M3689 2782c0,88 -5,193 -39,274 -18,43 -52,253 8,256 179,10 154,-125 136,-251 -15,-105 -75,-221 -101,-286l-4 7z"/>
  <path class="fil9" d="M3896 3564c-85,-66 -149,-78 -247,-28 -53,27 -64,72 -15,109 50,38 169,3 207,4 55,1 109,-42 55,-85z"/>
  <path class="fil11" d="M2909 1686c213,315 323,410 655,616 86,17 56,-213 -89,-327 -25,-19 -97,-147 -189,-176 -275,-86 -473,-465 -509,-481 48,144 98,317 132,368zm216 241c-43,-89 -112,-180 -146,-270 41,107 360,204 459,304 61,62 62,107 74,121 30,32 35,125 -90,83 -42,-14 -278,-199 -297,-238z"/>
  <path class="fil11" d="M3794 3061c18,126 43,261 -136,251 -60,-3 -26,-213 -8,-256 34,-81 39,-186 39,-274l4 -7c26,65 86,181 101,286zm-178 -222c-42,88 -116,449 25,515 1,0 2,0 3,1 3,1 5,2 8,3 52,17 89,34 149,21 22,-4 37,-16 47,-34 44,-83 -28,-281 -43,-359 -7,-41 -63,-276 -122,-262 -23,6 -52,83 -67,115z"/>
  <path class="fil11" d="M3801 3379c-60,13 -97,-4 -149,-21 -3,-1 -5,-2 -8,-3 25,15 22,109 -15,141 -1,0 -12,10 -12,10 49,-28 128,-37 246,0 6,2 12,5 19,9 0,-2 -42,-59 -44,-74 -6,-47 12,-86 10,-96 -10,18 -25,30 -47,34z"/>
  <path class="fil11" d="M3863 3506c-118,-37 -197,-28 -246,0 -81,46 -80,143 -39,161 91,14 169,5 220,5 227,-2 148,-120 84,-157 -7,-4 -13,-7 -19,-9zm-229 139c-49,-37 -38,-82 15,-109 98,-50 162,-38 247,28 54,43 0,86 -55,85 -38,-1 -157,34 -207,-4z"/>
  <path class="fil66" d="M2887 1932l767 617 -43 50c-16,20 18,89 54,84 198,-27 14,-310 -76,-366 -8,-5 -16,-10 -25,-15 -332,-206 -442,-301 -655,-616 -34,-51 -84,-224 -132,-368 -38,-113 -75,-209 -104,-210 1,37 4,81 11,138 27,224 61,456 197,646 7,10 6,22 6,40z"/>
  <path class="fil11" d="M2430 313c21,-1 45,-42 71,-37 15,-25 -12,-76 -28,-117 3,9 -2,3 -4,2 -78,-37 -73,67 -79,69 11,41 21,78 40,83z"/>
  <path class="fil11" d="M2496 281c-10,9 -1,14 -55,32 -4,1 -8,1 -11,0 15,40 72,215 99,298 42,127 -29,172 67,158 37,-6 -12,-122 -19,-147 -31,-121 -7,-162 -24,-241 -17,-76 -34,-102 -52,-105 -1,2 -3,4 -5,5z"/>
  <path class="fil11" d="M2320 844c24,3 39,1 47,0 -8,1 -23,3 -47,0zm19 -364c-35,-151 -33,-78 -66,-66 -17,5 -31,10 -42,15 -10,7 -16,11 -29,15 0,0 0,0 -1,0 -47,35 35,74 80,275 22,96 -24,104 39,125 24,3 39,1 47,0 32,-54 -21,-333 -28,-364z"/>
  <path class="fil11" d="M2635 222c-43,-11 35,231 56,260 20,29 74,256 84,236 8,-15 18,-20 29,-22 16,-11 26,-13 32,-14 11,-41 -77,-241 -77,-305 0,-195 46,-148 -33,-144 -14,20 -73,20 -81,18 -3,-1 -6,-12 -10,-29z"/>
  <path class="fil11" d="M2877 271c-25,3 20,105 49,194 11,35 24,56 36,69 14,-16 28,-30 39,-38 -7,-80 15,-150 -33,-192 -17,-15 19,8 -81,-32l-10 -1z"/>
  <path class="fil9" d="M2381 886c-2,-48 6,-45 -14,-42 -4,7 -9,10 -17,8 -12,-3 -22,-6 -30,-8 -4,-1 -8,-2 -13,-3 -24,-4 -18,86 -16,150 40,-44 6,-56 82,-97l8 -8z"/>
  <path class="fil9" d="M2231 429c9,-6 21,-15 42,-30 25,-16 5,-57 -20,-97 -119,66 -39,94 -72,117 8,16 15,26 20,25 7,-5 17,-10 30,-15z"/>
  <path class="fil9" d="M2390 230c11,41 21,78 40,83 21,-1 45,-42 71,-37 15,-25 -12,-76 -28,-117 3,9 -2,3 -4,2 -78,-37 -73,67 -79,69z"/>
  <path class="fil9" d="M2621 139c5,29 10,61 14,83 41,10 70,12 91,11 0,-1 1,-3 1,-4 9,-23 -9,-123 -13,-155 -43,-12 -76,34 -93,65z"/>
  <path class="fil9" d="M2867 147c-3,54 -9,120 9,124 1,0 1,0 1,0 3,-1 6,0 10,1 42,8 21,7 67,16 18,3 9,-63 8,-117 0,-1 0,-2 0,-3 -25,-7 -38,-27 -95,-21z"/>
  <path class="fil63" d="M2430 1044c-6,119 -29,172 -38,288 -9,108 -139,298 -216,366 -86,77 -149,82 -209,186 -23,41 -44,136 37,139 14,1 12,-8 24,-9"/>
  <path class="fil63" d="M2698 957c-44,98 -23,444 34,524 15,21 162,384 164,417 1,13 16,48 -14,30"/>
  <path class="fil63" d="M2472 1115c6,6 122,-29 156,-62 5,-5 -24,274 27,354 7,11 78,334 62,318 -81,-76 -122,-190 -280,-174 -32,3 -98,104 -155,140 -52,31 -52,75 -130,153 -80,79 -262,215 -120,2 13,-19 196,-123 238,-209 35,-75 48,-62 66,-94 36,-68 62,-98 69,-181 0,-8 62,-165 62,-239 0,-12 4,-9 5,-8z"/>
  <path class="fil63" d="M2825 823c14,-24 3,-31 40,-68 3,-3 8,-12 14,-14 1,-4 1,-3 6,-6"/>
  <path class="fil63" d="M3007 650c2,-14 -8,-26 0,-41 9,-15 22,-63 39,-68"/>
  <path class="fil9" d="M2885 735c-21,-29 -40,-55 -43,-54 -1,1 -3,1 -6,1 0,3 -2,5 -4,7 -8,5 -18,5 -28,7 -9,6 -18,15 -30,27 -11,11 27,52 51,100 14,-24 3,-31 40,-68 3,-3 8,-12 14,-14 1,-4 1,-3 6,-6z"/>
  <path class="fil9" d="M2935 568c-12,16 34,50 72,82 2,-14 -8,-26 0,-41 9,-15 22,-63 39,-68 -13,-30 -26,-56 -43,-46 0,0 -1,1 -2,1 1,17 4,33 8,50 8,2 -17,19 -47,-12 -10,12 -19,24 -27,34z"/>
  <path class="fil9" d="M2962 534c30,31 55,14 47,12 -4,-17 -7,-33 -8,-50 -11,8 -25,22 -39,38z"/>
  <path class="fil9" d="M2467 1123c0,74 -62,231 -62,239 -7,83 -33,113 -69,181 -18,32 -31,19 -66,94 -42,86 -225,190 -238,209 -142,213 40,77 120,-2 78,-78 78,-122 130,-153 57,-36 123,-137 155,-140 158,-16 199,98 280,174 16,16 -55,-307 -62,-318 -51,-80 -22,-359 -27,-354 -34,33 -150,68 -156,62 -1,-1 -5,-4 -5,8z"/>
  <path class="fil1" d="M2282 1691c-52,31 -52,75 -130,153 -80,79 -262,215 -120,2 13,-19 196,-123 238,-209 35,-75 48,-62 66,-94 36,-68 62,-98 69,-181 0,-8 62,-165 62,-239 0,-12 4,-9 5,-8 6,6 122,-29 156,-62 5,-5 -24,274 27,354 7,11 78,334 62,318 -81,-76 -122,-190 -280,-174 -32,3 -98,104 -155,140zm391 -583c1,0 2,0 2,0 0,0 -1,0 -2,0zm-281 224c-9,108 -141,295 -216,366 -83,81 -136,97 -209,186 -29,36 -44,136 37,139 14,1 12,-8 24,-9l430 -427 424 341c2,1 4,2 5,3 0,-18 1,-29 -6,-39 -98,-137 -143,-296 -171,-459 -22,-70 -35,-185 -35,-288 0,-13 0,-25 0,-37 2,-64 9,-120 23,-151 -1,1 -2,2 -2,2 -4,20 -52,-169 -63,-176 -37,-21 -42,23 -89,33 -28,6 31,95 70,175 1,1 -125,62 -184,53 -6,119 -29,172 -38,288z"/>
  <path class="fil67" d="M2421 1148c0,-112 -30,-113 -30,-199 0,-92 -105,33 -102,108 8,215 -10,263 -93,451 -56,126 -241,249 -286,380 -25,71 -182,96 -252,217 -66,113 -173,436 21,250 24,-23 198,-160 199,-174 5,-56 222,-127 121,-162 -75,-26 -37,-170 34,-213 150,-91 174,-93 274,-252 85,-135 114,-245 114,-406z"/>
  <path class="fil1" d="M2033 1806c-4,2 -8,5 -12,8 -12,11 -22,23 -33,38 -4,7 -8,14 -12,22 39,-47 73,-72 110,-100 -16,9 -34,20 -53,32z"/>
  <path class="fil1" d="M2398 1012c9,33 21,58 23,125 4,-27 7,-57 9,-93 -5,-1 -10,-2 -14,-4 -7,-3 -13,-14 -18,-28z"/>
  <path class="fil1" d="M2291 1035c11,-61 70,-134 92,-115 0,-2 0,-3 0,-5 -1,-11 -2,-21 -2,-29l-8 8c-76,41 -42,53 -82,97 0,17 1,33 0,44z"/>
  <path class="fil63" d="M1777 2037c-60,-13 -203,316 -85,243 0,-4 52,-42 62,-75 15,-48 51,-67 32,-156 -1,-7 -12,-12 -9,-12z"/>
  <path class="fil63" d="M2329 1156c1,31 -66,312 -99,337 -4,3 -115,185 -28,111 81,-69 202,-322 202,-432 0,-47 9,-228 -77,-97 -7,11 -6,71 2,81z"/>
  <path class="fil9" d="M1754 2205c15,-48 51,-67 32,-156 -1,-7 -12,-12 -9,-12 -60,-13 -203,316 -85,243 0,-4 52,-42 62,-75z"/>
  <path class="fil9" d="M2230 1493c-4,3 -115,185 -28,111 81,-69 202,-322 202,-432 0,-47 9,-228 -77,-97 -7,11 -6,71 2,81 1,31 -66,312 -99,337z"/>
  <path class="fil63" d="M3756 3067c53,55 -41,160 -42,185 -1,22 51,36 64,-11 7,-25 34,-49 13,-107 -20,-53 2,-29 -35,-67z"/>
  <path class="fil68" d="M3756 3067c53,55 -41,160 -42,185 -1,22 51,36 64,-11 7,-25 34,-49 13,-107 -20,-53 2,-29 -35,-67z"/>
  <path class="fil63" d="M3832 3551c37,75 8,40 -9,72 -20,39 113,-8 27,-61 -7,-5 -17,-9 -18,-11z"/>
  <path class="fil68" d="M3832 3551c37,75 8,40 -9,72 -20,39 113,-8 27,-61 -7,-5 -17,-9 -18,-11z"/>
  <polygon class="fil65" points="2246,2599 2246,3637 2811,3634 2804,2589 "/>
  <polygon class="fil13" points="2307,2725 2307,3646 2663,3644 2659,2715 "/>
  <path class="fil1" d="M2730 2202c-253,-7 69,-245 -93,-411 0,0 18,12 20,12 105,53 103,93 117,147 28,102 21,254 -44,252zm-272 -267c-61,100 -83,274 35,344 452,268 362,-327 319,-385 -69,-159 -299,-252 -285,-276 -19,32 50,120 -69,317z"/>
  <path class="fil9" d="M2637 1791c162,166 -160,404 93,411 65,2 72,-150 44,-252 -14,-54 -12,-94 -117,-147 -2,0 -20,-12 -20,-12z"/>
 </g>
</svg>
