<?xml version="1.0" encoding="UTF-8"?>
<!DOCTYPE svg PUBLIC "-//W3C//DTD SVG 1.1//EN" "http://www.w3.org/Graphics/SVG/1.1/DTD/svg11.dtd">
<!-- Creator: CorelDRAW X6 -->
<svg xmlns="http://www.w3.org/2000/svg" xml:space="preserve" width="3.8mm" height="3.8mm" version="1.1" style="shape-rendering:geometricPrecision; text-rendering:geometricPrecision; image-rendering:optimizeQuality; fill-rule:evenodd; clip-rule:evenodd"
viewBox="0 0 380 380"
 xmlns:xlink="http://www.w3.org/1999/xlink">
 <defs>
  <style type="text/css">
   <![CDATA[
    .fil1 {fill:#FFED00}
    .fil0 {fill:#642774}
   ]]>
  </style>
 </defs>
 <g id="Layer_x0020_1">
  <metadata id="CorelCorpID_0Corel-Layer"/>
  <ellipse class="fil0" cx="190" cy="190" rx="188" ry="187"/>
  <path class="fil1" d="M162 161c24,1 62,-12 69,3 5,11 -26,89 -13,114 3,7 20,8 23,13 5,9 -2,20 -4,21 -9,4 -15,3 -25,3 -40,4 -101,25 -72,-45 4,-9 14,-44 16,-70 0,-6 -11,-7 -19,-12 -9,-5 -9,-27 5,-27 7,-1 12,0 20,0z"/>
  <ellipse class="fil1" cx="194" cy="93" rx="41" ry="39"/>
 </g>
</svg>
