<?xml version="1.0" encoding="UTF-8"?>
<!DOCTYPE svg PUBLIC "-//W3C//DTD SVG 1.1//EN" "http://www.w3.org/Graphics/SVG/1.1/DTD/svg11.dtd">
<!-- Creator: CorelDRAW X6 -->
<svg xmlns="http://www.w3.org/2000/svg" xml:space="preserve" width="150mm" height="150mm" version="1.1" style="shape-rendering:geometricPrecision; text-rendering:geometricPrecision; image-rendering:optimizeQuality; fill-rule:evenodd; clip-rule:evenodd"
viewBox="0 0 15000 15000"
 xmlns:xlink="http://www.w3.org/1999/xlink">
 <defs>
  <style type="text/css">
   <![CDATA[
    .str1 {stroke:#2B2A29;stroke-width:150;stroke-linejoin:round}
    .str0 {stroke:#2B2A29;stroke-width:300;stroke-linejoin:round}
    .fil0 {fill:none}
   ]]>
  </style>
 </defs>
 <g id="Layer_x0020_1">
  <metadata id="CorelCorpID_0Corel-Layer"/>
  <path class="fil0 str0" d="M3667 4048c494,-468 457,-1229 884,-1085 554,187 5102,317 5842,261 312,-24 3377,-198 3334,22 -129,667 -2759,3824 -2881,4077 -65,133 -123,605 -453,521 -859,-219 -6011,-58 -7672,-203 -660,-57 -1165,52 -1880,-7 -90,-8 2338,-3124 2826,-3586z"/>
  <path class="fil0 str0" d="M12452 5218c373,-126 1617,-212 1578,26 -889,888 -2334,3159 -3025,4330 -532,900 86,680 -1279,442 -2192,-383 -3057,-207 -5219,-155 -538,13 -1177,231 -1954,231 -250,0 -1625,17 -1853,-22 -3,-5 1678,-2186 1946,-2431"/>
  <path class="fil0 str0" d="M12654 6995c131,6 1815,-245 1659,11 -670,1097 -1089,1917 -1915,2980 -965,1243 -825,942 -1454,2237 -162,332 -311,49 -985,-28 -2118,-241 -5536,-36 -7843,-36 -274,0 -1223,51 -1378,36 0,-288 1260,-1293 1475,-1540 145,-166 561,-409 671,-575"/>
  <path class="fil0 str0" d="M13403 8527c85,10 1393,85 1312,180 -176,206 -492,1080 -944,1612 -299,351 -688,1217 -1066,1627 -553,600 -1083,1539 -1691,2249 -543,635 128,182 -1549,-112 -775,-136 -3013,-11 -3969,-11 -1282,0 -2364,7 -3637,120 -141,12 -1561,74 -1559,68 170,-503 1763,-1310 2214,-1802 106,-115 295,-162 307,-304"/>
  <path class="fil0 str1" d="M4553 13133c-1014,-783 -920,-7401 858,-8711"/>
  <path class="fil0 str1" d="M3519 6062c3023,-2788 1230,-2052 2134,518"/>
  <path class="fil0 str1" d="M8941 4940c1200,2405 34,6083 -792,8517"/>
  <path class="fil0 str1" d="M7600 10796c500,726 417,3109 660,2610 156,-321 1483,-2027 1792,-2099"/>
 </g>
</svg>
