<?xml version="1.0" encoding="UTF-8"?>
<!DOCTYPE svg PUBLIC "-//W3C//DTD SVG 1.1//EN" "http://www.w3.org/Graphics/SVG/1.1/DTD/svg11.dtd">
<!-- Creator: CorelDRAW X6 -->
<svg xmlns="http://www.w3.org/2000/svg" xml:space="preserve" width="500mm" height="500mm" version="1.1" style="shape-rendering:geometricPrecision; text-rendering:geometricPrecision; image-rendering:optimizeQuality; fill-rule:evenodd; clip-rule:evenodd"
viewBox="0 0 50000 50000"
 xmlns:xlink="http://www.w3.org/1999/xlink">
 <defs>
  <style type="text/css">
   <![CDATA[
    .str3 {stroke:#2B2A29;stroke-width:20}
    .str2 {stroke:#FFED00;stroke-width:400}
    .str1 {stroke:#FFED00;stroke-width:400;stroke-linecap:square;stroke-linejoin:round}
    .str0 {stroke:#FFED00;stroke-width:500;stroke-linecap:square;stroke-linejoin:round}
    .fil0 {fill:#FFDD47}
    .fil1 {fill:#7422AF}
   ]]>
  </style>
 </defs>
 <g id="Layer_x0020_1">
  <metadata id="CorelCorpID_0Corel-Layer"/>
  <path class="fil0 str0" d="M30042 1131c-215,41 -1021,260 -1152,222 -13352,-3928 -19384,5087 -18204,15695 614,5518 4112,13420 6660,18670 51,104 1576,3057 1648,3161 1899,3523 3801,6969 5710,10470 526,-820 4498,-6566 6470,-10296 359,-610 -219,481 2370,-4357 7038,-13149 13531,-36050 -3502,-33565zm-18029 16240c-1188,-10685 4822,-18433 16347,-15084 1604,466 3946,3527 4979,4963 278,504 160,280 716,308 165,-335 179,-423 1,-843 -438,-1034 -1870,-2849 -2728,-3595l-805 -746c12403,-1897 9129,14572 5267,24489 -2005,5686 -7250,14754 -11111,20272 -973,-2895 -10561,-18570 -12666,-29764z"/>
  <path class="fil0 str1" d="M23128 20186c-387,106 -1284,-820 -1211,-2714 30,-1464 1223,-4027 2870,-4243 1614,-267 3299,1410 3653,3084 768,4615 -3401,7761 -4582,2809 -192,-1004 -119,-1588 226,-2569 69,-197 68,-324 -124,-308 -672,290 -740,645 -839,960 -353,1204 -347,1791 7,2981zm607 1038c360,594 778,1227 1511,1308 6820,846 5839,-12393 -1035,-10669 -1825,458 -3095,2302 -3308,4366 -97,1576 635,5418 2832,4995z"/>
  <path class="fil0 str2" d="M23735 21224c-2197,423 -2929,-3419 -2832,-4995 213,-2064 1483,-3908 3308,-4366 6874,-1724 7855,11515 1035,10669 -733,-81 -1151,-714 -1511,-1308zm9604 -13974c-1033,-1436 -3375,-4497 -4979,-4963 -11525,-3349 -17535,4399 -16347,15084 2105,11194 11693,26869 12666,29764 3861,-5518 9106,-14586 11111,-20272 3862,-9917 7136,-26386 -5267,-24489l805 746c858,746 2290,2561 2728,3595 178,420 164,508 -1,843 -556,-28 -438,196 -716,-308z"/>
  <path class="fil0 str2" d="M24211 11863c6874,-1724 7855,11515 1035,10669 -733,-81 -1151,-714 -1511,-1308 -2197,423 -2929,-3419 -2832,-4995 213,-2064 1483,-3908 3308,-4366zm9128 -4613c-1033,-1436 -3375,-4497 -4979,-4963 -11525,-3349 -17535,4399 -16347,15084 2105,11194 11693,26869 12666,29764 3861,-5518 9106,-14586 11111,-20272 3862,-9917 7136,-26386 -5267,-24489l805 746c858,746 2290,2561 2728,3595 178,420 164,508 -1,843 -556,-28 -438,196 -716,-308z"/>
  <path class="fil0 str2" d="M23735 21224c-2197,423 -2929,-3419 -2832,-4995 213,-2064 1483,-3908 3308,-4366 6874,-1724 7855,11515 1035,10669 -733,-81 -1151,-714 -1511,-1308zm9604 -13974c-1033,-1436 -3375,-4497 -4979,-4963 -11525,-3349 -17535,4399 -16347,15084 2105,11194 11693,26869 12666,29764 3861,-5518 9106,-14586 11111,-20272 3862,-9917 7136,-26386 -5267,-24489l805 746c858,746 2290,2561 2728,3595 178,420 164,508 -1,843 -556,-28 -438,196 -716,-308z"/>
  <path class="fil0 str2" d="M23735 21224c-2197,423 -2929,-3419 -2832,-4995 213,-2064 1483,-3908 3308,-4366 6874,-1724 7855,11515 1035,10669 -733,-81 -1151,-714 -1511,-1308zm9604 -13974c-1033,-1436 -3375,-4497 -4979,-4963 -11525,-3349 -17535,4399 -16347,15084 2105,11194 11693,26869 12666,29764 3861,-5518 9106,-14586 11111,-20272 3862,-9917 7136,-26386 -5267,-24489l805 746c858,746 2290,2561 2728,3595 178,420 164,508 -1,843 -556,-28 -438,196 -716,-308z"/>
  <path class="fil0 str2" d="M23735 21224c-2197,423 -2929,-3419 -2832,-4995 213,-2064 1483,-3908 3308,-4366 6874,-1724 7855,11515 1035,10669 -733,-81 -1151,-714 -1511,-1308zm9604 -13974c-1033,-1436 -3375,-4497 -4979,-4963 -11525,-3349 -17535,4399 -16347,15084 2105,11194 11693,26869 12666,29764 3861,-5518 9106,-14586 11111,-20272 3862,-9917 7136,-26386 -5267,-24489l805 746c858,746 2290,2561 2728,3595 178,420 164,508 -1,843 -556,-28 -438,196 -716,-308z"/>
  <path class="fil0 str2" d="M23735 21224c-2197,423 -2929,-3419 -2832,-4995 213,-2064 1483,-3908 3308,-4366 6874,-1724 7855,11515 1035,10669 -733,-81 -1151,-714 -1511,-1308zm9604 -13974c-1033,-1436 -3375,-4497 -4979,-4963 -11525,-3349 -17535,4399 -16347,15084 2105,11194 11693,26869 12666,29764 3861,-5518 9106,-14586 11111,-20272 3862,-9917 7136,-26386 -5267,-24489l805 746c858,746 2290,2561 2728,3595 178,420 164,508 -1,843 -556,-28 -438,196 -716,-308z"/>
  <path class="fil0 str2" d="M23735 21224c-2197,423 -2929,-3419 -2832,-4995 213,-2064 1483,-3908 3308,-4366 6874,-1724 7855,11515 1035,10669 -733,-81 -1151,-714 -1511,-1308zm9604 -13974c-1033,-1436 -3375,-4497 -4979,-4963 -11525,-3349 -17535,4399 -16347,15084 2105,11194 11693,26869 12666,29764 3861,-5518 9106,-14586 11111,-20272 3862,-9917 7136,-26386 -5267,-24489l805 746c858,746 2290,2561 2728,3595 178,420 164,508 -1,843 -556,-28 -438,196 -716,-308z"/>
  <path class="fil1 str3" d="M23735 21224c-2197,423 -2929,-3419 -2832,-4995 213,-2064 1483,-3908 3308,-4366 6874,-1724 7855,11515 1035,10669 -733,-81 -1151,-714 -1511,-1308zm9604 -13974c-1033,-1436 -3375,-4497 -4979,-4963 -11525,-3349 -17535,4399 -16347,15084 2105,11194 11693,26869 12666,29764 3861,-5518 9106,-14586 11111,-20272 3862,-9917 7136,-26386 -5267,-24489l805 746c858,746 2290,2561 2728,3595 178,420 164,508 -1,843 -556,-28 -438,196 -716,-308z"/>
 </g>
</svg>
