<?xml version="1.0" encoding="UTF-8"?>
<!DOCTYPE svg PUBLIC "-//W3C//DTD SVG 1.1//EN" "http://www.w3.org/Graphics/SVG/1.1/DTD/svg11.dtd">
<!-- Creator: CorelDRAW X6 -->
<svg xmlns="http://www.w3.org/2000/svg" xml:space="preserve" width="40mm" height="40mm" version="1.1" style="shape-rendering:geometricPrecision; text-rendering:geometricPrecision; image-rendering:optimizeQuality; fill-rule:evenodd; clip-rule:evenodd"
viewBox="0 0 4000 4000"
 xmlns:xlink="http://www.w3.org/1999/xlink">
 <defs>
  <style type="text/css">
   <![CDATA[
    .str1 {stroke:#20C7D7;stroke-width:7.62}
    .str0 {stroke:#20C7D7;stroke-width:7.62;stroke-linecap:square;stroke-linejoin:round}
    .fil2 {fill:#F227DA}
    .fil1 {fill:#FFDD47}
    .fil0 {fill:#20C7D7}
    .fil3 {fill:#7422AF}
   ]]>
  </style>
 </defs>
 <g id="Layer_x0020_1">
  <metadata id="CorelCorpID_0Corel-Layer"/>
  <path class="fil0 str0" d="M2357 113c-17,3 -82,21 -92,18 -1069,-315 -1551,407 -1457,1256 49,441 329,1074 533,1494 4,8 126,244 132,253 152,282 304,557 457,837 42,-65 360,-525 518,-823 28,-49 -18,38 189,-349 563,-1052 1083,-2885 -280,-2686zm-1443 1300c-95,-855 386,-1475 1308,-1208 129,38 316,283 399,398 22,40 13,22 57,24 13,-27 15,-34 0,-67 -35,-83 -149,-228 -218,-288l-64 -60c992,-151 730,1167 421,1960 -160,455 -580,1181 -889,1622 -78,-231 -845,-1486 -1014,-2381z"/>
  <path class="fil0 str0" d="M1804 1638c-31,8 -103,-66 -97,-217 2,-118 98,-323 230,-340 129,-21 264,113 292,247 61,369 -272,621 -367,225 -15,-81 -9,-127 18,-206 6,-16 6,-26 -10,-25 -53,24 -59,52 -67,77 -28,97 -28,144 1,239zm48 83c29,47 63,98 121,105 546,67 467,-992 -83,-854 -146,36 -247,184 -264,349 -8,126 51,434 226,400z"/>
  <path class="fil1" d="M1852 1721c-175,34 -234,-274 -226,-400 17,-165 118,-313 264,-349 550,-138 629,921 83,854 -58,-7 -92,-58 -121,-105zm769 -1118c-83,-115 -270,-360 -399,-398 -922,-267 -1403,353 -1308,1208 169,895 936,2150 1014,2381 309,-441 729,-1167 889,-1622 309,-793 571,-2111 -421,-1960l64 60c69,60 183,205 218,288 15,33 13,40 0,67 -44,-2 -35,16 -57,-24z"/>
  <path class="fil1" d="M1890 972c550,-138 629,921 83,854 -58,-7 -92,-58 -121,-105 -175,34 -234,-274 -226,-400 17,-165 118,-313 264,-349zm731 -369c-83,-115 -270,-360 -399,-398 -922,-267 -1403,353 -1308,1208 169,895 936,2150 1014,2381 309,-441 729,-1167 889,-1622 309,-793 571,-2111 -421,-1960l64 60c69,60 183,205 218,288 15,33 13,40 0,67 -44,-2 -35,16 -57,-24z"/>
  <path class="fil1" d="M1852 1721c-175,34 -234,-274 -226,-400 17,-165 118,-313 264,-349 550,-138 629,921 83,854 -58,-7 -92,-58 -121,-105zm769 -1118c-83,-115 -270,-360 -399,-398 -922,-267 -1403,353 -1308,1208 169,895 936,2150 1014,2381 309,-441 729,-1167 889,-1622 309,-793 571,-2111 -421,-1960l64 60c69,60 183,205 218,288 15,33 13,40 0,67 -44,-2 -35,16 -57,-24z"/>
  <path class="fil2" d="M1852 1721c-175,34 -234,-274 -226,-400 17,-165 118,-313 264,-349 550,-138 629,921 83,854 -58,-7 -92,-58 -121,-105zm769 -1118c-83,-115 -270,-360 -399,-398 -922,-267 -1403,353 -1308,1208 169,895 936,2150 1014,2381 309,-441 729,-1167 889,-1622 309,-793 571,-2111 -421,-1960l64 60c69,60 183,205 218,288 15,33 13,40 0,67 -44,-2 -35,16 -57,-24z"/>
  <path class="fil1" d="M1852 1721c-175,34 -234,-274 -226,-400 17,-165 118,-313 264,-349 550,-138 629,921 83,854 -58,-7 -92,-58 -121,-105zm769 -1118c-83,-115 -270,-360 -399,-398 -922,-267 -1403,353 -1308,1208 169,895 936,2150 1014,2381 309,-441 729,-1167 889,-1622 309,-793 571,-2111 -421,-1960l64 60c69,60 183,205 218,288 15,33 13,40 0,67 -44,-2 -35,16 -57,-24z"/>
  <path class="fil1" d="M1852 1721c-175,34 -234,-274 -226,-400 17,-165 118,-313 264,-349 550,-138 629,921 83,854 -58,-7 -92,-58 -121,-105zm769 -1118c-83,-115 -270,-360 -399,-398 -922,-267 -1403,353 -1308,1208 169,895 936,2150 1014,2381 309,-441 729,-1167 889,-1622 309,-793 571,-2111 -421,-1960l64 60c69,60 183,205 218,288 15,33 13,40 0,67 -44,-2 -35,16 -57,-24z"/>
  <path class="fil1" d="M1852 1721c-175,34 -234,-274 -226,-400 17,-165 118,-313 264,-349 550,-138 629,921 83,854 -58,-7 -92,-58 -121,-105zm769 -1118c-83,-115 -270,-360 -399,-398 -922,-267 -1403,353 -1308,1208 169,895 936,2150 1014,2381 309,-441 729,-1167 889,-1622 309,-793 571,-2111 -421,-1960l64 60c69,60 183,205 218,288 15,33 13,40 0,67 -44,-2 -35,16 -57,-24z"/>
  <path class="fil3" d="M1852 1721c-175,34 -234,-274 -226,-400 17,-165 118,-313 264,-349 550,-138 629,921 83,854 -58,-7 -92,-58 -121,-105zm769 -1118c-83,-115 -270,-360 -399,-398 -922,-267 -1403,353 -1308,1208 169,895 936,2150 1014,2381 309,-441 729,-1167 889,-1622 309,-793 571,-2111 -421,-1960l64 60c69,60 183,205 218,288 15,33 13,40 0,67 -44,-2 -35,16 -57,-24z"/>
  <path class="fil3 str1" d="M1852 1721c-175,34 -234,-274 -226,-400 17,-165 118,-313 264,-349 550,-138 629,921 83,854 -58,-7 -92,-58 -121,-105zm769 -1118c-83,-115 -270,-360 -399,-398 -922,-267 -1403,353 -1308,1208 169,895 936,2150 1014,2381 309,-441 729,-1167 889,-1622 309,-794 571,-2111 -421,-1960l64 60c69,60 183,205 218,288 15,33 13,40 0,67 -44,-2 -35,16 -57,-24z"/>
 </g>
</svg>
