<?xml version="1.0" encoding="UTF-8"?>
<!DOCTYPE svg PUBLIC "-//W3C//DTD SVG 1.1//EN" "http://www.w3.org/Graphics/SVG/1.1/DTD/svg11.dtd">
<!-- Creator: CorelDRAW X6 -->
<svg xmlns="http://www.w3.org/2000/svg" xml:space="preserve" width="150mm" height="150mm" version="1.1" style="shape-rendering:geometricPrecision; text-rendering:geometricPrecision; image-rendering:optimizeQuality; fill-rule:evenodd; clip-rule:evenodd"
viewBox="0 0 15000 15000"
 xmlns:xlink="http://www.w3.org/1999/xlink">
 <defs>
  <style type="text/css">
   <![CDATA[
    .str2 {stroke:#2B2A29;stroke-width:20}
    .str1 {stroke:black;stroke-width:50;stroke-linecap:square;stroke-linejoin:round}
    .str0 {stroke:black;stroke-width:75;stroke-linecap:square;stroke-linejoin:round}
    .fil2 {fill:#7688A1}
    .fil1 {fill:#040005}
    .fil0 {fill:#09000A}
    .fil3 {fill:#B3D0EE}
    .fil4 {fill:#15B079}
    .fil5 {fill:#7422AF}
   ]]>
  </style>
 </defs>
 <g id="Layer_x0020_1">
  <metadata id="CorelCorpID_0Corel-Layer"/>
  <path class="fil0 str0" d="M8148 1824c-36,7 -172,43 -193,37 -2240,-659 -3251,853 -3053,2632 103,925 689,2250 1116,3131 9,17 265,513 277,530 318,591 637,1169 957,1756 89,-138 755,-1101 1086,-1727 60,-102 -37,81 397,-730 1180,-2206 2269,-6046 -587,-5629zm-3024 2723c-199,-1792 809,-3091 2742,-2530 269,79 661,592 835,833 46,84 26,47 120,51 27,-56 30,-71 0,-141 -74,-173 -314,-478 -458,-603l-135 -125c2080,-318 1531,2444 884,4107 -337,953 -1216,2474 -1864,3400 -163,-486 -1771,-3115 -2124,-4992z"/>
  <path class="fil1 str1" d="M6988 5019c-65,18 -215,-137 -203,-455 5,-246 205,-675 481,-712 271,-44 554,237 613,518 129,774 -570,1301 -768,471 -33,-169 -20,-267 38,-431 11,-33 11,-54 -21,-52 -113,49 -124,108 -141,161 -59,202 -58,301 1,500zm102 174c60,100 130,206 253,220 1144,142 980,-2079 -173,-1790 -306,77 -519,386 -555,733 -16,264 107,908 475,837z"/>
  <path class="fil2 str2" d="M7090 5193c-368,71 -491,-573 -475,-837 36,-347 249,-656 555,-733 1153,-289 1317,1932 173,1790 -123,-14 -193,-120 -253,-220zm1611 -2343c-174,-241 -566,-754 -835,-833 -1933,-561 -2941,738 -2742,2530 353,1877 1961,4506 2124,4992 648,-926 1527,-2447 1864,-3400 647,-1663 1196,-4425 -884,-4107l135 125c144,125 384,430 458,603 30,70 27,85 0,141 -94,-4 -74,33 -120,-51z"/>
  <path class="fil3 str2" d="M7170 3623c1153,-289 1317,1932 173,1790 -123,-14 -193,-120 -253,-220 -368,71 -491,-573 -475,-837 36,-347 249,-656 555,-733zm1531 -773c-174,-241 -566,-754 -835,-833 -1933,-561 -2941,738 -2742,2530 353,1877 1961,4506 2124,4992 648,-926 1527,-2447 1864,-3400 647,-1663 1196,-4425 -884,-4107l135 125c144,125 384,430 458,603 30,70 27,85 0,141 -94,-4 -74,33 -120,-51z"/>
  <path class="fil3 str2" d="M7090 5193c-368,71 -491,-573 -475,-837 36,-347 249,-656 555,-733 1153,-289 1317,1932 173,1790 -123,-14 -193,-120 -253,-220zm1611 -2343c-174,-241 -566,-754 -835,-833 -1933,-561 -2941,738 -2742,2530 353,1877 1961,4506 2124,4992 648,-926 1527,-2447 1864,-3400 647,-1663 1196,-4425 -884,-4107l135 125c144,125 384,430 458,603 30,70 27,85 0,141 -94,-4 -74,33 -120,-51z"/>
  <path class="fil3 str2" d="M7090 5193c-368,71 -491,-573 -475,-837 36,-347 249,-656 555,-733 1153,-289 1317,1932 173,1790 -123,-14 -193,-120 -253,-220zm1611 -2343c-174,-241 -566,-754 -835,-833 -1933,-561 -2941,738 -2742,2530 353,1877 1961,4506 2124,4992 648,-926 1527,-2447 1864,-3400 647,-1663 1196,-4425 -884,-4107l135 125c144,125 384,430 458,603 30,70 27,85 0,141 -94,-4 -74,33 -120,-51z"/>
  <path class="fil4 str2" d="M7090 5193c-368,71 -491,-573 -475,-837 36,-347 249,-656 555,-733 1153,-289 1317,1932 173,1790 -123,-14 -193,-120 -253,-220zm1611 -2343c-174,-241 -566,-754 -835,-833 -1933,-561 -2941,738 -2742,2530 353,1877 1961,4506 2124,4992 648,-926 1527,-2447 1864,-3400 647,-1663 1196,-4425 -884,-4107l135 125c144,125 384,430 458,603 30,70 27,85 0,141 -94,-4 -74,33 -120,-51z"/>
  <path class="fil4 str2" d="M7090 5193c-368,71 -491,-573 -475,-837 36,-347 249,-656 555,-733 1153,-289 1317,1932 173,1790 -123,-14 -193,-120 -253,-220zm1611 -2343c-174,-241 -566,-754 -835,-833 -1933,-561 -2941,738 -2742,2530 353,1877 1961,4506 2124,4992 648,-926 1527,-2447 1864,-3400 647,-1663 1196,-4425 -884,-4107l135 125c144,125 384,430 458,603 30,70 27,85 0,141 -94,-4 -74,33 -120,-51z"/>
  <path class="fil4 str2" d="M7090 5193c-368,71 -491,-573 -475,-837 36,-347 249,-656 555,-733 1153,-289 1317,1932 173,1790 -123,-14 -193,-120 -253,-220zm1611 -2343c-174,-241 -566,-754 -835,-833 -1933,-561 -2941,738 -2742,2530 353,1877 1961,4506 2124,4992 648,-926 1527,-2447 1864,-3400 647,-1663 1196,-4425 -884,-4107l135 125c144,125 384,430 458,603 30,70 27,85 0,141 -94,-4 -74,33 -120,-51z"/>
  <path class="fil5 str2" d="M6615 4356c36,-347 249,-656 555,-733 1153,-289 1317,1932 173,1790 -123,-14 -193,-120 -253,-220 -368,71 -491,-573 -475,-837zm2086 -1506c-174,-241 -566,-754 -835,-833 -1933,-561 -2941,738 -2742,2530 353,1877 1961,4506 2124,4992 648,-926 1527,-2447 1864,-3400 647,-1663 1196,-4425 -884,-4107l135 125c144,125 384,430 458,603 30,70 27,85 0,141 -94,-4 -74,33 -120,-51z"/>
 </g>
</svg>
