<?xml version="1.0" encoding="UTF-8"?>
<!DOCTYPE svg PUBLIC "-//W3C//DTD SVG 1.1//EN" "http://www.w3.org/Graphics/SVG/1.1/DTD/svg11.dtd">
<!-- Creator: CorelDRAW X6 -->
<svg xmlns="http://www.w3.org/2000/svg" xml:space="preserve" width="40mm" height="40mm" version="1.1" style="shape-rendering:geometricPrecision; text-rendering:geometricPrecision; image-rendering:optimizeQuality; fill-rule:evenodd; clip-rule:evenodd"
viewBox="0 0 4000 4000"
 xmlns:xlink="http://www.w3.org/1999/xlink">
 <defs>
  <style type="text/css">
   <![CDATA[
    .str0 {stroke:#2B2A29;stroke-width:20;stroke-linecap:square;stroke-linejoin:round}
    .str1 {stroke:black;stroke-width:20;stroke-linecap:square;stroke-linejoin:round}
    .fil1 {fill:black}
    .fil0 {fill:#F5D402}
   ]]>
  </style>
 </defs>
 <g id="Layer_x0020_1">
  <metadata id="CorelCorpID_0Corel-Layer"/>
  <path class="fil0 str0" d="M3411 1527c-7,0 -2,-4 2,-3 8,0 2,3 -2,3zm-220 1126c-2,10 -3,3 1,12 0,-1 0,-3 1,-3 2,-3 0,-2 2,-4 5,-5 6,-4 11,-6 13,-7 10,-21 27,-31 11,-8 48,-43 63,-54l67 -52c7,-8 9,-8 17,-14 18,-14 51,-45 74,-47 15,41 1,38 37,85 7,9 59,47 70,53 4,-7 0,-10 -4,-16 -10,-17 -45,-25 -69,-72 -3,-5 -7,-13 -9,-19 -2,-8 -3,-19 1,-25l13 -1c3,15 1,15 9,28 20,29 29,37 60,56 6,4 17,11 24,14 13,6 15,-5 5,-12 -8,-7 -43,-20 -47,-30 0,-17 1,-4 4,-12 3,-6 4,-4 1,-11l-3 -1c-12,-4 -20,-3 -28,-15 -7,-12 -8,-27 -8,-43 12,-8 12,-12 6,-24 26,-9 35,-30 55,-45 11,-9 18,-13 31,-23 13,-8 15,-15 33,-20 16,-5 24,-11 39,-16 17,-5 24,-12 37,-17l39 -14c8,-3 11,-6 17,-9 7,-3 16,-3 25,-3l13 -18c10,-12 48,7 53,13 19,26 42,73 31,105 -3,11 -8,18 -11,25 -10,35 -21,43 -38,71l-23 32c-13,15 -28,33 -43,46l-19 17c-4,4 -5,6 -8,10l-37 37c-1,1 -1,1 -1,2 -13,16 -27,30 -44,43 -2,1 -3,1 -5,3 -1,0 -5,4 -6,4 -2,3 -2,2 -3,4 -1,0 -1,1 -1,1l-23 22c-4,3 -5,5 -9,9 -19,22 -45,42 -67,62 -13,12 -25,21 -38,33l-53 54c-8,12 -7,12 -17,22l-36 36c-5,5 -5,4 -11,7 -27,17 -52,29 -77,49l-126 81c-10,8 9,-2 -4,2 -1,0 -4,0 -5,1l-21 8c-34,20 -132,62 -169,85 -17,12 -40,19 -57,31 -6,4 -7,4 -12,7 -18,7 -33,18 -51,24 -10,3 -5,0 -13,4 -12,7 -37,9 -44,13 -13,8 -61,21 -75,22 -13,0 -15,4 -28,7 -16,4 -17,4 -21,18 -3,-8 5,-10 -25,-5 -12,3 -9,-1 -26,6 -4,-4 -8,-8 -11,-11 -8,2 -5,2 -7,3l-13 8c-4,3 -1,1 -5,5l-39 25c-1,1 -1,1 -1,2 -5,4 -1,1 -6,4 -6,3 -9,4 -14,7 -12,7 -22,17 -36,23 -33,13 -22,12 -37,20l-47 19c-17,10 -32,16 -50,23 -10,3 1,0 -10,7 -4,3 -9,4 -14,6 -12,5 -14,9 -26,15l-52 27c-15,9 -42,16 -55,24 1,-8 6,-17 9,-27 3,-10 6,-20 13,-27 4,11 15,15 18,3 2,-8 -3,-13 -7,-20l-51 -79c-11,-22 -14,-47 -26,-67l-14 -25c-14,-21 -27,-24 -44,-66 -4,-11 -5,-18 -8,-31 -5,-23 -11,-38 -13,-62 -1,-21 -9,-43 -12,-63 -7,-50 4,-95 -1,-142 -8,-69 9,-100 -8,-214 -2,-12 -2,-23 -2,-35 1,-13 1,-24 7,-34l44 -69c2,-4 5,-8 7,-11l9 -9c1,0 1,-1 2,-1 4,8 6,15 15,19 7,-6 15,-38 39,-67 12,-14 64,-74 75,-81 22,-15 40,-32 64,-44 66,-37 45,-54 101,-16 27,18 34,29 52,56 5,7 5,9 10,16 11,20 30,45 38,67l8 46c1,13 -2,15 8,20 11,-15 -1,-64 -7,-80 -9,-20 -42,-75 -57,-92 -4,-5 -1,-1 -5,-8 -4,-6 -5,-9 -9,-13l-53 -40c0,0 0,-1 1,-1l3 -3c1,0 1,-1 2,-1 1,-1 3,-4 5,-5 11,4 16,9 27,-4l11 -20c3,-10 4,-14 33,-20 7,-1 11,-2 17,-4 38,-17 123,-27 162,-21 17,2 55,2 75,2 81,-2 42,10 76,89 11,25 19,32 33,48 8,10 12,15 19,23l8 12c4,5 5,5 13,7 0,-19 -13,-28 -23,-39 -27,-31 -73,-114 -46,-152 9,-12 53,-51 66,-58 2,-1 7,-4 10,-5 0,-1 1,-1 1,-2 0,0 1,-1 1,-1 1,0 1,-1 2,-1 18,-18 91,-59 118,-74l42 -20c14,-6 28,-13 40,-21 36,-24 185,-55 195,-49 8,12 13,28 21,41 5,8 20,34 27,36 3,-7 -13,-48 -18,-57 -4,-10 -2,-28 -3,-38 -1,-9 7,-18 12,-27 8,-14 15,-28 25,-39l6 -7c3,-3 2,-2 4,-4 5,-5 5,-6 10,-11l55 -49c7,-6 5,-3 11,-10 10,-11 22,-19 33,-29 8,-7 19,-11 26,-17 7,-7 13,-13 23,-18 21,-10 46,-35 65,-42 9,-3 8,-2 15,-6 16,-10 14,-5 31,-10 17,-5 9,-7 33,-8 19,-1 41,-14 69,-15 29,0 35,1 56,15 10,6 18,20 16,33 -2,13 6,17 13,25 9,11 20,69 9,87 -6,9 -2,-4 -7,13 -4,14 -6,20 -15,29l-9 11c-6,8 -5,5 -10,10 -30,29 1,16 -57,28 -16,4 -36,7 -51,14l-14 7c-1,0 -2,1 -3,1 0,1 -1,1 -2,1l-73 44c-10,6 -17,11 -25,16 -8,6 -15,17 -21,23 -22,27 -20,21 -44,40l-34 28c-15,13 -30,24 -44,38l-54 54c-35,32 -26,15 -52,32 -7,5 -24,11 -29,16 -2,3 5,-2 -3,4 -14,8 -41,22 -51,30l-228 172c-14,11 -31,34 -46,47l-6 7c-4,7 -4,9 -10,13 -11,4 -98,-5 -121,-3 -45,2 -120,13 -156,38 -17,12 -35,16 -50,31l-25 23c-6,5 -12,9 -18,15 -9,8 -10,11 -15,19 -20,-12 -61,-70 -90,-42 -18,19 -43,28 -62,46 -26,22 -31,29 -54,57 -2,2 -5,6 -8,9 -20,23 -42,44 -60,69 -6,9 -9,6 -16,20 -6,13 -13,16 -13,26 9,6 9,5 15,-4 11,-15 20,-35 36,-49l53 -62c10,-11 17,-17 27,-29l29 -27c12,-10 54,-42 72,-44 21,-3 52,33 61,50l20 36c8,14 15,23 20,39 8,23 17,68 14,98 -5,33 5,77 3,113l-26 -2c-3,22 9,13 18,25 8,10 14,10 20,24 9,22 8,28 10,34 2,6 7,9 10,36 6,55 -4,120 -34,165 -5,8 -9,10 -13,18 -9,14 -14,21 -27,32 -1,12 -2,19 12,17 10,-2 27,-35 34,-45 20,-28 32,-60 41,-93 7,-31 9,-76 3,-108l-20 -69c-4,-11 -8,-10 -9,-20 5,-7 26,-24 34,-27 26,-12 35,-22 42,-25 19,-8 39,-14 57,-26 11,-7 24,-10 36,-14l6 -2c2,-1 -1,-1 6,-2l67 -17c3,-1 3,-1 6,-2l5 -2c10,-3 126,-15 136,2 0,1 2,5 2,5 10,27 21,54 57,55 -1,-19 -15,-15 -25,-27 -20,-24 -20,-51 4,-72l33 -34c5,-5 1,-2 6,-7 23,-19 42,-42 67,-59 5,-4 1,0 3,-3 4,-6 -4,-3 9,-13 6,-3 13,-8 19,-10 -12,22 -6,9 -23,16zm-112 -855c-1,0 1,-2 1,-2l0 0c0,0 -1,3 -1,2zm795 105l30 11c17,12 36,72 41,92 5,19 -1,38 -11,49 -14,30 -42,47 -67,67 -7,6 -12,10 -18,15 -8,5 -12,9 -19,14 -6,5 -16,9 -21,13 -8,5 -11,10 -18,15 -10,7 -10,8 -17,16 -9,12 -10,7 -18,16 -5,4 -4,5 -7,8l-9 9c-8,10 3,6 -19,14l-45 22c-25,11 -38,29 -59,41 -5,3 -15,9 -20,13 -9,6 -12,10 -19,15l-23 13c-8,5 -6,7 -20,18 -9,6 -4,7 -12,13 -4,2 -6,3 -10,6l-4 4c-4,3 0,1 -5,2 -2,1 -3,-2 -11,2 -11,7 -2,2 -7,11 -4,7 -73,47 -89,60 -4,3 -6,5 -10,8 -15,13 -25,14 -47,37 -27,29 -58,41 -85,67 -4,3 -3,3 -8,7l-14 12c-2,1 -2,1 -4,3 -35,28 -45,28 -83,69 -10,11 -23,21 -34,32l-65 63c-13,14 -35,8 -57,9 -20,1 -40,7 -61,6 -33,0 -123,27 -158,43l-44 22c-16,8 -32,14 -44,23l-32 19c-7,4 -4,4 -11,6 2,-35 -2,-149 -10,-185 -3,-11 -8,-20 -13,-28 -5,-9 -8,-17 -13,-28 -4,-8 -11,-15 -15,-25 9,-9 7,-1 14,-15 5,-10 5,-14 12,-22 32,-33 74,-47 120,-56l122 -23c5,0 18,1 26,0 14,-2 13,-6 24,-5 13,1 44,-8 53,1 7,12 3,34 12,49 5,8 9,12 12,18 4,7 11,17 17,10 6,-16 -8,-14 -13,-32 -8,-27 -6,-56 11,-78 14,-18 45,-52 61,-64l58 -46c8,-7 7,-2 16,-9 10,-10 13,-14 27,-22 22,-14 46,-38 56,-44l60 -39c20,-13 45,-24 66,-37 9,-6 21,-16 36,-13 1,19 6,40 12,52l15 19c0,1 0,1 1,2 5,6 8,9 16,9 2,-14 -16,-24 -21,-47 -2,-9 -4,-21 -3,-31 0,-16 4,-14 14,-20 0,-20 -3,-17 12,-30l9 -14c9,-14 26,-21 38,-31l89 -75c10,-12 36,-43 46,-49l9 -5c50,-32 92,-60 172,-72 53,-7 52,1 86,0zm-1179 112c8,3 8,4 14,12 7,8 20,16 27,24 10,12 -1,10 15,14 3,-14 -4,-20 -12,-32 -8,-9 -15,-15 -24,-23l-20 -25c-7,-7 -8,-17 -7,-27 1,-7 2,-11 9,-10 31,4 16,-18 47,-19l-13 -7 79 -42c13,-7 3,-6 27,-14l38 -13c10,-3 10,-6 22,-8 18,-3 38,-15 57,-21 42,-11 51,-22 93,-24 6,-1 9,-3 16,-4 7,0 15,2 16,2l32 -4c12,-4 3,-5 14,1l25 16c14,9 23,17 42,18 0,-9 -2,-9 -8,-13 -15,-10 -25,-22 -36,-36 -10,-14 -7,-30 7,-40l6 -3c1,-1 1,-1 2,-1 12,-5 2,1 17,3 3,-6 1,-2 2,-7 7,-27 16,-20 30,-34 10,-9 19,-20 29,-28 24,-16 44,-37 65,-56l2 -3c19,-20 50,-43 72,-58 6,-4 8,-12 14,-17 10,-9 13,-2 23,-11 9,-9 2,-8 17,-16 16,-9 5,1 22,-1 -2,-2 0,0 -3,-2l-4 -4c17,-4 41,-17 60,-21 20,-5 47,-14 66,-21 37,-13 61,-13 92,13 27,23 50,72 29,106 -9,13 -20,22 -32,32 -17,12 -22,11 -33,18 0,0 -1,1 -1,1l-14 15c-8,6 -19,10 -27,17 0,0 -26,16 -19,17 -14,1 -11,2 -20,7 -4,3 -2,2 -6,4 -9,6 -17,10 -19,20 0,-10 -11,-1 -15,2l-24 21c-6,6 -7,1 -15,10 -9,9 -18,14 -25,24 -7,10 -5,5 -12,11 -6,5 -7,9 -12,14 -11,11 -16,7 -27,22 -18,22 -24,13 -46,51 -7,13 -16,17 -19,29 -22,0 -17,10 -21,27 -17,2 -17,0 -32,5 -18,7 -46,4 -64,11 -15,6 -16,1 -33,1 -8,10 -6,9 -19,13l-24 12c-14,5 -38,12 -47,22 0,0 -1,-3 -1,-3l-1 -4c-1,1 -2,1 -2,1 1,0 -1,1 -1,1l-32 19c-15,6 -87,54 -106,65l-33 23c-17,12 -35,21 -49,35l-31 26c-12,10 -7,3 -23,4l-3 12c-47,2 -111,-3 -159,-2 -44,0 -133,17 -172,34l-57 26c-11,0 -6,2 -9,-10 -8,-30 -6,-63 -12,-95 -9,-52 -29,-17 20,-117 28,-57 20,-31 126,-42 13,-2 19,-2 35,-2 14,1 24,-2 41,0 7,1 11,1 14,6l9 12c10,8 18,2 23,18 13,35 10,59 48,78 9,4 27,6 21,-11 -4,-8 -19,-8 -27,-15 -6,-5 -14,-18 -14,-29zm-305 173c2,18 12,30 12,49 -16,7 -24,12 -52,4 -24,-6 -22,3 -52,4 -2,-18 10,-32 16,-43l28 -57c3,-7 6,-12 10,-18l15 -28c7,-8 -2,-3 10,-6 7,13 10,30 10,49 -6,3 -3,0 -2,4 8,21 2,18 5,42zm-98 -185c-14,-7 -2,-6 -17,-8 -5,-1 -11,-3 -17,-6 6,-4 36,-9 43,-10 17,-2 33,-6 53,-8 0,18 -3,16 -10,28 -5,8 -7,12 -12,20l-40 -16zm79 260c-4,9 -60,43 -63,45 -31,27 -23,8 -80,67l-38 43c2,-20 50,-75 52,-84 2,-11 -1,-9 2,-20 2,-4 6,-11 8,-15 21,-33 7,-29 53,-39 25,-5 31,-3 49,-6 1,0 12,-5 17,9zm-625 -840c-9,1 -8,-6 -21,-3 -10,2 -5,3 -12,4 -17,2 0,1 -9,-1 -7,-2 -11,1 -21,1 -18,1 -38,-1 -57,-1 -10,0 -16,1 -27,2 -4,0 -1,1 -10,-1 -10,-3 -8,0 -17,2 -25,7 -57,7 -80,18 -17,8 -28,8 -46,11 -7,1 -18,2 -24,4 -9,3 -9,6 -18,10 -16,7 -29,10 -43,16l-68 32c-10,6 -21,16 -31,6 -13,-13 -39,-126 -46,-153 -3,-16 -6,-32 -9,-47 -6,-27 -20,-69 -23,-93 -2,-18 -5,-31 -7,-49l-13 -156c0,-43 -1,-66 3,-110 5,-51 18,-93 30,-142l23 -61c3,-8 5,-12 8,-21 5,-15 9,-27 15,-41 32,-74 50,-78 89,-140 24,-36 39,-34 70,-71 12,-14 64,-56 78,-64 35,-17 52,-37 92,-51l39 -18c11,-5 6,-4 23,-6 23,-3 24,-9 41,-14 30,-9 60,-15 88,-25 19,-6 29,-2 49,1 21,3 35,1 55,1 54,-1 137,22 183,47 24,13 -15,2 34,16 29,9 86,62 114,84l73 68 89 124c15,28 9,15 40,17 9,-19 10,-24 0,-47 -14,-34 -43,-65 -62,-95 -4,-7 -10,-13 -12,-18 -6,-12 -3,-11 -11,-22 -19,-24 -42,-43 -65,-63 -1,-1 -1,-1 -2,-2l-44 -41c34,-13 40,-10 72,-2 6,1 4,-1 13,0 11,2 15,6 28,7 33,5 59,16 81,37 1,1 2,3 3,3l24 17c2,1 3,1 7,3 4,2 2,1 5,3 6,5 10,12 18,18l34 38c9,13 2,10 13,23 5,6 2,0 8,10 2,4 4,6 7,11 12,22 9,38 23,59l8 20c14,34 24,72 35,109 3,11 5,16 8,27 8,31 20,96 22,126 2,47 9,88 7,136 -1,45 -3,93 -13,136 -3,13 -6,5 -7,28 -1,11 -1,20 -4,31 -2,11 -2,20 -5,31 -2,9 -5,22 -6,31 -4,23 -3,40 -7,63 -3,12 -7,18 -9,31 -2,9 -3,21 -5,31 -3,17 -12,38 -14,56 -4,21 -5,42 -11,61 -7,21 -7,39 -13,60 -15,57 -30,113 -50,168 -7,19 -13,34 -19,53 -3,12 -3,19 -8,28 -11,23 -20,51 -33,74 -9,16 -13,32 -22,49 -11,21 -10,25 -27,45 -22,-1 -33,3 -55,7 -19,4 -94,17 -109,15 -19,-1 -39,3 -56,7 -17,5 -30,14 -43,23 -17,12 -28,11 -47,18 -6,2 -15,8 -22,11 -9,4 -16,4 -24,7 -39,14 -12,16 -48,17l-1 12c-19,-3 -21,-18 -33,-28 -15,4 1,0 -12,6l-16 -13c-8,-3 -13,-3 -19,-6 -7,-4 -3,-2 -10,-6 -3,-2 -5,-3 -8,-4 -9,-5 -8,-4 -19,-8l-42 -11c-35,-14 -37,7 -48,-9 -9,10 -23,3 -36,3 -15,1 -29,0 -44,0 -72,-1 -176,30 -223,27 -4,-7 -19,-27 -17,-35 1,-10 47,-42 56,-49l111 -100c9,-8 14,-21 26,-26 15,-3 13,5 25,12 23,13 44,24 69,32l34 13c16,8 7,8 22,5 9,-2 23,3 36,3 31,-1 72,-3 101,-10 21,-4 40,-9 65,-10 54,-3 97,-25 143,-44 11,-4 15,-2 26,-10l46 -23c35,-24 37,-33 62,-56 6,-7 9,-12 17,-19 15,-15 40,-44 51,-62 2,-5 4,-8 6,-12 8,-18 14,-21 21,-34l3 -11c3,-8 3,-4 5,-13 0,-2 -1,-65 -1,-67l-19 -18 -67 -9c-14,-1 -25,1 -39,0l-50 -3c-10,0 -4,-2 -12,-2l-132 -10c-14,-2 -18,0 -30,-3 -16,-6 -76,-12 -97,-15 -19,-2 -48,-15 -66,-8l1 19c6,4 17,8 24,6 8,-2 16,-14 15,-14l-4 10c19,1 30,8 49,8 13,1 38,3 44,4 3,1 62,14 89,12 6,12 7,5 13,18 0,0 0,-1 0,-2l5 -10 95 6c0,0 0,-1 0,-1 0,-1 1,-1 1,-2 0,0 0,0 0,0l6 1c17,5 41,5 59,5 31,-1 47,6 74,10 8,51 13,24 22,48 9,22 -5,51 -22,65 -15,13 -8,1 -17,20 -5,13 -17,16 -26,27 -32,41 -58,81 -108,104 -8,4 -5,3 -11,7 -10,6 -12,5 -23,7 -11,3 -21,11 -36,16 -12,5 -11,8 -23,13 -20,8 -31,9 -51,15 -40,14 -86,8 -125,19 -11,3 -15,4 -28,5 -24,0 -47,3 -69,2 -33,-1 -31,-20 -58,-17l-15 -6c-1,0 -2,-1 -2,-1 -1,0 -1,-1 -2,-1 -18,-8 -28,-4 -47,-19 -7,-6 -13,-7 -15,-18 15,6 29,24 40,17 -2,-6 -4,-8 -9,-12 -27,-22 -55,-35 -73,-67 -16,-30 -35,-88 -35,-123 1,-9 2,-14 -2,-18 -4,-5 -12,-6 -16,-1 -13,14 31,136 42,152 5,8 9,15 16,22 9,8 16,6 17,21 -10,-3 -4,-3 -17,-5 -4,12 -13,23 -21,32 -9,9 -19,16 -29,25 -17,15 -37,39 -53,52l-9 -11c-17,-28 -27,-103 -33,-136 -7,-39 0,-28 0,-56 -15,-1 -18,3 -20,16 -4,23 12,65 18,87 6,22 6,39 12,59 5,15 5,18 3,31 -3,22 21,14 -1,34 -4,5 -4,5 -8,10 -8,8 -14,10 -20,16l-7 8c-1,0 8,-3 -3,0 -34,9 -24,51 -52,-28l-31 -76c-8,-15 -12,-35 -21,-50 -5,-8 -10,-15 -12,-24 -5,-17 2,-15 -5,-31 -11,-21 -19,-60 -26,-82 -11,-38 -34,-66 -34,-106l30 -13c11,-6 14,-10 29,-15 12,-3 21,-7 31,-12 5,-3 1,0 5,-3 15,-9 12,-4 25,-10 7,14 16,48 31,53 4,-12 -3,-17 -6,-28 -4,-9 -5,-22 -4,-34 11,-8 4,-4 20,-7 20,-4 28,-18 60,-16 10,1 4,1 8,-1 5,-5 -1,-5 17,-8 18,-3 36,-11 56,-12 35,-2 69,0 105,-1 23,-1 31,-3 48,6 2,1 1,1 5,2 12,6 25,5 38,1l0 -29 -25 2zm-1374 2402c3,-2 1,-2 7,-4l20 -6c2,-1 4,-2 7,-3l5 -3c28,-15 2,-4 44,-21 12,-5 22,-9 29,-11 18,-1 137,-44 155,-50 9,-3 12,-4 19,-7 7,-3 11,-3 20,-6 6,-2 12,-5 18,-7 7,-3 12,-4 19,-7 27,-11 130,-35 163,-42 45,-9 77,-24 117,-36l81 -22c15,-2 29,-3 44,-6 28,-5 64,-5 93,-10 67,-10 112,3 173,24 17,7 22,7 42,10 9,1 12,4 20,6l41 8c19,3 95,3 121,6 46,6 96,12 142,1l85 -9c-1,11 3,4 -10,10l-76 32c-23,8 -48,9 -74,13 -13,2 -18,5 -30,6 -57,2 -114,3 -170,13 -41,7 -90,12 -135,10 -59,-2 -104,-14 -160,-11 -13,0 -10,0 -21,-3 -13,-3 -36,2 -48,-2 -3,0 1,0 -7,-2l-112 -5c-45,2 -94,-2 -138,6 -22,4 -13,2 -26,11 6,8 9,15 22,9 18,-8 38,-7 57,-10l19 0c-1,0 1,1 1,1 19,-1 36,-4 55,-2 19,1 38,0 58,0 20,-1 35,3 56,3 29,0 58,6 79,5l85 4c16,2 35,4 53,5 12,2 15,-1 26,0 42,2 98,3 137,-6 27,-6 173,-16 215,-21 26,-2 49,-8 75,-15 20,-6 18,4 16,-2 16,-15 50,-21 65,-32 10,-6 12,-6 20,-13 36,-30 46,-18 99,-34 35,-11 63,-23 95,-41l44 -22c17,-6 34,-9 48,-19 3,6 1,6 5,14 19,1 32,-29 48,-39 16,-12 41,-18 59,-28l173 -88c10,-6 18,-11 28,-16l60 -27c22,-12 44,-29 67,-41 8,-5 6,-5 12,-8 15,-9 -2,4 34,-5 8,-2 13,0 21,-2 25,-3 60,-21 85,-21 14,-1 2,2 15,-5 7,-3 9,-3 16,-5 12,-2 21,-5 35,-7 11,-1 13,-8 27,-12 35,-12 45,-19 60,-25 29,-9 55,-32 84,-46 25,-11 35,-20 56,-32l58 -27c11,-6 20,-8 29,-13 10,-6 17,-10 30,-15l28 -15c6,-3 11,-4 16,-7 21,-14 48,-25 69,-39l52 -33c10,-6 15,-12 24,-19 32,-22 73,-35 83,-48l43 -50c7,-7 14,-11 19,-18l4 -7c15,-23 38,-42 58,-59l60 -52c18,-14 35,-33 53,-48l43 -42c8,-9 16,-12 23,-21 7,-7 13,-15 20,-23 7,-8 14,-16 20,-24 13,-17 31,-27 45,-43 5,-6 33,-42 39,-44 1,-7 2,-9 6,-15 3,-3 2,-2 6,-5 6,-3 -2,0 5,-2 0,-12 -1,-4 4,-12 0,0 2,-3 3,-5 15,-23 14,-32 19,-42 9,-17 18,-43 16,-65 -6,-54 -9,-17 -11,-46 -4,-7 -7,-18 -14,-22 -10,-3 -10,-6 -18,-10 -34,-19 -8,7 -53,-40 -10,3 -24,7 -33,3 5,-18 8,-2 22,-16 17,-14 8,-45 46,-53l15 0 14 1c3,-6 -1,-1 0,-4 3,-7 4,-3 12,-11 8,-7 0,-4 15,-16 18,-16 31,-20 41,-40 4,-8 2,-5 5,-11 1,-5 0,-2 2,-6 13,-23 15,-30 9,-68 -3,-16 -5,-14 -9,-25 -4,-8 -3,-16 -6,-25 -16,-44 -43,-58 -90,-66 -6,-1 -26,0 -24,-4 4,-10 7,-11 12,-18l19 -37c4,-9 1,-7 5,-11l4 -3c0,-23 6,-56 1,-77 -8,-31 -8,-2 -11,-51 0,-11 0,-3 -1,-9l-3 -10c-11,1 -16,1 -24,-2 -25,-10 -18,1 -31,-21 -5,-9 -7,-8 -10,-17 -3,-7 -3,-5 -8,-6 -17,3 -17,-2 -47,4 -1,0 -6,1 -7,1 -1,0 -14,1 -21,1 2,-9 3,-4 -3,-1 -8,4 -5,3 -22,4 9,-17 13,-12 19,-19 5,-6 10,-19 12,-24 10,-20 22,-56 10,-76 -6,-11 -12,-7 -31,-14 -13,-5 -14,-7 -18,-20 -3,-10 -6,-20 -4,-32l-1 -5c-12,-1 -22,-7 -31,-7 -13,-1 -49,3 -63,8 -16,4 -6,5 -27,8 -8,1 -32,14 -53,19 -35,8 -69,26 -101,44 -19,11 -44,31 -61,46l-37 35c-15,13 -88,82 -96,86 -16,8 -29,19 -43,29 -28,20 -32,29 -54,53 -19,21 -26,13 -52,20 -8,2 -19,3 -29,7 -22,7 -41,16 -63,19 -18,3 -14,10 -42,10 -1,5 10,0 1,6l-107 37 -81 41c-15,9 -34,27 -51,30 -12,2 -8,-1 -15,6 -17,16 -23,9 -44,8 -9,0 -24,2 -38,1 -29,-3 -54,5 -84,5l-5 -1c-13,-2 -36,1 -52,2l37 -85c13,-22 22,-46 32,-68 9,-23 16,-49 24,-73 4,-12 8,-18 12,-29l28 -91c7,-22 9,-43 15,-64l12 -40c2,-4 1,-3 2,-7 10,-25 19,-52 23,-78 5,-26 9,-39 16,-62 13,-40 33,-154 35,-205 1,-50 7,-199 3,-232 -2,-21 -1,-58 -5,-77 -2,-8 -6,-20 -8,-33 -3,-13 0,-23 -3,-35 -2,-10 -3,-26 -7,-34 -11,-22 -12,-37 -18,-61 -3,-14 -7,-14 -12,-27 -14,-44 -29,-90 -50,-130 -11,-22 -19,-48 -30,-70 -4,-9 -6,-18 -12,-25l-74 -88c-16,-13 -36,-18 -55,-25 -26,-8 -55,-30 -82,-38l-50 -10c-6,-1 -11,-5 -14,-5 -10,-2 -59,-5 -67,-1 -8,4 -17,12 -25,13 -12,2 -57,15 -64,12 -20,-6 -34,-20 -55,-26 -21,-6 -38,-15 -59,-21 -53,-14 -49,-11 -101,-19 -34,-6 -66,-7 -103,-1 -14,2 -24,1 -37,4l-131 28c-11,2 -93,42 -110,52 -15,8 -30,11 -43,18l-50 32c-18,8 -13,14 -23,25 -3,4 -7,5 -12,9l-52 48c-5,7 -13,13 -20,19 -16,14 -18,16 -29,32 -3,4 -5,5 -9,9l-48 72c-6,10 -11,16 -16,25 -8,13 -13,29 -19,43 -2,4 -5,6 -7,11 -5,11 -8,20 -11,29 -7,21 -15,38 -20,60 -4,17 -11,26 -18,42 -8,19 -5,28 -11,47 -16,55 -10,116 -15,143 -15,73 8,142 15,214 3,24 2,46 10,69 4,13 3,22 6,34 7,22 12,44 14,66 1,21 3,13 9,29 4,11 5,22 8,33 17,53 36,95 42,156 -10,11 -35,21 -48,30l-50 30c-18,12 -30,20 -49,31 -10,5 -16,11 -25,16 -8,4 -14,12 -22,14 0,6 1,4 -4,3 -1,4 4,3 -6,2 1,4 2,4 -2,3 2,5 3,4 -3,2 -2,5 2,1 -3,4 0,1 -1,1 -2,1 -1,0 -2,0 -3,0 0,8 5,6 -7,5 -4,6 -23,20 -30,27 -22,20 -68,47 -79,57 -4,5 -7,9 -13,12 -1,5 8,7 2,5 -6,5 -6,2 -12,5l-39 29c-5,4 -5,3 -9,6 -7,6 -7,10 -14,19 0,-1 1,-2 1,-3 1,-6 2,0 0,-4 -5,2 -9,3 -13,6l-27 26c-23,22 -10,6 -36,36 -10,12 -24,25 -36,36l-41 49c-2,3 -6,6 -8,9l-4 7c-2,3 0,1 -3,5l-24 47c-7,19 -24,57 -36,73 -8,10 -4,26 -9,39l-7 21c-7,11 6,-10 -4,4l-17 36c-3,7 -21,22 -28,27 -15,14 -24,11 -41,30 -19,21 -45,36 -50,40 -18,17 -45,48 -67,58 -30,14 -1,1 -31,23 -9,7 -21,9 -24,12 -9,7 3,-4 -1,7 -3,8 -13,10 -23,10 4,15 -11,17 -21,26 -4,4 0,1 -6,6l-14 12c-9,9 -14,7 -23,16 -9,8 -24,13 -36,18 0,0 -1,0 -2,1l-16 3c-1,16 -17,20 -27,27l-15 11c-9,6 -9,4 -7,14 -4,-11 -7,-4 -10,-2l-8 6c0,1 -1,1 -1,2 -1,0 -1,0 -2,1 -10,7 -18,4 -22,6l-7 6c-7,4 -12,1 -12,13 -1,30 53,-14 64,-21 8,-4 5,-1 12,-7l32 -22c8,-5 14,-11 23,-16 85,-45 57,-39 109,-76 9,-7 32,-28 44,-30 9,10 6,21 9,35 2,12 7,22 9,35l19 68c15,42 27,87 45,129 5,11 10,19 13,31 7,22 18,39 28,59l46 85c16,27 19,44 29,54 10,-1 11,-3 16,-7 1,-26 -5,-12 -15,-29l-38 -68c0,0 -1,-1 -1,-1l-61 -119c-4,-7 -5,-4 -8,-12 -3,-7 -1,-10 -4,-19 -2,-6 -4,-8 -7,-16 -16,-42 -27,-91 -42,-132 -10,-28 -21,-84 -20,-113 26,-17 47,-37 71,-55l38 -27c13,-9 19,-25 37,-24 -1,29 -4,90 10,118l12 31c2,5 6,7 9,14 7,16 9,31 15,48l28 57c3,5 4,11 7,16l52 97c5,10 10,16 16,28 5,8 10,18 16,27 34,55 1,42 25,57 10,-3 -3,5 4,-2l2 -3c2,-4 1,-1 3,-6 1,-7 1,-15 -2,-20 -2,-7 -12,-23 -16,-28 -11,-17 -25,-38 -34,-55l-63 -114c-5,-11 -8,-21 -15,-31 -7,-12 -8,-17 -14,-30l-25 -62c-13,-33 -22,-76 -21,-113 0,-22 0,-25 -2,-42 18,-10 11,-6 34,-8 2,-3 13,-20 15,-23 5,-9 5,-19 11,-28l18 -40c11,-24 13,-47 23,-71 8,-18 16,-34 25,-51 8,-16 16,-37 24,-52 8,-13 56,-71 70,-82 8,-6 13,-10 18,-20 6,-10 8,-11 17,-19 25,-24 33,-22 56,-48 6,-7 -9,3 2,-2l5 -2c2,-1 4,-2 5,-3 5,-3 6,-5 10,-8 8,-8 12,-11 21,-17l62 -52c15,-10 30,-19 45,-32l66 -46c4,-5 4,-6 11,-10 11,-4 4,2 12,-6 15,-14 24,-23 48,-27 0,-9 0,-6 5,-12 4,1 2,1 9,3 8,-13 1,-5 12,-10 12,-5 2,0 13,-11 11,-11 29,-17 43,-25l28 -18c8,-7 3,-6 7,-14 -3,6 1,-1 -2,8l15 -3c2,10 5,17 9,27 13,31 -6,21 34,92 4,7 3,2 8,10 9,15 12,37 20,52l26 79c17,35 60,115 60,152l-12 2c-20,7 -24,15 -47,6l-28 -13c-10,-6 -12,-9 -25,-13 -41,-11 -94,-13 -138,-22 -2,-3 -12,-19 -13,-23 -4,-11 2,-16 1,-31 -47,-22 -9,47 -6,55 -13,-1 -26,0 -39,1 -17,1 -24,-1 -40,-2 -10,14 0,11 -21,15 -12,2 -14,7 -12,18 23,8 21,-10 46,-5 15,3 33,0 51,-1l6 -16c16,-1 19,1 27,10 5,5 13,13 16,18 15,-6 14,-17 56,-9 17,3 28,16 39,11 1,0 1,0 2,-1l5 -3c7,-2 18,6 22,8 14,10 30,17 46,22 11,4 11,1 17,13 10,-1 13,-3 22,1 2,1 10,5 10,5 7,5 4,-1 7,9l-20 4 0 27c-27,2 -11,-6 -29,-15 6,11 9,4 10,19 -27,9 -32,-2 -48,-12 -2,-2 -5,-3 -7,-4 -12,-8 -54,-24 -67,-28 -16,-6 -68,-12 -75,1 24,3 61,-6 94,14 14,9 29,13 45,21 0,28 -9,11 0,36 17,-2 13,-3 21,-13 13,1 16,9 26,3 9,-5 1,-10 23,-8 0,1 0,2 1,2l4 11c0,-20 2,-20 26,-26 19,-5 22,-4 36,-14 11,10 6,2 14,18 9,20 16,43 26,60 5,9 13,28 19,41 3,6 6,15 10,20l43 75c19,40 49,34 23,104l-40 79c-4,8 -5,13 -10,21 -4,7 -5,9 -9,18 -7,17 -14,22 -20,37 -11,26 -25,39 -33,56 -6,13 -57,73 -67,77 -15,-26 -62,-133 -68,-161 -2,-12 -10,-53 -20,-45 -7,5 2,20 3,27 5,25 19,62 31,84 9,18 15,37 24,54 8,15 23,36 21,58l-90 94c-33,34 -45,37 -77,62 -22,18 -85,46 -111,59 -5,-1 -11,-4 -9,-6 -25,3 -48,-1 -70,-1 -26,1 -66,-5 -95,-8 -22,-2 -14,2 -31,3 -19,1 -45,-14 -57,3 32,2 97,8 125,7 19,-1 35,4 55,4 11,0 22,0 33,0 8,0 20,0 27,5 -6,8 -3,3 -14,8 -37,18 -74,41 -113,56 -9,4 -15,9 -23,13 -18,12 -39,19 -43,30 15,0 22,-5 32,-11 24,-15 85,-42 115,-56l88 -41c79,-38 123,-59 184,-118l82 -90c8,-9 13,-14 19,-22 28,-30 53,-63 75,-97 22,-33 40,-75 60,-111 12,-22 35,-64 42,-87l5 -24c3,-6 3,-5 5,-8l64 129c4,9 13,16 11,25 0,0 -2,6 -3,7 0,3 -1,4 -2,9 -13,56 -22,69 -48,121l-2 5c-10,23 -15,26 -25,44 -33,65 -54,82 -101,126 -8,8 -12,12 -20,19 -8,7 -14,12 -21,18 -9,6 -14,9 -22,16 -27,25 -61,42 -92,59 -8,5 -14,9 -25,14l-75 38c-7,5 -13,11 -21,18 -10,7 -17,5 -14,19 11,4 13,-1 22,-6 8,-4 13,-6 21,-10 7,-4 10,-9 18,-13l103 -51c14,-7 26,-16 38,-23 8,-5 10,-8 18,-13l53 -39c10,-8 21,-22 32,-30 12,-8 21,-20 31,-30 10,-10 20,-23 28,-34 18,-25 34,-42 49,-74 25,-49 65,-112 77,-164l20 30c13,16 13,22 26,36l34 53c21,32 32,126 31,168 -14,0 -13,4 -22,12l-52 40c-14,9 6,11 -35,29 -7,3 -14,9 -20,11 -17,6 -3,-3 -18,8 -12,9 -70,31 -88,38l-106 53c-39,22 -86,35 -128,59l-140 77c-18,13 -23,8 -40,14 -5,2 -2,0 -6,3 4,26 23,19 39,10 15,-7 24,-17 39,-25 42,-22 80,-45 120,-70 39,-24 86,-39 128,-60 28,-14 57,-30 85,-42l34 -15c4,-2 6,-4 9,-6 6,-2 18,-4 25,-7 25,-9 83,-37 105,-50 7,-4 15,-9 21,-13 8,-5 9,-9 17,-14 9,-4 3,2 9,-5 7,-8 7,-18 22,-25 5,8 13,92 14,112 0,14 0,51 -3,63l-25 54c-4,5 1,-1 -4,4 -15,19 -28,40 -42,58l-23 41c-4,8 -23,35 -15,42 11,10 17,-21 21,-29l16 -31c10,-10 7,-13 19,-23l11 -12c6,-11 35,-58 44,-63 -1,14 -3,29 -2,42 4,42 -12,130 -20,174 -2,10 -5,20 -8,30l-15 65c-6,31 -49,139 -64,169 -7,13 -9,12 -6,31l16 0c7,-11 5,-12 9,-25 2,-10 6,-15 9,-22 9,-22 15,-44 26,-65l47 -171c22,-105 21,-117 25,-224 1,-22 -1,-38 3,-60l1 -117c-3,-15 -7,-2 -11,-18 -7,-21 -3,-62 -6,-86 -1,-9 -2,-19 -3,-29 -5,-34 -3,-22 3,-28 4,10 3,14 10,26 4,8 6,16 9,24 7,19 12,33 22,47 20,28 2,28 27,43 10,5 8,12 15,20 8,8 18,9 27,5 6,-7 4,-9 8,-20 7,-17 4,-3 12,-13 6,-7 2,-15 4,-24l65 -123c5,-8 11,-11 16,-20l46 -75c0,-1 1,-1 2,-2 1,27 -3,27 3,54 18,67 1,122 4,165 1,21 5,30 3,55 -1,14 1,15 1,27 0,14 -2,16 -3,28 -2,21 1,40 3,59l26 127c14,42 2,47 48,103 11,13 15,23 23,38 8,14 18,49 24,68 7,21 29,35 35,57l-17 -15c-15,-17 -26,-6 -18,7 6,9 44,29 2,91 -20,29 -117,51 -153,75 -11,8 -12,9 -25,14 -8,3 -16,8 -25,11l-30 8c-15,6 -75,18 -91,20 -21,3 -42,9 -65,11l-72 7c-63,7 -84,-3 -130,-1 -29,0 -105,-8 -138,-14 -5,0 -12,-3 -17,-3 -21,-3 -40,-7 -61,-14 -9,-4 -5,0 -11,-7 -29,-39 -13,-4 -92,-25 -25,-7 -41,-7 -67,-18 -33,-13 -20,-11 -65,-22l-64 -21c-11,-4 -24,-5 -36,-8 -14,-3 -19,-8 -31,-11 -10,-4 -23,-6 -35,-10 -11,-4 -19,-8 -31,-10 -2,-1 -10,-1 -11,-1 -12,-3 -3,-1 -8,-3l-30 -14c-12,-7 -72,-23 -83,-22 -6,7 -8,12 -10,25 18,7 5,7 31,8 19,0 36,5 53,12 7,3 1,0 7,3 0,1 1,1 2,1l3 2c3,1 7,3 11,4 10,3 15,6 26,8 28,5 50,14 77,23l79 23c11,2 17,7 24,10 8,2 20,2 30,4 18,3 61,24 71,24l-61 10c-23,4 -44,3 -65,6 -20,3 -40,7 -61,11 -8,1 -21,2 -30,6l-10 4c-1,0 -1,0 -2,0 -1,1 -9,4 -11,5 -42,20 -168,52 -221,62 -48,10 -89,29 -134,42 -14,5 -12,6 -26,10 -28,9 -53,20 -80,26 -12,3 -17,4 -27,9 -21,10 -43,14 -64,23 -12,5 -60,16 -64,23 -5,6 -4,22 3,27zm1164 -1650c-4,-7 -2,-10 -5,-15l24 18c24,17 48,44 67,69 19,25 37,106 39,142 -11,-5 -7,-8 -20,-27l-2 -4c0,0 -2,-2 -2,-3 -5,-8 -7,-7 -12,-16l-39 -74c-7,-13 -4,-5 -10,-15 -1,-16 6,-16 5,-36 -16,2 -8,5 -19,10l-26 -49zm634 -158c15,-5 -11,5 3,-2 0,-1 -3,-1 2,-1 3,0 6,8 6,0l-1 -5c11,-5 21,-11 36,-12 30,-1 83,19 106,35 0,20 -19,45 -26,62 -5,12 -9,17 -15,29l-23 44c-4,7 -4,5 -8,12 -4,6 -4,9 -7,16 -3,4 -6,8 -8,13l-75 130c-15,26 -31,47 -43,74l-39 66c-2,-21 -3,-39 -3,-64 0,-25 2,-39 -3,-63 -20,-91 23,-104 -14,-102 -6,29 -5,47 -6,76 -1,18 9,28 7,78 -3,86 15,78 -25,144l-97 144c-18,24 -12,19 -25,40 -3,5 -6,7 -10,13l-9 11c-6,-7 -9,-11 -14,-17 -9,-12 -22,-42 -29,-58 -17,-38 -46,-72 -72,-105l-23 -36c-11,-16 -18,-69 -22,-93 -4,-25 -44,-165 -52,-184l-37 -81c-11,-24 -17,-34 -34,-53 -5,-6 -11,-10 -14,-18 22,2 45,13 65,21l34 20 47 45c15,14 32,31 45,48l21 32c11,12 12,22 28,22 2,-9 2,-9 -2,-17 -7,-18 -22,-28 -34,-43 -4,-5 -3,-5 -7,-10l-5 -6c-4,-3 -1,-1 -4,-4 0,0 -1,-1 -1,-1l-45 -47c-3,-3 -3,-3 -5,-5 -12,-13 -24,-23 -38,-32 -1,0 -3,-2 -3,-2 -3,-1 -4,-2 -7,-4 -29,-15 -65,-24 -93,-36 -39,-16 -40,-47 -58,-59 -12,-9 -16,3 -20,11l-24 -1 10 6c-1,31 38,24 70,59 4,5 4,6 9,12 3,4 6,7 9,10 15,16 26,32 34,51 7,17 24,35 30,55l10 25c10,23 14,48 22,72 1,4 4,10 5,14 7,18 40,139 35,147 -42,-63 -31,-40 -41,-113l-12 -65c-6,-28 -17,-59 -33,-81 -16,-22 -6,-9 -12,-21l-19 -21c-30,-28 -54,-39 -65,-49 -9,-7 -12,-12 -20,-19 -10,-7 -15,-10 -14,-22 -4,5 -1,4 -9,4l-39 -63c6,-5 27,-9 40,-12 8,-1 12,-1 21,-3 17,-5 39,-4 57,-9 6,-2 29,-1 40,-3 11,15 3,7 19,18 8,6 14,13 21,18 13,10 25,25 36,38 -11,2 -7,-3 -7,12 8,-2 2,0 7,-4 13,-10 -5,1 4,-4 3,6 6,11 13,13 0,0 1,-1 1,-2 3,-15 2,5 1,-5 -1,-9 -23,-32 -28,-39 -19,-24 -27,-15 -28,-48 7,-1 19,-2 21,-2l12 6c0,0 1,1 2,1l5 -7c1,14 0,5 4,9 10,-1 9,0 17,-1 7,-1 -1,-3 8,-1 15,5 5,13 41,14l-3 -16c51,13 56,-6 127,39 7,5 4,3 12,7 10,5 12,15 25,23 19,12 5,1 13,17 3,6 10,10 15,19 5,7 7,14 12,22l67 120c7,-7 1,-11 -3,-18 -10,-16 -27,-70 -36,-85 -12,-18 -26,-40 -30,-62 8,3 4,4 12,7 11,5 -2,5 12,1 0,-23 -3,-11 -14,-23 9,-7 29,-21 42,-25 5,-1 2,-1 6,1l3 2c0,0 2,1 1,1 0,1 1,2 2,2l4 -12c0,1 1,2 1,2l4 14c13,-12 1,-20 28,-20 10,1 0,5 12,-2 -9,-9 3,3 -5,-2 -5,-3 -2,3 -5,-4 12,-1 10,-6 20,-6 17,0 1,1 12,8 19,-21 16,0 35,-21 8,2 10,8 16,3 8,-7 -6,1 -3,-7 20,-5 16,-4 21,0z"/>
  <path class="fil0 str1" d="M1888 1299c12,-7 11,-17 4,-30 -13,-23 -10,-97 -6,-123 2,-14 17,-84 22,-91 15,-24 4,-21 21,-46 5,-9 12,-21 20,-25 1,-1 34,-12 35,-12 16,-3 23,8 31,13 12,6 4,-3 14,9l45 55c9,13 12,8 16,40 7,54 15,86 -13,134l-27 41c-4,6 0,1 -6,6l-3 3c-15,12 -28,4 -53,-7 -25,-11 -33,-48 -38,-76 -1,-6 -2,-13 -3,-19 -2,-11 2,-46 4,-60 3,-15 4,-7 7,-16 3,-7 3,-12 -5,-12l-10 5c-19,8 -15,11 -21,31 -13,44 -11,70 2,114 18,63 14,29 32,60 5,10 32,22 45,23 30,3 66,-6 91,-18 66,-32 83,-198 46,-272 -21,-42 -28,-39 -44,-58 -29,-32 -85,-48 -126,-37 -36,9 -31,15 -54,35 -28,22 -49,85 -62,121 -21,65 -7,88 -6,120 0,20 2,60 16,74 8,7 17,17 26,18z"/>
  <path class="fil1 str1" d="M406 3409c17,0 18,2 24,-12 4,-10 2,-20 2,-29 0,-14 8,-46 11,-62 10,-45 18,-79 21,-128 1,-20 4,-44 8,-63 3,-14 6,-123 3,-142 -6,-47 -24,-92 -54,-128 -6,-7 -11,-15 -18,-21l-89 -95c-6,-6 -11,-14 -16,-22 -12,-17 -14,-16 -22,-33 -2,-6 -3,-6 -8,-12l-32 -61c-3,-8 -2,-5 -6,-12 -11,-19 -4,-19 -14,-23 2,24 5,37 15,54l40 68c13,15 19,33 46,61 25,25 45,49 69,75 5,7 11,11 17,19 25,28 25,31 41,66 14,29 23,86 18,125l-8 135c-2,25 -6,42 -8,65l-19 89c-2,9 -7,19 -9,26 -3,10 -4,18 -7,29 -4,14 -7,10 -5,31z"/>
  <path class="fil1 str1" d="M119 2618c-1,12 7,32 11,42l13 43c4,13 7,29 12,42 21,52 9,59 24,111 1,1 1,2 1,2 1,5 3,57 7,76l4 19c9,45 5,59 14,96 5,16 9,111 7,127l-4 51c-2,40 0,12 -8,48 -3,18 -4,29 -11,45 -3,6 -8,13 -9,21 -1,18 22,19 26,1 1,-8 -1,-17 1,-27 2,-15 8,-29 10,-45 14,-84 7,-123 0,-204l-16 -119c-1,-8 -1,-17 -3,-25 -6,-31 -7,-67 -16,-95 -4,-12 -3,-30 -7,-44 -3,-14 -5,-30 -9,-46l-23 -88c-7,-37 -11,-34 -24,-31z"/>
  <path class="fil1 str1" d="M3838 1873l11 -11c0,0 0,-1 0,-2l2 -3c0,6 -7,6 14,6 0,-1 -1,-2 -2,-3 -10,-14 -8,-5 -8,-5l14 -5c1,0 3,-2 4,-2 -4,-9 2,-18 -11,-8 27,-2 21,-20 21,-46 7,-2 6,-2 17,-3 1,-20 3,-14 6,-26 0,-1 1,-6 1,-7l2 -12c4,-38 2,-34 -8,-52 -6,-11 -2,-17 -10,-18l-7 1c0,1 0,2 0,2l-1 4c-1,15 7,3 1,38l-5 -13c-10,-24 -3,-41 -18,-63 -11,-15 -6,-7 -12,-25 -17,2 -11,5 -25,-1 -9,-5 -14,-6 -26,-7l1 5c3,9 5,8 10,17 13,22 6,11 31,21 8,3 13,3 24,2l3 10c1,6 1,-2 1,9 3,49 3,20 11,51 5,21 -1,54 -1,77l-4 3c-4,4 -1,2 -5,11l-19 37c-5,7 -8,8 -12,18z"/>
  <path class="fil1 str1" d="M3791 1611c-1,-1 -5,-7 -12,-8 -5,-1 -18,4 -24,2l-8 -8 -18 7c-2,-4 -1,2 1,-4 0,-1 1,-3 2,-6l-13 -3 18 -45c1,-3 1,-4 3,-8l4 -12c5,-16 3,-11 -1,-24 -4,-2 -5,0 -7,1 -2,-12 -2,-4 -5,-10 -5,-9 -1,1 -4,-12 -4,-13 -34,-44 -48,-46 -2,12 1,22 4,32 4,13 5,15 18,20 19,7 25,3 31,14 12,20 0,56 -10,76 -2,5 -7,18 -12,24 -6,7 -10,2 -19,19 17,-1 14,0 22,-4 6,-3 5,-8 3,1 7,0 20,-1 21,-1 1,0 6,-1 7,-1 30,-6 30,-1 47,-4z"/>
  <path class="fil1 str1" d="M2363 2928c4,-5 3,-5 3,-14 -10,-4 -15,-5 -25,-9l-74 -36c-23,-10 -12,-7 -23,-13 -26,-15 -45,-12 -59,-33 -7,-9 -2,-8 -12,-9 -16,30 50,47 59,52 51,27 50,27 106,50l25 12z"/>
  <path class="fil1 str1" d="M3890 2264c-6,-12 4,-9 -7,-21 -21,-24 -10,-20 -40,-27l-24 -9 -2 -15c7,-2 10,-4 16,-9 11,-9 1,-4 24,-23 7,-6 7,-2 12,-12l-15 0c-38,8 -29,39 -46,53 -14,14 -17,-2 -22,16 9,4 23,0 33,-3 45,47 19,21 53,40 8,4 8,7 18,10z"/>
  <path class="fil1 str1" d="M3934 2055c10,-11 16,-30 11,-49 -5,-20 -24,-80 -41,-92l-30 -11 18 12c6,4 4,-1 12,12 7,9 14,39 15,49l-9 2c0,1 -4,0 -5,0 2,10 2,8 8,13l-8 9c7,3 11,-20 11,17 -15,-4 -3,0 -14,-7 -4,-3 -2,-1 -4,-3 0,0 18,15 25,16l3 1c0,0 2,0 3,1 3,2 6,22 5,30z"/>
  <path class="fil1 str1" d="M1191 2773c14,-6 8,-39 7,-51 -1,-50 -5,-76 -8,-123 -1,-17 6,-50 -5,-61 -12,15 -6,94 -2,114 8,37 5,114 8,121z"/>
  <path class="fil1 str1" d="M1530 2398c-53,-12 -49,6 -142,-29 -9,-4 -6,-3 -14,-7 -10,-6 -14,-10 -24,-15 -38,-18 -31,-29 -47,-26 -2,3 -2,0 -2,7 -1,6 -3,6 15,14l80 41c17,9 121,22 128,20 8,-2 2,3 6,-5z"/>
  <path class="fil1 str1" d="M2368 2871c-1,-14 -6,-13 -16,-18 -10,-5 -13,-10 -21,-15 -39,-26 -35,-21 -70,-56 -3,-3 -6,-5 -9,-9l-17 -19c-4,-4 -11,-19 -19,-11 -13,12 19,32 26,38 13,11 22,24 37,34 5,3 6,3 12,7 17,12 9,10 38,26l25 18c8,5 2,4 14,5z"/>
  <path class="fil1 str1" d="M2576 2923l0 -15c-26,-9 -81,-19 -103,-41 -2,-2 -20,-27 -25,-11 -5,14 38,39 53,43 16,4 62,22 75,24z"/>
 </g>
</svg>
