<?xml version="1.0" encoding="UTF-8"?>
<!DOCTYPE svg PUBLIC "-//W3C//DTD SVG 1.1//EN" "http://www.w3.org/Graphics/SVG/1.1/DTD/svg11.dtd">
<!-- Creator: CorelDRAW X6 -->
<svg xmlns="http://www.w3.org/2000/svg" xml:space="preserve" width="30mm" height="30mm" version="1.1" style="shape-rendering:geometricPrecision; text-rendering:geometricPrecision; image-rendering:optimizeQuality; fill-rule:evenodd; clip-rule:evenodd"
viewBox="0 0 3000 3000"
 xmlns:xlink="http://www.w3.org/1999/xlink">
 <defs>
  <style type="text/css">
   <![CDATA[
    .str2 {stroke:#2B2A29;stroke-width:30;stroke-linecap:round;stroke-linejoin:round}
    .str1 {stroke:#2B2A29;stroke-width:40;stroke-linecap:round;stroke-linejoin:round}
    .str0 {stroke:#2B2A29;stroke-width:60;stroke-linecap:round;stroke-linejoin:round}
    .fil2 {fill:none}
    .fil1 {fill:#FEFEFE}
    .fil0 {fill:url(#id0)}
   ]]>
  </style>
  <linearGradient id="id0" gradientUnits="userSpaceOnUse" x1="155" y1="1194.17" x2="2774.83" y2="1896.15">
   <stop offset="0" style="stop-color:#C5C6C6"/>
   <stop offset="0.129412" style="stop-color:#E1E2E2"/>
   <stop offset="1" style="stop-color:#FEFEFE"/>
  </linearGradient>
 </defs>
 <g id="Layer_x0020_1">
  <metadata id="CorelCorpID_0Corel-Layer"/>
  <path class="fil0 str0" d="M395 682c-45,-37 -41,-231 143,-100 99,70 -46,54 195,64 212,9 391,11 606,48 144,25 270,17 449,59 193,46 641,115 781,307 16,23 112,125 113,129 20,0 238,-131 244,19 1,12 -113,88 -127,169 -1,10 -77,187 -98,293 -23,122 -81,517 -140,600 -134,188 -17,262 -139,335 -58,34 54,-180 -250,-74 -225,79 -1008,-94 -1239,-184 -233,-90 -388,-232 -561,-422 -170,-186 -174,40 -271,-62 -98,-103 147,-82 85,-402 -24,-121 151,-594 233,-685 18,-20 -18,-89 -24,-94z"/>
  <path class="fil1 str0" d="M2539 1286c-138,117 -219,433 -249,613 -24,146 -22,326 55,448 8,12 138,-311 166,-362 40,-69 81,-216 77,-302 -4,-100 51,-328 -49,-397 -7,-4 16,-14 0,0z"/>
  <path class="fil2 str0" d="M1817 1397c57,-4 356,-142 386,-189"/>
  <path class="fil2 str0" d="M2012 1590c60,5 150,85 181,83"/>
  <path class="fil2 str0" d="M1993 1971c38,41 53,91 58,146"/>
  <path class="fil2 str1" d="M737 1003c253,0 184,11 42,145 -11,11 -227,166 -86,91 60,-33 128,38 200,38"/>
  <path class="fil2 str1" d="M976 1213c130,0 215,33 41,124 -14,8 -266,191 -127,102 47,-30 117,100 140,33"/>
  <path class="fil2 str1" d="M1118 1438c28,-6 204,0 224,6 4,33 -498,394 -349,261 119,-105 238,114 321,31"/>
  <path class="fil2 str2" d="M1698 2248c-77,8 -496,27 -395,-188 66,-139 229,104 -104,46 -128,-23 26,-305 40,-107 5,68 -306,27 -182,-153 10,-15 68,6 12,80 -33,43 -195,29 -186,-86"/>
  <path class="fil2 str1" d="M678 1125c142,0 80,25 161,25"/>
  <path class="fil2 str1" d="M1103 1565c135,0 28,49 132,49"/>
  <path class="fil2 str1" d="M923 1335c73,0 80,54 122,54"/>
 </g>
</svg>
