<?xml version="1.0" encoding="UTF-8"?>
<!DOCTYPE svg PUBLIC "-//W3C//DTD SVG 1.1//EN" "http://www.w3.org/Graphics/SVG/1.1/DTD/svg11.dtd">
<!-- Creator: CorelDRAW X6 -->
<svg xmlns="http://www.w3.org/2000/svg" xml:space="preserve" width="20mm" height="20mm" version="1.1" style="shape-rendering:geometricPrecision; text-rendering:geometricPrecision; image-rendering:optimizeQuality; fill-rule:evenodd; clip-rule:evenodd"
viewBox="0 0 2000 2000"
 xmlns:xlink="http://www.w3.org/1999/xlink">
 <defs>
  <style type="text/css">
   <![CDATA[
    .str0 {stroke:#2B2A29;stroke-width:2.66667}
    .fil0 {fill:#4F028B}
   ]]>
  </style>
 </defs>
 <g id="Layer_x0020_1">
  <metadata id="CorelCorpID_0Corel-Layer"/>
  <path class="fil0 str0" d="M719 1455c-22,64 -61,310 -207,357 -218,72 -505,-250 -297,-445 278,-261 302,-296 439,-663 21,-57 99,-262 149,-324 42,-53 78,-88 187,-30 79,41 345,249 398,322 73,101 -33,125 -124,185 -426,284 -459,343 -545,598z"/>
  <path class="fil0 str0" d="M1504 394c20,-29 52,-42 99,-36 96,11 190,90 62,222 -95,99 -317,132 -234,-63 14,-32 41,-76 73,-123z"/>
  <path class="fil0 str0" d="M1412 468c-135,111 -161,-76 -48,-126 36,-19 124,32 48,126z"/>
  <path class="fil0 str0" d="M1305 301c5,23 -19,110 -64,115 -17,1 -45,-14 -65,-49 -20,-34 42,-87 86,-97 27,-6 36,9 43,31z"/>
  <path class="fil0 str0" d="M1167 273c-2,17 -22,46 -45,54 -32,11 -74,-10 -59,-61 15,-53 131,-82 104,7z"/>
  <path class="fil0 str0" d="M1025 244c-39,89 -152,-1 -30,-47 8,-3 48,3 33,38l-3 9z"/>
 </g>
</svg>
