<?xml version="1.0" encoding="UTF-8"?>
<!DOCTYPE svg PUBLIC "-//W3C//DTD SVG 1.1//EN" "http://www.w3.org/Graphics/SVG/1.1/DTD/svg11.dtd">
<!-- Creator: CorelDRAW X6 -->
<svg xmlns="http://www.w3.org/2000/svg" xml:space="preserve" width="20mm" height="20mm" version="1.1" style="shape-rendering:geometricPrecision; text-rendering:geometricPrecision; image-rendering:optimizeQuality; fill-rule:evenodd; clip-rule:evenodd"
viewBox="0 0 2000 2000"
 xmlns:xlink="http://www.w3.org/1999/xlink">
 <defs>
  <style type="text/css">
   <![CDATA[
    .str0 {stroke:#2B2A29;stroke-width:2.66667}
    .fil0 {fill:#4F028B}
   ]]>
  </style>
 </defs>
 <g id="Layer_x0020_1">
  <metadata id="CorelCorpID_0Corel-Layer"/>
  <path class="fil0 str0" d="M631 1311c-53,42 -270,163 -265,316 7,230 408,389 520,128 151,-351 175,-386 473,-640 46,-39 212,-182 254,-251 34,-57 55,-103 -36,-186 -66,-60 -352,-239 -439,-264 -120,-33 -106,74 -132,181 -121,496 -165,547 -375,716z"/>
  <path class="fil0 str0" d="M1359 210c21,-29 22,-63 1,-106 -44,-85 -150,-146 -230,19 -61,123 -17,343 138,198 26,-24 58,-64 91,-111z"/>
  <path class="fil0 str0" d="M1321 322c-58,164 127,125 135,2 6,-40 -73,-106 -135,-2z"/>
  <path class="fil0 str0" d="M1515 366c-24,2 -97,55 -86,99 4,16 28,37 67,44 40,7 68,-69 62,-114 -3,-27 -20,-31 -43,-29z"/>
  <path class="fil0 str0" d="M1589 486c-16,8 -36,36 -36,60 1,34 35,66 77,35 45,-32 32,-151 -41,-95z"/>
  <path class="fil0 str0" d="M1665 609c-71,67 52,143 54,12 0,-8 -19,-44 -47,-18l-7 6z"/>
 </g>
</svg>
