<?xml version="1.0" encoding="UTF-8"?>
<!DOCTYPE svg PUBLIC "-//W3C//DTD SVG 1.1//EN" "http://www.w3.org/Graphics/SVG/1.1/DTD/svg11.dtd">
<!-- Creator: CorelDRAW X6 -->
<svg xmlns="http://www.w3.org/2000/svg" xml:space="preserve" width="40mm" height="40mm" version="1.1" style="shape-rendering:geometricPrecision; text-rendering:geometricPrecision; image-rendering:optimizeQuality; fill-rule:evenodd; clip-rule:evenodd"
viewBox="0 0 4000 4000"
 xmlns:xlink="http://www.w3.org/1999/xlink">
 <defs>
  <style type="text/css">
   <![CDATA[
    .str0 {stroke:#2B2A29;stroke-width:5.33333}
    .fil0 {fill:none}
    .fil1 {fill:#1C1B17}
   ]]>
  </style>
 </defs>
 <g id="Layer_x0020_1">
  <metadata id="CorelCorpID_0Corel-Layer"/>
  <rect class="fil0 str0" x="652" y="957" width="2666" height="2145"/>
  <path class="fil0 str0" d="M688 731c78,-128 475,-307 632,-305 245,3 537,106 707,306 17,19 236,-268 493,-274 86,-2 493,-71 684,223 87,132 20,10 195,-73 117,-56 357,108 316,244 -62,205 -121,261 -106,267 278,110 158,759 -21,899 107,158 237,399 161,626 -49,147 -95,148 -212,282 178,173 211,280 175,359 -32,73 -138,194 -242,204 -96,9 -187,6 -258,-138 -1,0 -17,35 -101,87 -224,141 -476,183 -736,28 -105,-63 -211,-145 -278,-185 -184,215 -326,351 -644,354 -253,2 -612,-203 -687,-310 -60,-85 -135,368 -455,38 -99,-102 -84,-399 123,-399 2,0 -131,-225 -143,-273 -46,-179 -48,-380 -16,-557 28,-160 85,-196 173,-242 23,-11 -122,-137 -152,-203 -38,-83 -131,-362 -4,-536 20,-27 39,-37 92,-50 -65,-112 -222,-379 -2,-477 180,-81 222,33 306,105z"/>
  <path class="fil1" d="M1320 426c-157,-2 -554,177 -632,305 -84,-72 -126,-186 -306,-105 -220,98 -63,365 2,477 -53,13 -72,23 -92,50 -127,174 -34,453 4,536 30,66 175,192 152,203 -88,46 -145,82 -173,242 -32,177 -30,378 16,557 12,48 145,273 143,273 -207,0 -222,297 -123,399 320,330 395,-123 455,-38 75,107 434,312 687,310 318,-3 460,-139 644,-354 67,40 173,122 278,185 260,155 512,113 736,-28 84,-52 100,-87 101,-87 71,144 162,147 258,138 104,-10 210,-131 242,-204 36,-79 3,-186 -175,-359 117,-134 163,-135 212,-282 76,-227 -54,-468 -161,-626 179,-140 299,-789 21,-899 -15,-6 44,-62 106,-267 41,-136 -199,-300 -316,-244 -175,83 -108,205 -195,73 -191,-294 -598,-225 -684,-223 -257,6 -476,293 -493,274 -170,-200 -462,-303 -707,-306zm-668 531l2667 0 0 2145 -2667 0 0 -2145z"/>
 </g>
</svg>
