<?xml version="1.0" encoding="UTF-8"?>
<!DOCTYPE svg PUBLIC "-//W3C//DTD SVG 1.1//EN" "http://www.w3.org/Graphics/SVG/1.1/DTD/svg11.dtd">
<!-- Creator: CorelDRAW X6 -->
<svg xmlns="http://www.w3.org/2000/svg" xml:space="preserve" width="400mm" height="400mm" version="1.1" style="shape-rendering:geometricPrecision; text-rendering:geometricPrecision; image-rendering:optimizeQuality; fill-rule:evenodd; clip-rule:evenodd"
viewBox="0 0 40000 40000"
 xmlns:xlink="http://www.w3.org/1999/xlink">
 <defs>
  <style type="text/css">
   <![CDATA[
    .str0 {stroke:#2B2A29;stroke-width:53.3333}
    .fil1 {fill:none}
    .fil2 {fill:#1C1B17}
    .fil0 {fill:#FEFEFE}
   ]]>
  </style>
 </defs>
 <g id="Layer_x0020_1">
  <metadata id="CorelCorpID_0Corel-Layer"/>
  <rect class="fil0 str0" x="3730" y="7769" width="32004" height="25456"/>
  <path class="fil1 str0" d="M5619 6068c862,-1410 5247,-3390 6991,-3367 2708,34 5934,1176 7819,3384 181,213 2607,-2969 5445,-3033 956,-21 5458,-779 7573,2463 955,1465 213,119 2154,-804 1298,-618 3944,1196 3492,2701 -679,2262 -1337,2888 -1165,2957 3066,1216 1741,8388 -238,9936 1189,1746 2627,4414 1784,6923 -549,1633 -1050,1645 -2350,3120 1971,1916 2336,3097 1942,3978 -360,806 -1527,2144 -2676,2250 -1065,98 -2073,71 -2863,-1520 -3,-6 -188,388 -1107,963 -2488,1557 -5273,2018 -8145,302 -1165,-696 -2338,-1595 -3079,-2038 -2029,2377 -3598,3881 -7116,3909 -2804,22 -6772,-2247 -7602,-3428 -661,-941 -1489,4071 -5031,422 -1093,-1126 -934,-4413 1358,-4413 17,0 -1449,-2493 -1584,-3019 -506,-1981 -532,-4205 -180,-6166 317,-1763 940,-2167 1921,-2669 252,-129 -1351,-1519 -1688,-2254 -418,-914 -1445,-4000 -41,-5923 222,-303 431,-410 1019,-553 -723,-1246 -2453,-4190 -17,-5282 1984,-890 2452,374 3384,1161z"/>
  <path class="fil2" d="M12610 2701c-1744,-23 -6129,1957 -6991,3367 -932,-787 -1400,-2051 -3384,-1161 -2436,1092 -706,4036 17,5282 -588,143 -797,250 -1019,553 -1404,1923 -377,5009 41,5923 337,735 1940,2125 1688,2254 -981,502 -1604,906 -1921,2669 -352,1961 -326,4185 180,6166 135,526 1601,3019 1584,3019 -2292,0 -2451,3287 -1358,4413 3542,3649 4370,-1363 5031,-422 830,1181 4798,3450 7602,3428 3518,-28 5087,-1532 7116,-3909 741,443 1914,1342 3079,2038 2872,1716 5657,1255 8145,-302 919,-575 1104,-969 1107,-963 790,1591 1798,1618 2863,1520 1149,-106 2316,-1444 2676,-2250 394,-881 29,-2062 -1942,-3978 1300,-1475 1801,-1487 2350,-3120 843,-2509 -595,-5177 -1784,-6923 1979,-1548 3304,-8720 238,-9936 -172,-69 486,-695 1165,-2957 452,-1505 -2194,-3319 -3492,-2701 -1941,923 -1199,2269 -2154,804 -2115,-3242 -6617,-2484 -7573,-2463 -2838,64 -5264,3246 -5445,3033 -1885,-2208 -5111,-3350 -7819,-3384zm-7392 5877l29494 0 0 23724 -29494 0 0 -23724z"/>
 </g>
</svg>
